<svg width="60" height="60" viewBox="0 0 60 60" fill="none" xmlns="http://www.w3.org/2000/svg">
<path d="M41.25 5V12.5M18.75 5V12.5M30 5V12.5M32.5 8.75H27.5C19.25 8.75 15.125 8.75 12.5625 11.3125C10 13.875 10 18 10 26.25V37.5C10 45.75 10 49.875 12.5625 52.4375C15.125 55 19.25 55 27.5 55H32.5C40.75 55 44.875 55 47.4375 52.4375C50 49.875 50 45.75 50 37.5V26.25C50 18 50 13.875 47.4375 11.3125C44.875 8.75 40.75 8.75 32.5 8.75Z" stroke="white" stroke-width="3" stroke-linecap="round" stroke-linejoin="round"/>
<path d="M18.75 27.5L21.25 30L26.25 23.75M32.5 42.5H40M32.5 27.5H40" stroke="white" stroke-width="3" stroke-linecap="round" stroke-linejoin="round"/>
<path d="M21.225 42.1675H21.249" stroke="white" stroke-width="4" stroke-linecap="round" stroke-linejoin="round"/>
</svg>
