<svg width="45" height="45" viewBox="0 0 45 45" fill="none" xmlns="http://www.w3.org/2000/svg">
<path d="M22.5 8.65538C27.0089 8.65538 27.5427 8.6751 29.316 8.75398C30.9639 8.82629 31.8538 9.10238 32.447 9.33245C33.2315 9.63482 33.7984 10.0029 34.3851 10.588C34.9782 11.1796 35.3409 11.7383 35.6441 12.5206C35.8747 13.1122 36.1516 14.0062 36.2242 15.643C36.3032 17.4178 36.323 17.9502 36.323 22.44C36.323 26.9363 36.3032 27.4687 36.2242 29.2369C36.1516 30.8804 35.8747 31.7677 35.6441 32.3594C35.3409 33.1417 34.9717 33.707 34.3851 34.292C33.7918 34.8836 33.2315 35.2451 32.447 35.5475C31.8538 35.7775 30.9573 36.0537 29.316 36.126C27.5362 36.2049 27.0022 36.2246 22.5 36.2246C17.9913 36.2246 17.4573 36.2049 15.684 36.126C14.0361 36.0537 13.1462 35.7775 12.553 35.5475C11.7686 35.2451 11.2017 34.877 10.615 34.292C10.0217 33.7004 9.65918 33.1417 9.35596 32.3594C9.12524 31.7677 8.84839 30.8738 8.77589 29.2369C8.69678 27.4621 8.677 26.9297 8.677 22.44C8.677 17.9438 8.69678 17.4112 8.77589 15.643C8.84839 13.9996 9.12524 13.1122 9.35596 12.5206C9.65918 11.7383 10.0283 11.173 10.615 10.588C11.2082 9.99637 11.7686 9.63482 12.553 9.33245C13.1462 9.10238 14.0427 8.82629 15.684 8.75398C17.4573 8.6751 17.9913 8.65538 22.5 8.65538ZM22.5 5.625C17.9187 5.625 17.3452 5.64472 15.5457 5.72361C13.7527 5.80248 12.52 6.09172 11.4521 6.50585C10.3381 6.9397 9.39551 7.5116 8.45948 8.4516C7.51684 9.38503 6.94336 10.325 6.50831 11.4294C6.09301 12.5009 5.80298 13.7235 5.72387 15.5115C5.64477 17.3126 5.625 17.8845 5.625 22.4532C5.625 27.0217 5.64477 27.5936 5.72387 29.3881C5.80298 31.1761 6.09301 32.4053 6.50831 33.4703C6.94336 34.5812 7.51684 35.5212 8.45948 36.4546C9.39551 37.3881 10.3381 37.9665 11.4456 38.3939C12.52 38.808 13.7461 39.0973 15.5391 39.176C17.3386 39.2549 17.9121 39.2747 22.4934 39.2747C27.0747 39.2747 27.6481 39.2549 29.4477 39.176C31.2407 39.0973 32.4734 38.808 33.5413 38.3939C34.6487 37.9665 35.5913 37.3881 36.5273 36.4546C37.4633 35.5212 38.0434 34.5812 38.4719 33.4769C38.8872 32.4053 39.1773 31.1828 39.2563 29.3947C39.3355 27.6002 39.3552 27.0283 39.3552 22.4596C39.3552 17.8912 39.3355 17.3192 39.2563 15.5247C39.1773 13.7367 38.8872 12.5074 38.4719 11.4425C38.0566 10.325 37.4832 9.38503 36.5406 8.4516C35.6046 7.51816 34.6618 6.9397 33.5544 6.51241C32.48 6.09829 31.2539 5.80906 29.4609 5.73017C27.6547 5.64472 27.0813 5.625 22.5 5.625Z" fill="black"/>
<path d="M22.5 13.8091C17.7144 13.8091 13.8318 17.6809 13.8318 22.4533C13.8318 27.2255 17.7144 31.0973 22.5 31.0973C27.2856 31.0973 31.1683 27.2255 31.1683 22.4533C31.1683 17.6809 27.2856 13.8091 22.5 13.8091ZM22.5 28.0604C19.3953 28.0604 16.8772 25.5494 16.8772 22.4533C16.8772 19.3571 19.3953 16.846 22.5 16.846C25.6047 16.846 28.1227 19.3571 28.1227 22.4533C28.1227 25.5494 25.6047 28.0604 22.5 28.0604Z" fill="black"/>
<path d="M33.5346 13.4673C33.5346 14.5848 32.6249 15.4854 31.5109 15.4854C30.3903 15.4854 29.4873 14.5782 29.4873 13.4673C29.4873 12.3498 30.3969 11.4492 31.5109 11.4492C32.6249 11.4492 33.5346 12.3564 33.5346 13.4673Z" fill="black"/>
</svg>
