<svg width="45" height="45" viewBox="0 0 45 45" fill="none" xmlns="http://www.w3.org/2000/svg">
<path d="M12.9924 18.5977C12.3506 18.5977 11.8295 19.1194 11.8295 19.7619C11.8295 20.4043 12.3506 20.926 12.9924 20.926C13.6341 20.926 14.1552 20.4043 14.1552 19.7619C14.1552 19.1194 13.6341 18.5977 12.9924 18.5977Z" fill="#E47070"/>
<path d="M24.4719 20.9807C25.1632 20.9807 25.7236 20.4197 25.7236 19.7277C25.7236 19.0357 25.1632 18.4746 24.4719 18.4746C23.7807 18.4746 23.2203 19.0357 23.2203 19.7277C23.2203 20.4197 23.7807 20.9807 24.4719 20.9807Z" fill="#E47070"/>
<path d="M32.1583 20.9532C32.8345 20.9532 33.3826 20.4045 33.3826 19.7275C33.3826 19.0507 32.8345 18.502 32.1583 18.502C31.4821 18.502 30.9341 19.0507 30.9341 19.7275C30.9341 20.4045 31.4821 20.9532 32.1583 20.9532Z" fill="#E47070"/>
<path d="M35.1326 7.85693H10.4077C7.91363 7.85693 5.89286 9.87998 5.89286 12.3769V27.0667C5.89286 29.5637 7.91363 31.5867 10.4077 31.5867H19.1393L22.109 38.5922C22.109 38.5922 22.3139 39.2004 22.8077 39.2004C23.3015 39.2004 23.5063 38.5922 23.5063 38.5922L26.476 31.5867H35.128C37.6221 31.5867 39.6429 29.5637 39.6429 27.0667V12.3769C39.6474 9.87998 37.6266 7.85693 35.1326 7.85693ZM16.4974 20.8427C16.4838 23.5287 13.7097 23.6038 13.7097 23.6038C12.6379 23.6038 12.0303 22.8931 12.0303 22.8931V23.376H10.0118V15.0378C10.0027 15.0356 10.0027 15.0356 10.0118 15.0333V15.0378C10.1369 15.0583 12.0325 15.0333 12.0325 15.0333V18.2227C12.5081 17.4117 13.8803 17.4253 13.8803 17.4253C16.8729 17.7034 16.4974 20.8427 16.4974 20.8427ZM20.0542 17.6806V23.3897H18.0766V17.7398C18.0766 16.9697 17.1232 16.7579 17.1232 16.7579V14.7644C20.2818 14.892 20.0542 17.6806 20.0542 17.6806ZM24.7397 23.6085C22.91 23.6085 21.4264 22.2415 21.4264 20.5534C21.4264 18.8652 22.91 17.4983 24.7397 17.4983C26.5694 17.4983 28.053 18.8652 28.053 20.5534C28.053 22.2415 26.5694 23.6085 24.7397 23.6085ZM35.5695 23.6085C35.5695 23.6085 35.5968 26.5086 32.6544 26.5086H31.7577V24.629H32.2994C32.2994 24.629 33.5373 24.7429 33.5237 22.8338C33.5237 22.8338 33.2824 23.6061 31.5461 23.6061C31.5461 23.6061 29.0861 23.4285 29.0861 21.0249V20.1137C29.0861 20.1137 29.1431 17.6214 31.8442 17.4231C31.8442 17.4231 32.9116 17.3092 33.5646 18.1932V17.5803H35.5695V23.6085Z" fill="#E47070"/>
</svg>
