<svg width="45" height="45" viewBox="0 0 45 45" fill="none" xmlns="http://www.w3.org/2000/svg">
<path d="M12.9924 18.5979C12.3506 18.5979 11.8295 19.1196 11.8295 19.7621C11.8295 20.4045 12.3506 20.9262 12.9924 20.9262C13.6341 20.9262 14.1552 20.4045 14.1552 19.7621C14.1552 19.1196 13.6341 18.5979 12.9924 18.5979Z" fill="black"/>
<path d="M24.4719 20.9807C25.1632 20.9807 25.7236 20.4197 25.7236 19.7277C25.7236 19.0357 25.1632 18.4746 24.4719 18.4746C23.7807 18.4746 23.2203 19.0357 23.2203 19.7277C23.2203 20.4197 23.7807 20.9807 24.4719 20.9807Z" fill="black"/>
<path d="M32.1583 20.9532C32.8345 20.9532 33.3826 20.4045 33.3826 19.7275C33.3826 19.0507 32.8345 18.502 32.1583 18.502C31.4821 18.502 30.9341 19.0507 30.9341 19.7275C30.9341 20.4045 31.4821 20.9532 32.1583 20.9532Z" fill="black"/>
<path d="M35.1326 7.85718H10.4077C7.91363 7.85718 5.89286 9.88022 5.89286 12.3771V27.067C5.89286 29.5639 7.91363 31.5869 10.4077 31.5869H19.1393L22.109 38.5925C22.109 38.5925 22.3139 39.2007 22.8077 39.2007C23.3015 39.2007 23.5063 38.5925 23.5063 38.5925L26.476 31.5869H35.128C37.6221 31.5869 39.6429 29.5639 39.6429 27.067V12.3771C39.6474 9.88022 37.6266 7.85718 35.1326 7.85718ZM16.4974 20.8429C16.4838 23.529 13.7097 23.6041 13.7097 23.6041C12.6379 23.6041 12.0303 22.8934 12.0303 22.8934V23.3763H10.0118V15.0381C10.0027 15.0358 10.0027 15.0358 10.0118 15.0336V15.0381C10.1369 15.0586 12.0325 15.0336 12.0325 15.0336V18.2229C12.5081 17.4119 13.8803 17.4256 13.8803 17.4256C16.8729 17.7036 16.4974 20.8429 16.4974 20.8429ZM20.0542 17.6808V23.3899H18.0766V17.74C18.0766 16.97 17.1232 16.7582 17.1232 16.7582V14.7647C20.2818 14.8922 20.0542 17.6808 20.0542 17.6808ZM24.7397 23.6087C22.91 23.6087 21.4264 22.2417 21.4264 20.5536C21.4264 18.8654 22.91 17.4986 24.7397 17.4986C26.5694 17.4986 28.053 18.8654 28.053 20.5536C28.053 22.2417 26.5694 23.6087 24.7397 23.6087ZM35.5695 23.6087C35.5695 23.6087 35.5968 26.5088 32.6544 26.5088H31.7577V24.6292H32.2994C32.2994 24.6292 33.5373 24.7431 33.5237 22.834C33.5237 22.834 33.2824 23.6063 31.5461 23.6063C31.5461 23.6063 29.0861 23.4287 29.0861 21.0252V20.1139C29.0861 20.1139 29.1431 17.6216 31.8442 17.4233C31.8442 17.4233 32.9116 17.3094 33.5646 18.1934V17.5806H35.5695V23.6087Z" fill="black"/>
</svg>
