<svg width="85" height="85" viewBox="0 0 85 85" fill="none" xmlns="http://www.w3.org/2000/svg">
<g clip-path="url(#clip0_18_251)">
<path d="M73.2906 29.0101C74.1803 28.2154 75.5034 28.396 76.1358 29.3983L77.1606 31.023C77.7713 31.9913 77.4814 33.3259 76.5247 33.9477L66.2565 40.6202L64.1069 37.2121L73.2906 29.0101Z" fill="#FFCECE"/>
<path d="M73.2906 29.0101C74.1803 28.2154 75.5034 28.396 76.1358 29.3983L77.1606 31.023C77.7713 31.9913 77.4814 33.3259 76.5247 33.9477L66.2565 40.6202L64.1069 37.2121L73.2906 29.0101Z" stroke="black" stroke-width="2"/>
<path d="M73.2906 29.0101C74.1803 28.2154 75.5034 28.396 76.1358 29.3983L77.1606 31.023C77.7713 31.9913 77.4814 33.3259 76.5247 33.9477L66.2565 40.6202L64.1069 37.2121L73.2906 29.0101Z" stroke="black" stroke-width="2"/>
<path d="M73.2906 29.0101C74.1803 28.2154 75.5034 28.396 76.1358 29.3983L77.1606 31.023C77.7713 31.9913 77.4814 33.3259 76.5247 33.9477L66.2565 40.6202L64.1069 37.2121L73.2906 29.0101Z" stroke="black" stroke-width="2"/>
<path d="M76.937 33.8183C77.9408 33.1728 79.2303 33.5569 79.7078 34.6434L80.5068 36.462C80.9677 37.5108 80.4774 38.7792 79.4324 39.2405L68.3675 44.1242L66.7242 40.3843L76.937 33.8183Z" fill="#FFCECE"/>
<path d="M76.937 33.8183C77.9408 33.1728 79.2303 33.5569 79.7078 34.6434L80.5068 36.462C80.9677 37.5108 80.4774 38.7792 79.4324 39.2405L68.3675 44.1242L66.7242 40.3843L76.937 33.8183Z" stroke="black" stroke-width="2"/>
<path d="M76.937 33.8183C77.9408 33.1728 79.2303 33.5569 79.7078 34.6434L80.5068 36.462C80.9677 37.5108 80.4774 38.7792 79.4324 39.2405L68.3675 44.1242L66.7242 40.3843L76.937 33.8183Z" stroke="black" stroke-width="2"/>
<path d="M76.937 33.8183C77.9408 33.1728 79.2303 33.5569 79.7078 34.6434L80.5068 36.462C80.9677 37.5108 80.4774 38.7792 79.4324 39.2405L68.3675 44.1242L66.7242 40.3843L76.937 33.8183Z" stroke="black" stroke-width="2"/>
<path d="M79.5439 39.667C80.6647 39.2604 81.8595 39.9192 82.1091 41.0811L82.54 43.0861C82.7808 44.2069 82.0387 45.329 80.9146 45.5441L69.176 47.7901L68.3066 43.7438L79.5439 39.667Z" fill="#FFCECE"/>
<path d="M79.5439 39.667C80.6647 39.2604 81.8595 39.9192 82.1091 41.0811L82.54 43.0861C82.7808 44.2069 82.0387 45.329 80.9146 45.5441L69.176 47.7901L68.3066 43.7438L79.5439 39.667Z" stroke="black" stroke-width="2"/>
<path d="M79.5439 39.667C80.6647 39.2604 81.8595 39.9192 82.1091 41.0811L82.54 43.0861C82.7808 44.2069 82.0387 45.329 80.9146 45.5441L69.176 47.7901L68.3066 43.7438L79.5439 39.667Z" stroke="black" stroke-width="2"/>
<path d="M79.5439 39.667C80.6647 39.2604 81.8595 39.9192 82.1091 41.0811L82.54 43.0861C82.7808 44.2069 82.0387 45.329 80.9146 45.5441L69.176 47.7901L68.3066 43.7438L79.5439 39.667Z" stroke="black" stroke-width="2"/>
<path d="M6.42169 65.5353C5.27189 65.8113 4.57561 67.0407 4.92588 68.1756L5.52416 70.1136C5.86235 71.2085 7.03678 71.7581 8.0973 71.3173L19.2299 66.69L18.015 62.7542L6.42169 65.5353Z" fill="#FFCECE"/>
<path d="M6.42169 65.5353C5.27189 65.8113 4.57561 67.0407 4.92588 68.1756L5.52416 70.1136C5.86235 71.2085 7.03678 71.7581 8.0973 71.3173L19.2299 66.69L18.015 62.7542L6.42169 65.5353Z" stroke="black" stroke-width="2"/>
<path d="M6.42169 65.5353C5.27189 65.8113 4.57561 67.0407 4.92588 68.1756L5.52416 70.1136C5.86235 71.2085 7.03678 71.7581 8.0973 71.3173L19.2299 66.69L18.015 62.7542L6.42169 65.5353Z" stroke="black" stroke-width="2"/>
<path d="M6.42169 65.5353C5.27189 65.8113 4.57561 67.0407 4.92588 68.1756L5.52416 70.1136C5.86235 71.2085 7.03678 71.7581 8.0973 71.3173L19.2299 66.69L18.015 62.7542L6.42169 65.5353Z" stroke="black" stroke-width="2"/>
<path d="M7.69241 71.5996C6.60571 72.0579 6.10536 73.388 6.61739 74.4582L7.46917 76.2386C7.96362 77.2716 9.19845 77.6306 10.1748 77.0254L20.5413 70.5989L18.7834 66.9246L7.69241 71.5996Z" fill="#FFCECE"/>
<path d="M7.69241 71.5996C6.60571 72.0579 6.10536 73.388 6.61739 74.4582L7.46917 76.2386C7.96362 77.2716 9.19845 77.6306 10.1748 77.0254L20.5413 70.5989L18.7834 66.9246L7.69241 71.5996Z" stroke="black" stroke-width="2"/>
<path d="M7.69241 71.5996C6.60571 72.0579 6.10536 73.388 6.61739 74.4582L7.46917 76.2386C7.96362 77.2716 9.19845 77.6306 10.1748 77.0254L20.5413 70.5989L18.7834 66.9246L7.69241 71.5996Z" stroke="black" stroke-width="2"/>
<path d="M7.69241 71.5996C6.60571 72.0579 6.10536 73.388 6.61739 74.4582L7.46917 76.2386C7.96362 77.2716 9.19845 77.6306 10.1748 77.0254L20.5413 70.5989L18.7834 66.9246L7.69241 71.5996Z" stroke="black" stroke-width="2"/>
<path d="M10.3662 77.4518C9.40987 78.1362 9.20481 79.5463 9.92508 80.4863L11.0662 81.9753C11.7622 82.8835 13.0346 82.9728 13.8567 82.1713L22.7596 73.4889L20.3312 70.3202L10.3662 77.4518Z" fill="#FFCECE"/>
<path d="M10.3662 77.4518C9.40987 78.1362 9.20481 79.5463 9.92508 80.4863L11.0662 81.9753C11.7622 82.8835 13.0346 82.9728 13.8567 82.1713L22.7596 73.4889L20.3312 70.3202L10.3662 77.4518Z" stroke="black" stroke-width="2"/>
<path d="M10.3662 77.4518C9.40987 78.1362 9.20481 79.5463 9.92508 80.4863L11.0662 81.9753C11.7622 82.8835 13.0346 82.9728 13.8567 82.1713L22.7596 73.4889L20.3312 70.3202L10.3662 77.4518Z" stroke="black" stroke-width="2"/>
<path d="M10.3662 77.4518C9.40987 78.1362 9.20481 79.5463 9.92508 80.4863L11.0662 81.9753C11.7622 82.8835 13.0346 82.9728 13.8567 82.1713L22.7596 73.4889L20.3312 70.3202L10.3662 77.4518Z" stroke="black" stroke-width="2"/>
<path d="M53.0361 34.9113C57.869 32.2384 63.727 34.106 66.1201 39.0831L69.5898 46.3009L69.8018 46.7706C71.7902 51.5044 69.9784 57.1836 65.6162 59.8917L65.1719 60.1525L46.0596 70.7218L45.0967 68.9738L64.3057 58.3507C68.1719 56.2125 69.7539 51.2506 67.8398 47.2687L64.3701 40.0519C62.4557 36.07 57.7696 34.575 53.9033 36.713L23.1855 53.7023C19.3192 55.8406 17.737 60.8014 19.6514 64.7833L23.1211 72.0011C25.0358 75.9824 29.7218 77.4771 33.5879 75.339L39.8457 71.8771L40.8096 73.6261L34.4541 77.1417L33.998 77.3781C29.4114 79.619 24.047 77.9085 21.6045 73.4259L21.3701 72.9689L17.9004 65.7511C15.5078 60.7738 17.4858 54.5724 22.3184 51.8995L53.0361 34.9113Z" fill="black"/>
<path d="M51.3212 5C53.847 5.00018 55.9766 6.88447 56.2841 9.3916L59.0741 32.1484C56.7733 31.5037 54.2194 31.7311 51.9032 32.9932L18.87 50.9941C16.7785 52.1338 15.2236 53.9288 14.3251 56H9.71375C6.68889 56 4.35655 53.3351 4.75769 50.3369L10.243 9.33691C10.5753 6.85389 12.6939 5 15.1991 5H51.3212Z" fill="#FFCECE"/>
<path d="M51.3212 5C53.847 5.00018 55.9766 6.88447 56.2841 9.3916L59.0741 32.1484C56.7733 31.5038 54.2193 31.7311 51.9032 32.9932L18.87 50.9941C16.7785 52.1338 15.2236 53.9288 14.3251 56H9.71375C6.68892 56 4.35656 53.335 4.75769 50.3369L8.54871 22H10.5673L6.74011 50.6025C6.4997 52.4011 7.89889 54 9.71375 54H13.0927C14.1956 52.0533 15.8266 50.3752 17.913 49.2383L50.9462 31.2373C52.8096 30.2219 54.8123 29.7624 56.7714 29.8037L54.2987 9.63477C54.1256 8.22476 52.9921 7.14255 51.6024 7.0127L51.3212 7H15.1991C13.6959 7.00003 12.4248 8.11286 12.2255 9.60254L11.37 16H9.35144L10.243 9.33691C10.5753 6.85391 12.694 5.00003 15.1991 5H51.3212Z" fill="black"/>
<line x1="18" y1="14" x2="48" y2="14" stroke="black" stroke-width="2"/>
</g>
<defs>
<clipPath id="clip0_18_251">
<rect width="85" height="85" fill="white"/>
</clipPath>
</defs>
</svg>
