<svg width="85" height="85" viewBox="0 0 85 85" fill="none" xmlns="http://www.w3.org/2000/svg">
<path d="M42.2383 42.5459C46.3779 47.1494 53.0604 50.2979 60.7695 50.2979L61.376 50.291C68.7997 50.1316 75.0076 47.056 78.8818 42.627C79.7657 44.2971 80.2393 46.1271 80.2393 48.0469C80.2392 55.885 72.3664 63.7049 60.7568 63.7051C49.147 63.7051 40.7608 55.8851 40.7607 48.0469C40.7607 46.0964 41.2792 44.2375 42.2383 42.5459Z" fill="#FFCECE"/>
<path d="M80.6494 41.6915C81.6806 43.6401 82.2393 45.7902 82.2393 48.047L82.2324 48.4786C81.9591 57.3837 73.2616 65.4457 61.3359 65.6993L60.7568 65.7052C48.6072 65.7052 39.0631 57.5879 38.7676 48.4816L38.7607 48.047C38.7607 45.7319 39.3782 43.5351 40.498 41.5597L41.8682 39.1437L43.7256 41.2091C44.6481 42.235 45.7167 43.1854 46.9102 44.0363L46.3828 46.1007C44.8169 45.0612 43.4231 43.8636 42.2383 42.546C41.2793 44.2376 40.7607 46.0965 40.7607 48.047C40.7609 55.8852 49.1471 63.7052 60.7568 63.7052C72.3663 63.705 80.2392 55.8851 80.2393 48.047C80.2393 46.1272 79.7657 44.2972 78.8818 42.6271C75.0076 47.0561 68.7996 50.1317 61.376 50.2911L60.7695 50.298C57.2266 50.298 53.9015 49.6305 50.9395 48.465L51.4375 46.5118C54.2171 47.6403 57.3713 48.2956 60.7588 48.297L61.333 48.2911C68.229 48.1431 73.8945 45.2918 77.377 41.3107L79.29 39.1222L80.6494 41.6915Z" fill="black"/>
<path d="M80.6504 59.9863C81.6818 61.9354 82.2392 64.0859 82.2393 66.3418C82.2393 68.8725 81.5549 71.3438 80.3066 73.5986L78.5762 72.5713C79.6563 70.6003 80.2393 68.4721 80.2393 66.3418C80.2392 64.4222 79.7666 62.5919 78.8828 60.9219C75.0086 65.3516 68.8002 68.4275 61.376 68.5869L60.7695 68.5938C53.0608 68.5938 46.378 65.4461 42.2383 60.8428C41.2797 62.534 40.7608 64.3919 40.7607 66.3418C40.7607 74.18 49.147 82 60.7568 82C66.9195 81.9999 72.0286 79.7957 75.4668 76.5557L77.251 77.6143C73.5092 81.3369 67.9144 83.8542 61.3359 83.9941L60.7568 84C48.4142 84 38.7607 75.6229 38.7607 66.3418C38.7608 64.0268 39.3789 61.831 40.498 59.8564L41.8682 57.4404L43.7256 59.5059C47.4626 63.6611 53.589 66.5898 60.7588 66.5928L61.333 66.5869C68.2293 66.4388 73.8945 63.587 77.377 59.6055L79.291 57.417L80.6504 59.9863Z" fill="black"/>
<mask id="path-4-outside-1_59_401" maskUnits="userSpaceOnUse" x="38.7607" y="20.9502" width="44" height="27" fill="black">
<rect fill="white" x="38.7607" y="20.9502" width="44" height="27"/>
<path d="M42.2061 24.9502C42.7424 25.4007 43.3094 25.8304 43.9043 26.2354C48.1651 29.1357 54.0543 30.999 60.7822 30.999C67.5122 30.9989 73.2741 29.1341 77.4062 26.2158C77.9355 25.842 78.4395 25.4473 78.918 25.0361C79.7787 26.6345 80.2392 28.3824 80.2393 30.2148C80.2393 37.8001 72.3664 45.368 60.7568 45.3682C49.147 45.3682 40.7607 37.8002 40.7607 30.2148C40.7608 28.3496 41.2685 26.5717 42.2061 24.9502Z"/>
</mask>
<path d="M42.2061 24.9502L43.4924 23.4187L41.6675 21.886L40.4746 23.9491L42.2061 24.9502ZM43.9043 26.2354L42.7788 27.8886L42.7789 27.8887L43.9043 26.2354ZM60.7822 30.999V32.999H60.7823L60.7822 30.999ZM77.4062 26.2158L78.56 27.8495L78.5601 27.8494L77.4062 26.2158ZM78.918 25.0361L80.6789 24.0879L79.5001 21.8989L77.6145 23.5193L78.918 25.0361ZM80.2393 30.2148H82.2393V30.2148L80.2393 30.2148ZM60.7568 45.3682V47.3682H60.7569L60.7568 45.3682ZM40.7607 30.2148L38.7607 30.2148V30.2148H40.7607ZM42.2061 24.9502L40.9197 26.4817C41.508 26.9757 42.1287 27.4461 42.7788 27.8886L43.9043 26.2354L45.0298 24.5821C44.4902 24.2147 43.9768 23.8257 43.4924 23.4187L42.2061 24.9502ZM43.9043 26.2354L42.7789 27.8887C47.4065 31.0387 53.6974 32.999 60.7822 32.999V30.999V28.999C54.4111 28.999 48.9236 27.2326 45.0297 24.582L43.9043 26.2354ZM60.7822 30.999L60.7823 32.999C67.8714 32.9989 74.0487 31.0356 78.56 27.8495L77.4062 26.2158L76.2525 24.5822C72.4995 27.2327 67.1531 28.9989 60.7822 28.999L60.7822 30.999ZM77.4062 26.2158L78.5601 27.8494C79.1425 27.4381 79.6963 27.0043 80.2215 26.553L78.918 25.0361L77.6145 23.5193C77.1826 23.8904 76.7285 24.246 76.2524 24.5822L77.4062 26.2158ZM78.918 25.0361L77.1571 25.9844C77.8671 27.303 78.2392 28.7264 78.2393 30.2149L80.2393 30.2148L82.2393 30.2148C82.2392 28.0383 81.6903 25.966 80.6789 24.0879L78.918 25.0361ZM80.2393 30.2148H78.2393C78.2393 36.3641 71.6254 43.368 60.7568 43.3682L60.7568 45.3682L60.7569 47.3682C73.1074 47.3679 82.2393 39.2362 82.2393 30.2148H80.2393ZM60.7568 45.3682V43.3682C49.8134 43.3682 42.7607 36.3034 42.7607 30.2148H40.7607H38.7607C38.7607 39.2971 48.4806 47.3682 60.7568 47.3682V45.3682ZM40.7607 30.2148L42.7607 30.2149C42.7608 28.7239 43.1641 27.2889 43.9375 25.9513L42.2061 24.9502L40.4746 23.9491C39.373 25.8545 38.7608 27.9752 38.7607 30.2148L40.7607 30.2148Z" fill="black" mask="url(#path-4-outside-1_59_401)"/>
<path d="M80 13.9354C80 19.9749 72.2221 26 60.7532 26C49.2844 26 41 19.9749 41 13.9354C41 7.89595 49.2844 3 60.7532 3C72.2221 3 80 7.89595 80 13.9354Z" fill="#FFCECE"/>
<path d="M60.7529 1C66.7462 1 71.93 2.2758 75.6885 4.47754C79.4328 6.67105 82 9.96048 82 13.9355C81.9999 17.8474 79.5054 21.4076 75.79 23.8945C72.0368 26.4069 66.8243 28 60.7529 28C54.6835 27.9999 49.3583 26.4081 45.4912 23.9131C41.6804 21.4543 39.0001 17.8986 39 13.9355C39 10.6948 40.7847 7.9383 43.4775 5.85742L44.4453 7.63965C42.2478 9.41978 41 11.5916 41 13.9355L41.0059 14.2188C41.2597 20.1618 49.4636 25.9999 60.7529 26C72.0424 26 79.7556 20.1619 79.9941 14.2188L80 13.9355C80 7.89609 72.2218 3 60.7529 3C56.723 3.00003 53.0868 3.60609 50.0645 4.65234L49.0977 2.87109C52.4319 1.67015 56.4093 1.00003 60.7529 1Z" fill="black"/>
<path d="M26.5 12C29.2356 12 31.8326 12.5935 34.1689 13.6592C34.6992 16.4633 36.4542 19.0284 38.9277 21.1104C37.0498 23.3358 36 25.947 36 28.7393C36.0001 32.2585 37.6682 35.7735 40.5596 38.6309C37.6682 41.247 36 44.5821 36 48.2148C36.0001 51.8921 37.7089 55.5655 40.666 58.5342C37.7088 61.1645 36 64.5375 36 68.2148C36.0001 70.5488 36.6893 72.8806 37.9482 75.0322C34.7988 77.5167 30.8228 79 26.5 79H20.5C10.2827 79 2 70.7173 2 60.5V30.5C2 20.2827 10.2827 12 20.5 12H26.5Z" fill="#FFCECE"/>
<path d="M26.5 12C29.2356 12 31.8326 12.5935 34.1689 13.6592C34.6992 16.4633 36.4542 19.0284 38.9277 21.1104C37.0498 23.3358 36 25.947 36 28.7393C36.0001 32.2585 37.6682 35.7735 40.5596 38.6309C37.6682 41.247 36 44.5821 36 48.2148C36.0001 51.8921 37.7089 55.5655 40.666 58.5342C37.7088 61.1645 36 64.5375 36 68.2148C36.0001 70.5488 36.6893 72.8806 37.9482 75.0322C34.7988 77.5167 30.8228 79 26.5 79H20.5C10.2827 79 2 70.7173 2 60.5V54H4V60.5C4 69.6127 11.3873 77 20.5 77H26.5C29.7713 77 32.8145 76.0461 35.3779 74.4053C34.4916 72.439 34.0001 70.3439 34 68.2148C34 64.5405 35.4524 61.1879 37.9072 58.459C35.4555 55.4601 34.0001 51.8912 34 48.2148C34 44.5938 35.4106 41.2843 37.8018 38.5771C35.4199 35.6964 34.0001 32.2753 34 28.7393C34 26.0637 34.8149 23.5585 36.2539 21.3564C34.4948 19.5622 33.1327 17.4534 32.4609 15.1094C30.7483 14.4456 28.8961 14.0585 26.957 14.0059L26.5 14H20.5C11.5297 14 4.2317 21.1583 4.00586 30.0742L4 30.5V49H2V30.5C2 20.2827 10.2827 12 20.5 12H26.5Z" fill="black"/>
<path d="M10.0214 25.7877C14.3935 27.272 24.9119 29.5282 32.0082 26.6791" stroke="black" stroke-width="2"/>
</svg>
