<svg width="87" height="85" viewBox="0 0 87 85" fill="none" xmlns="http://www.w3.org/2000/svg">
<path d="M82.1925 9.22581H4.45541C-1.80267 5.74194 1.84788 2.29032 4.45541 1H82.1925C87.2772 4.48387 84.3111 7.93548 82.1925 9.22581Z" fill="#FFCECE"/>
<path d="M12.7669 10.1935C12.7669 10.1935 12.7669 13.3545 12.7669 16M4.45541 9.22581H82.1925C84.3111 7.93548 87.2772 4.48387 82.1925 1H4.45541C1.84788 2.29032 -1.80267 5.74194 4.45541 9.22581Z" stroke="black" stroke-width="2" stroke-linecap="round" stroke-linejoin="round"/>
<path d="M72 10V17" stroke="black" stroke-width="2"/>
<rect x="6" y="17" width="74" height="67" rx="6" stroke="black" stroke-width="2"/>
<path d="M61.0228 23C62.3296 23 65.7271 23 68.8633 23C71.9995 23 72.7835 26.632 72.7835 28.4479C72.9469 42.1503 73.1756 70.4465 72.7835 74.0124C72.3915 77.5783 68.3733 78.1396 66.4132 77.9745C47.5961 73.6162 27.5375 75.6633 18.8803 77.4793C15.7442 78.0496 13 74.5802 13 72.5266L13.49 28.4479C13.49 24.4858 17.6697 23.3302 19.8604 23H52.2023" stroke="black" stroke-width="2"/>
<circle cx="43.5" cy="59.5" r="8.5" fill="#FFCECE"/>
<circle cx="52.5" cy="54.5" r="8.5" fill="#FFCECE"/>
<ellipse cx="38" cy="50.5" rx="10" ry="8.5" fill="#FFCECE"/>
<circle cx="58.5" cy="62.5" r="8.5" fill="#FFCECE" stroke="black" stroke-width="2"/>
<circle cx="26.5" cy="58.5" r="9.5" fill="#FFCECE" stroke="black" stroke-width="2"/>
<path d="M38 52.9163C39.8299 51.2808 45.6522 49.1234 49 54" stroke="black" stroke-width="2" stroke-linecap="round"/>
<path d="M47 48.8176C49.3333 46.2716 56.8 43.1436 60 51" stroke="black" stroke-width="2" stroke-linecap="round"/>
<path d="M29 46C31.6667 42.106 39.8 37.0282 47 46" stroke="black" stroke-width="2" stroke-linecap="round"/>
<path d="M37 66C38.5152 67.8219 42.6364 70.7088 47 67.6817" stroke="black" stroke-width="2" stroke-linecap="round"/>
</svg>
