<svg width="85" height="85" viewBox="0 0 85 85" fill="none" xmlns="http://www.w3.org/2000/svg">
<path d="M6.32678 32.5736C15.7782 22.3125 25.7823 39.0361 42.1774 48.2865C59.7765 55.9826 71.6413 62.0437 65.6422 72.3373C59.6431 82.6307 39.2366 82.5885 22.8414 73.3383C6.44617 64.0878 -2.79872 42.4814 6.32678 32.5736ZM55.9723 69.6947C55.055 69.3411 53.9969 69.2787 52.985 69.4652C51.9734 69.6518 51.0106 70.0865 50.2858 70.7426C49.6325 71.334 48.9592 72.3339 49.0924 73.5863L49.1305 73.8412L49.1891 74.0902C49.5253 75.3058 50.5205 75.998 51.3473 76.3168C52.2644 76.6704 53.3219 76.7336 54.3336 76.5472C55.3455 76.3607 56.3088 75.9252 57.0338 75.2689C57.7307 74.638 58.451 73.5425 58.1901 72.1713C57.929 70.7997 56.8541 70.0347 55.9723 69.6947ZM33.8932 65.7357C33.4611 65.7256 32.8403 65.8044 32.2614 66.226C31.6678 66.6583 31.3907 67.2519 31.2711 67.7406C31.0591 68.6075 31.2216 69.4594 31.4869 70.1449C31.761 70.8529 32.1997 71.5326 32.7448 72.14C33.8383 73.3584 35.4768 74.4167 37.5367 74.9047C39.3911 75.3438 41.237 75.456 42.7555 75.2113C43.5098 75.0897 44.2868 74.8636 44.9567 74.4623C45.6347 74.056 46.338 73.3785 46.5885 72.3549C46.6983 71.9059 46.7227 71.3892 46.5651 70.8568C46.407 70.3234 46.107 69.911 45.7819 69.6078C45.1983 69.0637 44.4454 68.7913 43.9069 68.6283C43.3173 68.4499 42.6257 68.3045 41.9498 68.1654C41.2449 68.0203 40.5072 67.8732 39.7125 67.6849C38.2533 67.3393 37.081 66.7493 35.8805 66.2562C35.4043 66.0606 34.6408 65.7535 33.8932 65.7357ZM53.9596 74.5824L53.817 74.6029C53.8643 74.5958 53.912 74.5902 53.9596 74.5814C54.0444 74.5658 54.1279 74.5479 54.2096 74.5277C54.1278 74.5479 54.0445 74.5667 53.9596 74.5824ZM41.5319 70.1195V70.1205C41.0153 70.0143 40.4508 69.9009 39.8502 69.7679V69.767C40.4508 69.8999 41.0153 70.0132 41.5319 70.1195Z" fill="#FFCECE"/>
<path d="M53.1724 70.4476C54.0322 70.2892 54.8984 70.3493 55.616 70.6259C56.316 70.8957 57.0342 71.4492 57.2062 72.3526C57.378 73.2558 56.9119 74.0267 56.3587 74.5275C55.7915 75.041 55.0063 75.4063 54.1465 75.5647C53.2869 75.7231 52.4213 75.662 51.7037 75.3854C51.0038 75.1155 50.2858 74.5629 50.1137 73.6596C49.9418 72.7563 50.4078 71.9846 50.961 71.4838C51.5282 70.9705 52.3129 70.6061 53.1724 70.4476Z" stroke="black" stroke-width="2"/>
<path d="M33.8629 66.7346C34.3971 66.7472 34.9944 66.9738 35.4943 67.1792C36.6182 67.6408 37.9144 68.2861 39.4751 68.6558C40.288 68.8484 41.0439 68.9989 41.7408 69.1423C42.4232 69.2827 43.0709 69.4208 43.6102 69.584C44.1238 69.7395 44.6873 69.9584 45.0946 70.338C45.315 70.5435 45.5056 70.8104 45.6049 71.1453C45.7038 71.4795 45.6916 71.8138 45.6157 72.1243C45.4484 72.8082 44.9724 73.2909 44.4446 73.6072C43.9208 73.921 43.2786 74.1162 42.6014 74.2254C41.2423 74.4443 39.5332 74.3497 37.7749 73.9333C35.9137 73.4924 34.4526 72.541 33.4931 71.472C33.0142 70.9385 32.6461 70.359 32.4221 69.7803C32.2025 69.2129 32.0963 68.5766 32.2444 67.971C32.3253 67.6406 32.5011 67.2841 32.8495 67.0304C33.1905 66.7823 33.5669 66.7276 33.8629 66.7346Z" stroke="black" stroke-width="2"/>
<path d="M64.7524 45.8334C64.0598 46.3636 63.5308 47.0437 63.2651 47.7576C63.0053 48.4555 62.9525 49.3475 63.521 50.0665C64.0895 50.7856 64.9812 50.9545 65.7327 50.8784C66.5012 50.8006 67.3013 50.4634 67.994 49.9333C68.6867 49.403 69.2163 48.7225 69.482 48.0085C69.7417 47.3106 69.7938 46.4191 69.2253 45.7002C68.6569 44.9812 67.7658 44.8116 67.0145 44.8876C66.2458 44.9655 65.4451 45.3032 64.7524 45.8334Z" stroke="black" stroke-width="2"/>
<path d="M74.8477 28.9822C74.4474 29.3688 74.1564 29.9444 73.9228 30.4633C73.3932 31.6395 72.955 32.9752 72.1682 34.4328C71.3917 35.8711 70.6569 37.1838 70.3046 38.2097C70.128 38.724 69.9974 39.3003 70.0851 39.8557C70.1852 40.4885 70.5529 40.9926 71.1409 41.2999C71.7612 41.624 72.4368 41.596 73.0289 41.4162C73.6155 41.238 74.1911 40.8941 74.7248 40.4659C75.7957 39.6068 76.8587 38.2809 77.7089 36.706C78.6108 35.0354 78.8551 33.3218 78.677 31.9035C78.5084 30.561 77.9156 29.2306 76.8533 28.6752C76.5393 28.5111 76.1636 28.4202 75.7591 28.4944C75.3667 28.5666 75.0652 28.7722 74.8477 28.9822Z" stroke="black" stroke-width="2"/>
<path d="M64.9871 6.00098C68.0504 4.67176 71.3692 4.98223 75.0017 7.03223C82.1405 11.0614 85.0198 19.7366 84.6775 28.6973C84.3319 37.74 80.7236 47.6882 74.0935 55.0596C73.1768 56.0787 72.2209 57.0565 71.2361 57.9941C70.8308 57.4816 70.3848 56.9851 69.9041 56.5039C70.8279 55.6212 71.7256 54.7015 72.5876 53.7432L73.1697 53.0801C85.1163 39.1133 86.1912 16.016 74.2869 8.92285L73.9988 8.75586C66.0884 4.29182 61.6415 9.94253 56.4529 18.2119L54.7361 17.1797C55.7334 15.591 56.7134 14.0797 57.6892 12.7256C59.7814 9.82239 62.1079 7.25044 64.9871 6.00098ZM53.0447 23.6992C50.8359 27.2103 48.3834 30.8799 45.4373 34.2666L44.8533 34.9268C43.2543 36.3599 41.7179 37.7523 40.2625 39.1055C39.718 38.699 39.18 38.2888 38.6482 37.877C40.1698 36.4583 41.7683 35.0103 43.4167 33.5322C46.4188 30.1807 48.9198 26.4844 51.2029 22.8652C51.2446 22.7991 51.2853 22.7322 51.3269 22.666L53.0447 23.6992Z" fill="black"/>
<path fill-rule="evenodd" clip-rule="evenodd" d="M4.84264 31.2423C7.56187 28.2899 10.5678 27.0738 13.8397 27.4229C16.9061 27.7503 19.911 29.4322 22.826 31.4942C25.7543 33.5657 28.9474 36.2912 32.2596 38.9366C35.6014 41.6056 39.1752 44.2868 43.1004 46.5108C51.7863 50.3107 59.4129 53.8516 64.0799 57.8292C66.4508 59.8498 68.2505 62.1389 68.9335 64.8214C69.6323 67.5668 69.0828 70.4066 67.3846 73.3204C63.8605 79.3671 56.3545 82.03 48.1571 82.1544C39.867 82.28 30.3155 79.851 21.8338 75.0655C18.9005 73.4104 16.1889 71.3826 13.7547 69.1046L15.1444 67.6573C17.4658 69.8297 20.0495 71.7631 22.8407 73.338C39.2359 82.5884 59.6433 82.6306 65.6424 72.337C71.6412 62.0436 59.7756 55.9832 42.1766 48.2872L41.4129 47.8487C25.4691 38.5212 15.6308 22.4732 6.32701 32.5743L6.11607 32.8077C-0.118481 39.9238 2.74411 52.7652 10.7635 62.8936L9.35826 64.3585C6.73373 61.0875 4.62463 57.5372 3.14928 53.9649C-0.187867 45.8846 -0.499076 37.0423 4.84264 31.2423Z" fill="black"/>
</svg>
