<svg width="85" height="85" viewBox="0 0 85 85" fill="none" xmlns="http://www.w3.org/2000/svg">
<path d="M41.0933 1.00452C43.5043 0.812137 46.1215 0.76572 48.5972 1.71057C48.8086 1.78953 49.0172 1.87417 49.2241 1.96448C51.6291 2.99694 54.1552 4.05278 56.5308 4.54651C56.7359 4.58333 56.9464 4.61011 57.0903 4.61292C59.959 4.78574 62.1353 6.16082 64.1616 7.55432C64.3947 7.7205 64.6244 7.89057 64.854 8.06506C65.7249 8.74887 66.9233 9.31354 67.9937 10.2701C68.2266 10.4748 68.4506 10.69 68.6636 10.9098C70.5662 12.892 72.4404 14.9386 73.9292 17.4196C74.0858 17.6859 74.237 17.9594 74.3794 18.2399C75.4137 20.277 76.5352 22.0635 78.1606 23.6793C78.3562 23.8908 78.5683 24.1257 78.7729 24.4108C80.289 26.6628 81.17 29.0132 81.8315 31.5026C81.9007 31.7742 81.9653 32.0472 82.0249 32.3219C82.1464 32.8667 82.2371 33.4694 82.3159 33.9352C82.3459 34.1125 82.3795 34.2035 82.3882 34.2242C82.9999 35.0676 84.1439 36.3804 84.106 38.11C84.1024 38.4271 84.0615 38.7415 83.9927 39.0397C83.489 40.8674 83.3973 42.8704 81.6704 44.8082C81.4565 45.0192 81.2136 45.2123 80.9526 45.3727C80.793 45.4669 80.5784 45.6126 80.2085 45.7174C79.7118 45.8947 78.9245 45.6723 78.6138 45.3776C77.7053 44.6352 76.9719 43.8528 76.4429 43.7252C76.3411 43.6968 76.2549 43.6878 76.1646 43.693C75.0152 43.8481 72.849 45.3127 70.7847 45.6412C70.5686 45.6857 70.3504 45.7231 70.1294 45.7545C69.6452 45.8326 69.1434 45.718 68.8286 45.6022C68.504 45.485 68.2964 45.39 68.1313 45.3473C68.0181 45.3167 67.9251 45.3028 67.8286 45.3004C65.6962 45.2522 63.475 45.5729 62.228 46.8649C62.1227 46.9735 62.0251 47.0884 61.9341 47.2096C61.4287 47.8766 61.1398 48.7421 60.9194 49.7262C60.6423 50.6971 60.7033 51.8596 59.6118 53.1315C59.51 53.2349 59.3977 53.3319 59.2769 53.4196C58.976 53.6266 58.7829 53.6537 58.6343 53.693C58.4855 53.7258 58.37 53.7421 58.2651 53.7584C58.0583 53.7894 57.8905 53.8157 57.7329 53.8522C57.4201 53.9239 57.1544 54.0312 56.9019 54.1901C56.8545 54.2199 56.807 54.2519 56.7603 54.2858C55.6849 55.0551 54.741 55.8289 54.4253 56.7594C54.4069 56.8119 54.3894 56.865 54.3745 56.9186C53.8354 58.9626 53.6962 61.215 54.0718 63.2926C54.0828 63.3521 54.0949 63.412 54.1069 63.4713C54.1471 63.6685 54.181 63.8627 54.2104 64.0592C54.3578 65.0245 54.3622 66.0531 54.1665 67.0348C54.0857 67.4717 53.958 67.9001 53.8481 68.2838C53.9177 69.1044 54.0744 69.9689 54.2134 70.7662C54.477 71.309 54.7833 71.7866 55.103 72.0143C55.1739 72.0474 55.2491 72.0751 55.3296 72.0944C55.3446 72.098 55.3605 72.1016 55.3755 72.1051C55.7759 72.1984 56.1842 72.278 56.5903 72.3385C57.2661 72.2637 58.3141 71.9255 59.5591 72.2018C59.5602 72.202 59.5619 72.2025 59.563 72.2028C59.7198 72.2429 59.8956 72.2883 60.1304 72.4137C60.3465 72.5275 60.7382 72.8223 60.854 73.3424V73.3444C60.999 73.9304 61.0165 74.5932 60.7935 75.2194C60.7719 75.28 60.7479 75.34 60.7222 75.399C60.7212 75.4012 60.7202 75.4037 60.7192 75.4059C60.3135 76.3811 59.573 77.7866 58.2026 78.4C58.2014 78.4006 58.2 78.4014 58.1987 78.402C57.2919 78.8211 56.4684 78.9049 55.7593 79.028C55.0626 79.1264 54.411 79.3211 54.3286 79.4489C54.3112 79.4659 54.2932 79.4833 54.2749 79.5006C51.5629 81.7456 48.6171 82.698 45.604 83.5602C45.5918 83.5635 45.5791 83.5667 45.5669 83.5699C44.3198 83.9042 42.8205 84.2805 41.2798 84.0621C41.2424 84.0573 41.2041 84.0519 41.1665 84.0465C38.9082 83.7738 36.5206 82.9292 34.5786 82.0983C34.5255 82.0777 34.4711 82.0571 34.4175 82.0367C32.0678 81.3234 28.8671 81.2526 25.9858 80.6715C25.8863 80.6531 25.7855 80.6341 25.6851 80.6149C22.9252 80.0823 19.8232 79.4129 17.3882 77.3356C17.2761 77.2406 17.1673 77.1441 17.0591 77.0446C15.4944 75.6035 13.9886 74.1 12.5669 72.4918C12.4705 72.3827 12.369 72.2667 12.2788 72.1637C11.499 71.1697 10.9855 70.4691 10.2671 69.6764C10.1718 69.5696 10.0759 69.4639 9.97803 69.3571C8.04876 67.2122 5.92158 65.0818 4.55225 62.1969C4.48177 62.0441 4.41342 61.8884 4.34912 61.7321C3.62156 59.9457 2.8551 58.1733 2.31201 56.1881C2.27159 56.0333 2.23183 55.8711 2.19678 55.7096C1.49878 52.8012 2.33423 49.7736 2.58643 47.4049C2.59279 47.3106 2.59734 47.216 2.59912 47.1266C2.64478 46.1751 2.09948 44.827 2.23975 43.2428C2.24887 43.1366 2.26108 43.0302 2.27588 42.9235C2.84965 39.7317 3.81884 36.9691 4.63818 34.0621C4.66014 33.9869 4.68164 33.911 4.70361 33.8356C5.08315 32.6111 5.07577 31.283 5.23779 29.7506C5.24582 29.6774 5.25438 29.6063 5.26318 29.5328C5.45326 27.4872 6.13028 25.319 7.11572 23.5016C7.14634 23.4435 7.1778 23.3847 7.20947 23.3258C8.34829 21.2399 9.58067 19.2702 10.9331 17.3258C10.9727 17.2695 11.0121 17.2131 11.0513 17.1578C12.1288 15.6083 13.4701 14.076 14.9526 12.8571C15.0141 12.8052 15.0751 12.7543 15.1372 12.7028C16.7118 11.3979 18.4583 10.3607 19.7505 9.21936C19.8072 9.16694 19.8609 9.11575 19.9087 9.06702C21.8288 7.1565 23.8772 4.93394 27.0845 4.18713C27.2015 4.16383 27.3207 4.14351 27.4399 4.12659C28.4121 3.99206 29.3695 3.73842 30.3472 3.42932L30.7202 5.63245C29.7668 5.92347 28.7732 6.17821 27.7505 6.31897C27.6729 6.32993 27.5943 6.3435 27.5161 6.35901C25.3299 6.82433 23.3348 8.71991 21.4829 10.6139C21.405 10.6931 21.3265 10.7696 21.2476 10.8424C19.6091 12.27 17.9617 13.2095 16.5396 14.3942C16.4816 14.4421 16.4257 14.4898 16.3687 14.5377C14.9943 15.6717 13.8748 16.9422 12.8364 18.4244C12.7993 18.4767 12.7617 18.5301 12.7241 18.5836C11.4366 20.4327 10.2183 22.3962 9.14404 24.3668C9.11537 24.4201 9.08769 24.4736 9.06006 24.526C8.16591 26.2039 7.60383 27.8813 7.4126 29.7916C7.40468 29.8571 7.39735 29.9212 7.39014 29.9869C7.24119 31.3092 7.25429 32.899 6.78271 34.442C6.76061 34.5178 6.73837 34.594 6.71631 34.6696C5.90043 37.5409 4.90746 40.4958 4.42236 43.2213C4.4128 43.2903 4.40485 43.3594 4.39893 43.4283C4.27379 44.4217 4.75225 45.5524 4.75537 47.1715C4.7527 47.2988 4.7471 47.427 4.73877 47.5504C4.40014 50.4899 3.73485 52.8415 4.30713 55.2516C4.33454 55.3779 4.36668 55.5113 4.40088 55.6422C4.87004 57.3685 5.60776 59.1504 6.32861 60.9196C6.38081 61.047 6.43545 61.1752 6.49365 61.3014C7.60992 63.6889 9.62935 65.7641 11.5688 67.899C11.6729 68.0125 11.7746 68.1249 11.8765 68.2389C12.5978 69.0278 13.3647 70.0539 13.8989 70.7448C13.9942 70.8538 14.0884 70.962 14.1812 71.067C15.5349 72.5987 17.0064 74.0459 18.5298 75.4391C18.6166 75.5183 18.7037 75.595 18.7935 75.6705C20.7082 77.3098 23.3596 77.9439 26.0962 78.4557C26.1918 78.4738 26.2883 78.4911 26.3833 78.5084C29.2166 79.0897 31.9496 79.013 35.2026 79.9596C35.2615 79.9818 35.3207 80.0048 35.3784 80.027C37.508 80.9171 39.3326 81.5538 41.4829 81.8229C41.5099 81.8266 41.5373 81.8303 41.564 81.8336C42.6244 81.9812 43.7223 81.7114 44.9761 81.3717C44.9877 81.3686 44.9996 81.3651 45.0112 81.3619C47.7957 80.5989 50.7413 79.492 52.7075 77.8434C52.7169 77.8345 52.7261 77.8266 52.7339 77.819C53.7515 76.9225 54.6664 76.9352 55.395 76.7809C56.1313 76.6656 56.7915 76.5588 57.2231 76.3512L57.2251 76.3502C57.8509 76.0684 58.2384 75.4588 58.6548 74.4996C58.6556 74.4976 58.6558 74.4948 58.6567 74.4928C58.6645 74.4756 58.672 74.4584 58.6792 74.441C58.7127 74.3616 58.741 74.2715 58.7593 74.1744C58.2037 74.1361 57.4477 74.3826 56.3218 74.3805L56.0464 74.3756C55.4498 74.3262 54.7316 74.1027 54.1772 73.7301C54.17 73.7254 54.162 73.7202 54.1548 73.7155C53.2692 73.1135 52.8422 72.3049 52.5386 71.568C52.109 70.9104 52.0047 70.2137 51.939 69.6158C51.9377 69.603 51.9363 69.5896 51.9351 69.5768C51.8799 68.2498 52.3522 67.5084 52.4565 66.7106C52.603 65.9271 52.5953 65.1382 52.4644 64.3297C52.438 64.166 52.4068 64.0022 52.3706 63.8346C52.3558 63.7659 52.3413 63.6963 52.3276 63.6276C51.8706 61.2184 51.9847 58.8042 52.5688 56.4352C52.5936 56.3405 52.621 56.2471 52.6519 56.1549C53.2251 54.4935 54.5599 53.5357 55.6187 52.736C55.698 52.6769 55.7783 52.6205 55.8608 52.567C56.2981 52.2814 56.8032 52.0781 57.2886 51.9645C57.5293 51.9066 57.7679 51.8689 57.9653 51.8375C58.0427 51.8322 58.1314 51.8066 58.186 51.7916C58.195 51.7831 58.2064 51.7766 58.2153 51.7672C58.9879 50.9132 58.7687 48.0312 60.3042 46.0035C60.4449 45.8117 60.5964 45.6301 60.7593 45.4586C62.7755 43.4183 65.5346 43.2095 67.8579 43.2086C68.1363 43.2109 68.4174 43.2541 68.6655 43.319C69.0255 43.4128 69.317 43.5388 69.5054 43.5963C69.7006 43.6567 69.7499 43.648 69.8042 43.6383C69.9887 43.6074 70.1702 43.5731 70.3501 43.5358C72.2192 43.251 73.3007 42.097 76.0298 41.5387C76.3689 41.5165 76.7155 41.5582 77.0269 41.6461C78.4224 42.1095 79.0989 42.9506 79.7778 43.5006C79.781 43.4986 79.7853 43.4978 79.7886 43.4957C79.9067 43.4212 80.0153 43.3348 80.1187 43.233C81.0147 42.3358 81.4082 40.3315 81.8364 38.5426C81.8724 38.3864 81.8913 38.2339 81.8931 38.0846C81.9184 37.3046 81.3896 36.57 80.5786 35.4957C80.2645 35.0443 80.1967 34.6057 80.1421 34.3287C80.0437 33.7436 79.9776 33.2889 79.8677 32.7897C79.8141 32.5416 79.7557 32.2943 79.6929 32.0475C79.1111 29.8096 78.1997 27.5112 76.9702 25.7028C76.8588 25.5469 76.7084 25.3743 76.5347 25.1871C74.8506 23.528 73.4557 21.3493 72.4019 19.2438C72.2829 19.0095 72.1542 18.7752 72.0181 18.5436C70.718 16.3675 68.9165 14.3704 67.0698 12.4537C66.8938 12.2723 66.7135 12.0994 66.5288 11.9371C65.729 11.2045 64.6264 10.6848 63.5103 9.83362C63.2978 9.6723 63.0862 9.51624 62.8726 9.36389C61.0529 8.07421 58.9508 6.91505 57.0415 6.83069C56.7021 6.82169 56.4151 6.77771 56.1421 6.7301C53.278 6.12566 50.8409 5.06367 48.3364 3.99963C48.1656 3.92511 47.9933 3.8554 47.8198 3.79065C45.8784 3.04432 43.7107 3.03138 41.4644 3.20081L41.0933 1.00452Z" fill="black"/>
<path d="M59.3759 53.1458C59.4903 53.5248 59.6362 53.965 59.7869 54.3839C59.9609 54.8673 60.0369 55.3831 59.9829 55.9117C59.8233 57.4745 57.9958 59.1144 57.2709 61.708C56.8589 63.1821 57.657 64.2379 57.2992 65.0201C56.9291 65.8289 55.8336 65.8622 54.5897 65.9894C54.2837 66.0207 54.0633 65.9894 53.8955 65.8041C52.8473 64.6464 53.1731 61.8839 53.0353 60.1034C52.7335 56.2047 54.4419 53.9572 55.3835 53.0805C56.5289 52.0142 57.7102 51.955 58.1245 52.0167C58.7631 52.5145 59.1628 52.6763 59.3563 53.0805C59.3635 53.0993 59.37 53.1213 59.3759 53.1458Z" fill="#FFCECE"/>
<path d="M60.0215 52.5459C60.1286 52.3152 60.1397 52.0514 60.0523 51.8126C59.9649 51.5737 59.7862 51.3794 59.5555 51.2723C59.3248 51.1652 59.061 51.1541 58.8222 51.2415C58.5833 51.3289 58.389 51.5076 58.2819 51.7383C58.1903 51.9512 58.1983 52.0351 58.1896 52.0984C58.185 52.1678 58.1863 52.1943 58.1873 52.2325C58.1896 52.2946 58.1946 52.3379 58.1991 52.3745C58.2084 52.4475 58.2184 52.5013 58.2284 52.5525C58.2483 52.6534 58.2689 52.7394 58.29 52.824C58.3322 52.9918 58.3763 53.1478 58.4219 53.3026C58.5131 53.6115 58.6096 53.9112 58.7107 54.2104C58.7596 54.3546 58.8095 54.4984 58.8608 54.6422C58.8687 54.6643 58.8767 54.6864 58.8848 54.7085C59.0079 55.0411 59.093 55.3817 59.0715 55.7243C59.0696 55.7556 59.067 55.7867 59.0638 55.8179C58.8389 57.1932 56.9932 59.0809 56.3869 61.3159C56.3735 61.3603 56.3604 61.405 56.3476 61.4499C55.8962 62.764 56.5455 64.5761 56.4074 64.6138C56.4075 64.6136 56.4077 64.613 56.408 64.6124C56.5503 64.7038 55.4942 64.9597 54.4904 65.0186C54.4606 65.0218 54.4355 65.0235 54.4177 65.0242C54.3786 65.0264 54.3795 65.0268 54.4316 65.0527C54.4832 65.0763 54.5639 65.1464 54.5815 65.183C54.558 65.1649 54.5349 65.1423 54.5148 65.1159C53.8303 64.1132 54.0332 61.9866 53.903 60.0362C53.9013 60.0156 53.8997 59.9951 53.8982 59.9746C53.7037 57.6714 54.3546 55.2671 55.9306 53.7411C55.9428 53.7294 55.9549 53.7181 55.9668 53.707C56.5455 53.142 57.4281 52.8061 57.9974 52.8701L57.5941 52.6972C57.6334 52.7278 57.672 52.7574 57.711 52.7868C57.8928 52.9244 58.0815 53.0529 58.2447 53.1647C58.49 53.329 58.586 53.4241 58.5934 53.4457L58.5664 53.3831C58.5364 53.2695 58.5776 53.4397 58.5831 53.5354C58.6039 53.6865 59.1514 53.8891 59.4838 54.0134C59.7038 53.7868 60.2759 53.6073 60.2557 53.392C60.2363 53.23 60.2605 53.1373 60.1461 52.778L60.1192 52.7153C59.8737 52.1939 59.4646 51.9337 59.2342 51.7601C59.056 51.6323 58.901 51.5234 58.7505 51.4095C58.7184 51.3853 58.6869 51.3611 58.655 51.3363L58.4757 51.1966L58.2517 51.1634C56.791 51.0343 55.6858 51.6518 54.8002 52.4541C54.7837 52.4695 54.7669 52.4853 54.75 52.5014C52.6832 54.5116 51.9603 57.4358 52.1624 60.0994C52.1641 60.1231 52.1658 60.1468 52.1675 60.1705C52.3639 61.936 51.7293 63.8669 53.0385 66.2007C53.0921 66.2746 53.1495 66.3512 53.2095 66.4252C53.3621 66.613 53.6184 66.7974 53.8639 66.8798C54.1098 66.9658 54.3159 66.9783 54.4786 66.9744C54.5554 66.972 54.6245 66.9667 54.689 66.9602C55.1741 66.9088 55.6853 66.8824 56.2838 66.7625C56.8323 66.6557 57.7835 66.3432 58.1903 65.4278C58.2115 65.3815 58.2307 65.3347 58.2479 65.2878C58.5615 64.1748 58.2086 63.6534 58.1732 63.18C58.0929 62.7157 58.0922 62.3438 58.1943 61.966C58.204 61.9303 58.214 61.8948 58.2242 61.8595C58.6615 59.9614 60.242 58.7915 60.902 56.0056C60.9076 55.9502 60.9121 55.8949 60.9156 55.8394C60.9545 55.2345 60.888 54.6185 60.6891 54.0593C60.6818 54.0387 60.6746 54.0182 60.6672 53.9976C60.6196 53.8641 60.573 53.73 60.5275 53.5955C60.4332 53.3169 60.3431 53.0364 60.2616 52.7604C60.2211 52.6229 60.1826 52.4858 60.1503 52.3574C60.1344 52.2938 60.1199 52.2314 60.1104 52.1829C60.1057 52.1594 60.1023 52.1378 60.1021 52.1353C60.1019 52.1348 60.1029 52.1385 60.104 52.164C60.1043 52.1808 60.1054 52.193 60.1023 52.2404C60.095 52.2852 60.1061 52.348 60.0215 52.5459Z" fill="black"/>
<path d="M38.3874 45.6522C39.3425 44.8562 40.4256 44.1259 41.422 43.531C41.9859 43.0892 42.5721 42.6875 43.1597 42.3467C43.5218 42.2313 43.8843 42.1478 44.2392 42.1038C44.9507 42.0157 45.6317 42.0867 46.2186 42.3789C47.4518 42.993 48.4482 43.9291 48.9319 45.0521C49.4482 46.2506 50.7537 49.6378 49.4139 51.7606C48.7552 52.8041 47.7871 53.3915 45.2933 54.7491C44.0661 55.4172 42.845 56.4126 42.0663 55.8179C41.6101 55.4695 40.5771 54.831 39.5485 53.8119C38.4645 52.7379 36.4225 50.1712 37.155 48.091C37.4406 47.2801 37.6406 46.2745 38.3874 45.6522Z" fill="#FFCECE"/>
<path d="M44.6424 43.0234C44.9138 43.0234 45.1741 42.9156 45.3661 42.7237C45.558 42.5317 45.6658 42.2714 45.6658 42C45.6658 41.7286 45.558 41.4683 45.3661 41.2763C45.1741 41.0844 44.9138 40.9766 44.6424 40.9766C44.2408 40.9981 44.184 41.0534 44.0437 41.0891C43.9191 41.1295 43.8136 41.1691 43.7049 41.2119C43.495 41.295 43.304 41.3795 43.1132 41.4676C42.7294 41.6455 42.3702 41.8285 42.0084 42.0224C40.5085 42.8342 39.0812 43.7515 37.7428 44.8571C37.7393 44.86 37.7357 44.863 37.7321 44.866C36.6718 45.7681 36.3985 46.9683 36.1111 47.7007C36.1086 47.7075 36.1061 47.7142 36.1036 47.7208C35.2672 50.8994 37.1831 52.9408 38.6997 54.6686C38.7005 54.6695 38.7013 54.6703 38.7022 54.6712C39.5113 55.5048 40.5332 56.2435 41.3081 56.7957C41.3106 56.7976 41.313 56.7994 41.3153 56.8012C41.8803 57.2621 42.7141 57.2967 43.1742 57.1797C43.6645 57.0714 44.0058 56.9013 44.3193 56.7423C44.9341 56.4191 45.4244 56.0912 45.8877 55.841C45.9106 55.8285 45.9333 55.8161 45.956 55.8038C47.396 54.932 49.1336 54.3749 50.4599 52.4208C50.472 52.4015 50.484 52.3821 50.4958 52.3627C52.0211 49.4252 50.9115 46.8038 50.0407 44.5744C50.0299 44.5496 50.0189 44.5248 50.0077 44.5001C49.3135 42.9922 48.0678 41.9695 46.7472 41.3174C46.7327 41.3103 46.7183 41.3033 46.7038 41.2964C45.3163 40.6548 43.9294 40.8878 42.8129 41.2582L42.5865 41.3586C42.5764 41.3647 42.5663 41.3708 42.5562 41.377C41.9006 41.7779 41.3005 42.243 40.7435 42.7471C40.5496 42.9227 40.3611 43.1032 40.1775 43.288L40.1195 43.3421C40.1151 43.3472 40.1107 43.3523 40.1062 43.3575C39.666 43.8808 39.7134 44.5822 39.6084 45.1574C39.5998 45.2093 39.6145 45.2742 39.639 45.331C39.664 45.3882 39.6968 45.4326 39.7404 45.4613C39.784 45.49 39.8378 45.5025 39.9003 45.5029C39.9621 45.5029 40.0275 45.4907 40.0717 45.4623C40.5557 45.1521 41.2003 44.9667 41.5012 44.7246C41.5044 44.722 41.5075 44.7194 41.5107 44.7169L41.4527 44.771C41.642 44.6351 41.8332 44.5028 42.0256 44.3739C42.5786 44.0037 43.1421 43.6609 43.7068 43.3491C43.7155 43.3443 43.7242 43.3395 43.7329 43.3348L43.5064 43.4351C44.3384 43.1873 45.1668 43.1663 45.6733 43.4319C45.6789 43.4347 45.6845 43.4375 45.69 43.4404C46.6381 43.9199 47.4423 44.6573 47.8054 45.4888C47.8114 45.5024 47.8173 45.516 47.8231 45.5297C48.6468 47.448 49.166 49.8225 48.3841 51.0744C48.3788 51.0831 48.3733 51.0918 48.3679 51.1005C47.8166 52.0441 46.2092 52.809 44.7664 53.6205C44.744 53.6327 44.7215 53.6449 44.6989 53.6573C44.1159 53.9759 43.6127 54.31 43.1724 54.5403C42.9578 54.6544 42.7523 54.7366 42.6602 54.7545C42.5438 54.7681 42.7274 54.7511 42.8173 54.8345C42.8129 54.8312 42.8086 54.8279 42.8042 54.8246C41.837 54.14 41.1039 53.6399 40.3994 52.9572C40.3987 52.9565 40.398 52.9559 40.3973 52.9552C39.0534 51.6572 37.7934 49.6549 38.2064 48.4613C38.2095 48.4523 38.2125 48.4433 38.2154 48.4343C38.5134 47.4593 38.6566 46.7397 39.0426 46.4384C39.0457 46.4358 39.0489 46.4331 39.0521 46.4305C40.2436 45.4445 41.5918 44.574 42.9762 43.826C43.3088 43.6477 43.6384 43.4801 43.9725 43.3254C44.1375 43.2491 44.3005 43.1775 44.4566 43.1157C44.5364 43.0843 44.6102 43.0572 44.6724 43.037C44.71 43.0172 44.8563 43.0076 44.6424 43.0234Z" fill="black"/>
<path d="M52.4343 19.7722C53.208 19.2936 53.8834 18.9279 54.46 18.6565C55.0228 18.4073 55.729 18.2916 56.3844 18.2609C57.9563 18.2302 59.9893 18.7287 61.5297 20.001C62.2722 20.9013 63.7703 22.2523 64.244 23.5044C64.7383 24.8111 65.5672 27.2585 64.4245 29.4593C63.62 31.0087 62.8258 32.116 61.5195 32.773C59.3542 33.8621 57.2163 35.3164 55.8429 34.939C53.6701 34.3419 49.7393 33.0803 48.6554 30.5614L48.6442 30.5355C48.2492 29.6176 47.8707 28.7381 48.0425 27.6746C48.5082 24.7925 48.9165 21.9484 52.4343 19.7722Z" fill="#FFCECE"/>
<path d="M56.4376 18.9646C56.6817 19.0703 56.9578 19.0747 57.2052 18.9768C57.4525 18.879 57.6508 18.6869 57.7565 18.4428C57.8622 18.1987 57.8666 17.9226 57.7688 17.6752C57.6709 17.4279 57.4788 17.2296 57.2347 17.1239C56.8445 16.9714 56.6491 16.9995 56.4567 16.9994C56.2706 17.008 56.1167 17.032 55.9706 17.06C55.6802 17.1171 55.4237 17.1943 55.1791 17.2775C54.6894 17.446 54.241 17.6455 53.8044 17.8589C53.1437 18.1834 52.5166 18.5424 51.9066 18.9193C51.8996 18.9236 51.8927 18.928 51.8857 18.9323C48.7929 20.5654 47.2172 24.4694 46.8614 27.4838C46.855 27.5196 46.8491 27.5553 46.8436 27.591C46.619 28.9388 47.1131 30.2077 47.4798 31.0673C47.4944 31.1017 47.5094 31.1358 47.5247 31.1697C49.4424 34.6194 52.734 35.3176 55.4969 36.1979C55.6061 36.228 55.7175 36.2514 55.8236 36.2679C59.0672 36.2568 60.2902 34.6988 62.1073 33.9416C62.2069 33.8915 62.305 33.8389 62.4019 33.7836C64.0054 32.8786 64.9136 31.3447 65.5811 30.0598C65.6326 29.9602 65.6805 29.8612 65.7264 29.7597C66.7794 27.4272 66.1909 24.941 65.4509 23.0478C65.3983 22.9094 65.3397 22.7776 65.2791 22.6542C64.4465 21.0708 63.2978 20.1293 62.5079 19.1943L62.3372 19.0234C62.2359 18.9411 62.1331 18.8618 62.0285 18.7852C60.5962 17.7446 58.9114 17.2574 57.2319 17.1881C56.944 17.1775 56.6546 17.1804 56.3637 17.1989L56.3347 17.1999C56.2063 17.2117 56.0777 17.2263 55.9492 17.2438C55.324 17.3284 54.8039 18.1089 54.4536 18.6422C54.4521 18.6445 54.4513 18.6481 54.451 18.6514C54.4507 18.6547 54.451 18.6576 54.4521 18.66C54.4532 18.6625 54.4551 18.6646 54.4578 18.6666C54.4604 18.6686 54.4636 18.6704 54.4663 18.6708C55.1165 18.7667 55.6823 19.3429 56.1401 19.3249C56.2376 19.3217 56.3359 19.3207 56.4341 19.3219L56.4052 19.3229C56.6188 19.3316 56.8357 19.3521 57.0521 19.3828C58.3261 19.5663 59.5598 20.0785 60.5155 20.812C60.586 20.8661 60.6549 20.9216 60.7223 20.9786L60.5515 20.8077C61.5393 21.9749 62.5216 22.8928 62.9619 23.7867C62.9917 23.8482 63.0171 23.9075 63.0371 23.961C63.7015 25.6654 63.9671 27.3734 63.3532 28.6844C63.3263 28.7433 63.2982 28.8008 63.268 28.8588C62.6518 30.0485 61.9914 31.0229 61.1039 31.5121C61.0478 31.5441 60.9905 31.5748 60.9318 31.6044C59.1684 32.4956 57.0759 33.7974 56.2252 33.6876C56.2102 33.6853 56.198 33.6826 56.1888 33.6802C53.6117 32.9781 50.7205 31.8777 49.8532 30.1045C49.8456 30.0882 49.8382 30.0718 49.831 30.0555C49.4256 29.1529 49.1465 28.5256 49.2178 27.9168C49.2196 27.8998 49.2215 27.8827 49.2237 27.8654C49.5357 24.7442 50.3699 22.12 52.9443 20.6361C52.9502 20.6324 52.956 20.6288 52.9619 20.6251C53.5292 20.2744 54.1064 19.9452 54.6876 19.6598C55.0699 19.4725 55.4563 19.303 55.8283 19.1754C56.0121 19.1125 56.1968 19.0593 56.3531 19.029C56.43 19.0139 56.5015 19.005 56.5439 19.0034C56.5788 18.995 56.6173 19.0298 56.4376 18.9646Z" fill="black"/>
<path d="M16.2185 68.7716C15.4565 66.8994 15.1116 65.4827 15.0235 64.5157C15.0244 63.8319 15.5997 62.1347 15.8095 60.8851C16.3176 59.6266 17.0705 57.601 18.5801 57.0129C19.9569 56.4766 22.7139 55.2961 24.506 56.5723C26.139 57.7352 27.0938 58.6853 27.6577 60.1236C28.7569 62.9267 29.4256 65.0909 28.6917 66.5576C27.739 68.4615 27.0862 69.7224 25.2077 70.6049C23.6819 71.3218 21.7554 72.2407 20.3854 71.9422C18.8676 71.6114 17.0916 70.9167 16.2185 68.7716Z" fill="#FFCECE"/>
<path d="M15.9463 63.743C16.1344 63.5564 16.2406 63.3027 16.2416 63.0377C16.2426 62.7728 16.1383 62.5183 15.9517 62.3302C15.765 62.1422 15.5113 62.036 15.2463 62.035C14.9814 62.034 14.7269 62.1383 14.5388 62.3249C14.0666 62.8659 14.0996 63.1775 14.0352 63.4767C13.9972 63.7686 13.9964 64.0254 14.0062 64.2744C14.0283 64.7682 14.1003 65.2266 14.1897 65.6688C14.4451 66.8988 14.8431 68.0353 15.2932 69.1483C15.3012 69.168 15.3093 69.1876 15.3175 69.2072C16.0495 71.2354 18.1911 72.7581 20.1293 73.1175C20.1817 73.1293 20.234 73.1399 20.2862 73.1492C22.7189 73.39 24.193 72.3641 25.7316 71.72C25.788 71.6937 25.8437 71.6669 25.8986 71.6398C27.9001 70.7677 29.0804 68.6204 29.8022 67.1132C29.8446 67.0287 29.8839 66.9426 29.9197 66.8561C30.8459 63.7463 29.501 61.7385 28.8305 59.6637C28.7947 59.5723 28.7574 59.4821 28.7179 59.3918C27.9811 57.6423 26.5015 56.4483 25.2336 55.5505C25.1293 55.4765 25.0244 55.4091 24.9142 55.3453C22.2248 54.0003 19.931 55.2058 18.13 55.8574C17.9397 55.932 17.7586 56.0214 17.5884 56.1219C15.7294 57.3386 15.2577 59.0753 14.6863 60.4317L14.6149 60.6845C14.5938 60.8198 14.5678 60.9608 14.5389 61.1045C14.3927 61.8342 14.2697 62.6262 14.1976 63.4905C14.1766 63.7973 14.1476 64.0753 14.1784 64.5145L14.1912 64.6621C14.2352 64.8853 14.3667 65.0876 14.4795 65.1979C14.7711 65.4666 14.931 65.4566 15.0782 65.4788C15.2234 65.4895 15.3499 65.4729 15.483 65.4614C15.7442 65.4347 16.0367 65.432 16.3034 65.5454C16.3057 65.5464 16.3089 65.5464 16.3119 65.546C16.3149 65.5456 16.3173 65.5447 16.3192 65.5431C16.3211 65.5416 16.3225 65.5394 16.3235 65.5365C16.3245 65.5337 16.3251 65.5306 16.3246 65.5281C16.2706 65.2462 16.1682 64.9156 15.996 64.6251C15.9122 64.4802 15.8149 64.3466 15.7352 64.2386C15.6608 64.1403 15.586 64.0174 15.7036 64.0997C15.7486 64.1352 15.8289 64.2463 15.8559 64.3692L15.8687 64.5168C15.9097 64.4059 16.0003 64.1424 16.0948 63.9116C16.3778 63.206 16.7097 62.4515 16.8991 61.607C16.9367 61.4382 16.9724 61.2657 17.0042 61.0857L16.9328 61.3386C17.4735 59.9726 18.1031 58.67 18.8428 58.2584C18.906 58.2218 18.968 58.1922 19.0302 58.1684C20.7988 57.4347 22.6969 56.9164 23.6553 57.5142C23.6979 57.5391 23.7382 57.5652 23.7784 57.594C24.9781 58.4493 25.9501 59.2988 26.4093 60.4009C26.4355 60.4608 26.4606 60.5213 26.485 60.5834C27.2293 62.4931 28.0878 64.7702 27.6224 65.9102C27.6096 65.9417 27.5958 65.9723 27.5812 66.0019C26.7828 67.6352 26.124 68.8221 24.8022 69.4323C24.7636 69.4516 24.7242 69.4708 24.6839 69.4899C23.2398 70.1827 21.6231 70.9108 20.6917 70.7753C20.6743 70.7727 20.6576 70.7699 20.6415 70.7669C19.0569 70.4726 17.7395 69.8593 17.1609 68.4366C17.1552 68.4228 17.1495 68.409 17.1438 68.395C16.7242 67.3604 16.3618 66.3075 16.1475 65.2698C16.0722 64.9004 16.0169 64.5269 16.0025 64.1898C15.9952 64.0223 15.9994 63.8615 16.0156 63.741C16.0113 63.6322 16.1309 63.5086 15.9463 63.743Z" fill="black"/>
<path d="M20.8665 24.5414C22.914 22.3471 24.9225 21.1823 25.5777 21.4089C25.8645 21.2677 26.157 21.1303 26.451 21C27.1918 21.0009 27.9013 20.9899 28.4709 21.2957C30.2332 22.2418 34.5891 23.91 33.9333 26.4951C33.2996 28.9936 32.1779 31.0154 31.4945 31.9752C30.8679 32.8553 30.2128 34.1685 28.1625 35.0264C26.3432 35.7877 23.3697 36.5261 21.8319 35.4867C20.7043 34.7245 19.4157 33.9643 19.2219 32.9319C18.7521 30.4298 18.9097 26.6385 20.8665 24.5414Z" fill="#FFCECE"/>
<path d="M25.2481 22.3343C25.493 22.4233 25.7632 22.4114 25.9993 22.3012C26.2354 22.191 26.418 21.9915 26.507 21.7466C26.596 21.5017 26.5841 21.2315 26.4739 20.9954C26.3637 20.7593 26.1642 20.5767 25.9193 20.4877C25.2207 20.2889 24.9431 20.4581 24.6428 20.5283C24.3576 20.6203 24.1163 20.732 23.8894 20.8483C23.4365 21.0832 23.0391 21.3446 22.6547 21.6224C21.7389 22.2897 20.926 23.0426 20.1724 23.8452C20.1643 23.8539 20.1563 23.8625 20.1482 23.8711C17.823 26.585 17.6574 29.9874 18.0808 33.1043C18.0831 33.1178 18.0854 33.1313 18.0877 33.1448C18.7413 35.337 20.1962 35.7232 21.1188 36.471C21.1297 36.4785 21.1406 36.4859 21.1515 36.4933C24.0954 38.0101 26.3611 36.9349 28.5482 36.1974C28.5781 36.1852 28.6077 36.1729 28.6371 36.1606C30.2593 35.574 31.7366 33.9686 32.4431 32.756C32.46 32.7317 32.4764 32.7082 32.4923 32.6857C33.7275 30.8757 34.5254 28.974 35.0694 26.9333C35.0815 26.8865 35.0935 26.8395 35.1053 26.7924C35.3956 25.7745 35.0286 24.5852 34.4865 23.8848C33.9485 23.1514 33.3207 22.664 32.7014 22.2371C31.4683 21.3998 30.1356 20.8267 29.03 20.2543C28.9781 20.2266 28.926 20.2007 28.8737 20.1765C27.8844 19.7468 27.0875 19.8355 26.4524 19.8218L25.9735 19.9229C25.9484 19.9342 25.9233 19.9456 25.8982 19.957C24.6259 20.5406 23.4757 21.2968 22.3721 22.1644C22.0168 22.4571 21.723 22.6643 21.291 23.1533L21.2527 23.1997C21.2503 23.2033 21.248 23.2069 21.2456 23.2105C20.8713 23.7944 21.23 24.4098 21.305 24.9312C21.7236 24.6116 22.3695 24.3446 22.547 24.1965C22.5486 24.1949 22.5502 24.1932 22.5519 24.1915L22.5136 24.238C22.661 24.1313 23.0675 23.8839 23.3973 23.7125C24.5168 23.1241 25.7117 22.6151 26.8604 22.1069C26.8831 22.097 26.9058 22.087 26.9285 22.0771L26.4496 22.1782C27.1083 22.1746 27.6643 22.2025 27.8773 22.3194C27.8895 22.3252 27.901 22.3311 27.9119 22.3371C29.1932 23.0043 30.3534 23.5198 31.3506 24.2098C32.3669 24.8886 32.966 25.7073 32.7614 26.1978C32.7509 26.2386 32.7403 26.2793 32.7295 26.3198C32.2606 28.0696 31.4842 29.8366 30.4967 31.2647C30.4745 31.2957 30.4528 31.3266 30.4314 31.3573C29.5814 32.6953 28.8988 33.3866 27.6879 33.8922C27.6638 33.9023 27.6394 33.9124 27.6147 33.9225C25.8772 34.6446 23.4742 35.1118 22.5122 34.4801C22.5004 34.4721 22.4886 34.4642 22.4767 34.4563C21.4476 33.8061 20.356 33.0158 20.3561 32.7189C20.3538 32.708 20.3515 32.697 20.3493 32.6861C19.8535 30.125 19.9687 27.0073 21.5848 25.2116C21.5921 25.2038 21.5994 25.1959 21.6067 25.1881C22.2881 24.4615 23.0272 23.7813 23.8082 23.213C24.1332 22.9775 24.4657 22.7623 24.7898 22.5947C24.9496 22.5121 25.1117 22.441 25.241 22.3998C25.3509 22.3451 25.5275 22.3968 25.2481 22.3343Z" fill="black"/>
</svg>
