<svg width="45" height="45" viewBox="0 0 45 45" fill="none" xmlns="http://www.w3.org/2000/svg">
<g clip-path="url(#clip0_29_170)">
<path d="M22.5 39.375C31.8198 39.375 39.375 31.8198 39.375 22.5C39.375 13.1802 31.8198 5.625 22.5 5.625C13.1802 5.625 5.625 13.1802 5.625 22.5C5.625 31.8198 13.1802 39.375 22.5 39.375Z" fill="black"/>
<path d="M12.0938 12.6562L20.1094 23.4844L11.9531 32.2031H13.7813L20.9531 24.4687L26.7188 32.2031H32.9062L24.3281 20.8125L31.9219 12.6562H30.0938L23.4844 19.6875L18.1406 12.6562H11.9531H12.0938ZM14.7656 14.0625H17.5781L30.2344 30.9375H27.4219L14.7656 14.0625Z" fill="white"/>
</g>
<defs>
<clipPath id="clip0_29_170">
<rect width="45" height="45" fill="white"/>
</clipPath>
</defs>
</svg>
