<svg width="45" height="45" viewBox="0 0 45 45" fill="none" xmlns="http://www.w3.org/2000/svg">
<path d="M39.0388 15.7218C39.0388 15.7218 38.7093 13.4014 37.6941 12.3825C36.4087 11.0415 34.9718 11.035 34.3125 10.9561C29.5928 10.6143 22.5066 10.6143 22.5066 10.6143H22.4934C22.4934 10.6143 15.4072 10.6143 10.6875 10.9561C10.0283 11.035 8.59132 11.0415 7.3059 12.3825C6.29078 13.4014 5.96777 15.7218 5.96777 15.7218C5.96777 15.7218 5.625 18.4498 5.625 21.1713V23.7219C5.625 26.4432 5.96118 29.1712 5.96118 29.1712C5.96118 29.1712 6.29077 31.4917 7.29931 32.5105C8.58472 33.8515 10.2722 33.8055 11.0237 33.9501C13.7263 34.2066 22.5 34.2853 22.5 34.2853C22.5 34.2853 29.5928 34.2722 34.3125 33.937C34.9718 33.8581 36.4087 33.8515 37.6941 32.5105C38.7093 31.4917 39.0388 29.1712 39.0388 29.1712C39.0388 29.1712 39.375 26.4498 39.375 23.7219V21.1713C39.375 18.4498 39.0388 15.7218 39.0388 15.7218ZM19.0129 26.8179V17.3587L28.1294 22.1047L19.0129 26.8179Z" fill="#E47070"/>
</svg>
