<svg width="85" height="85" viewBox="0 0 85 85" fill="none" xmlns="http://www.w3.org/2000/svg">
<path d="M53.1724 70.4476C54.0322 70.2892 54.8984 70.3493 55.616 70.6259C56.316 70.8957 57.0342 71.4492 57.2062 72.3526C57.378 73.2558 56.9119 74.0267 56.3587 74.5275C55.7915 75.041 55.0063 75.4063 54.1465 75.5647C53.2869 75.7231 52.4213 75.662 51.7037 75.3854C51.0038 75.1155 50.2858 74.5629 50.1137 73.6596C49.9418 72.7563 50.4078 71.9846 50.961 71.4838C51.5282 70.9705 52.3129 70.6061 53.1724 70.4476Z" stroke="black" stroke-width="2"/>
<path d="M33.8629 66.7346C34.3971 66.7472 34.9944 66.9738 35.4943 67.1792C36.6182 67.6408 37.9144 68.2861 39.4751 68.6558C40.288 68.8484 41.0439 68.9989 41.7408 69.1423C42.4232 69.2827 43.0709 69.4208 43.6102 69.584C44.1238 69.7395 44.6873 69.9584 45.0946 70.338C45.315 70.5435 45.5056 70.8104 45.6049 71.1453C45.7038 71.4795 45.6916 71.8138 45.6157 72.1243C45.4484 72.8082 44.9724 73.2909 44.4446 73.6072C43.9208 73.921 43.2786 74.1162 42.6014 74.2254C41.2423 74.4443 39.5332 74.3497 37.7749 73.9333C35.9137 73.4924 34.4526 72.541 33.4931 71.472C33.0142 70.9385 32.6461 70.359 32.4221 69.7803C32.2025 69.2129 32.0963 68.5766 32.2444 67.971C32.3253 67.6406 32.5011 67.2841 32.8495 67.0304C33.1905 66.7823 33.5669 66.7276 33.8629 66.7346Z" stroke="black" stroke-width="2"/>
<path d="M64.7524 45.8334C64.0598 46.3636 63.5308 47.0437 63.2651 47.7576C63.0053 48.4555 62.9525 49.3475 63.521 50.0665C64.0895 50.7856 64.9812 50.9545 65.7327 50.8784C66.5012 50.8006 67.3013 50.4634 67.994 49.9333C68.6867 49.403 69.2163 48.7225 69.482 48.0085C69.7417 47.3106 69.7938 46.4191 69.2253 45.7002C68.6569 44.9812 67.7658 44.8116 67.0145 44.8876C66.2458 44.9655 65.4451 45.3032 64.7524 45.8334Z" stroke="black" stroke-width="2"/>
<path d="M74.8477 28.9822C74.4474 29.3688 74.1564 29.9444 73.9228 30.4633C73.3932 31.6395 72.955 32.9752 72.1682 34.4328C71.3917 35.8711 70.6569 37.1838 70.3046 38.2097C70.128 38.724 69.9974 39.3003 70.0851 39.8557C70.1852 40.4885 70.5529 40.9926 71.1409 41.2999C71.7612 41.624 72.4368 41.596 73.0289 41.4162C73.6155 41.238 74.1911 40.8941 74.7248 40.4659C75.7957 39.6068 76.8587 38.2809 77.7089 36.706C78.6108 35.0354 78.8551 33.3218 78.677 31.9035C78.5084 30.561 77.9156 29.2306 76.8533 28.6752C76.5393 28.5111 76.1636 28.4202 75.7591 28.4944C75.3667 28.5666 75.0652 28.7722 74.8477 28.9822Z" stroke="black" stroke-width="2"/>
<path d="M64.9871 6.00098C68.0504 4.67176 71.3692 4.98223 75.0017 7.03223C82.1405 11.0614 85.0198 19.7366 84.6775 28.6973C84.3319 37.74 80.7236 47.6882 74.0935 55.0596C73.1768 56.0787 72.2209 57.0565 71.2361 57.9941C70.8308 57.4816 70.3848 56.9851 69.9041 56.5039C70.8279 55.6212 71.7256 54.7015 72.5876 53.7432L73.1697 53.0801C85.1163 39.1133 86.1912 16.016 74.2869 8.92285L73.9988 8.75586C66.0884 4.29182 61.6415 9.94253 56.4529 18.2119L54.7361 17.1797C55.7334 15.591 56.7134 14.0797 57.6892 12.7256C59.7814 9.82239 62.1079 7.25044 64.9871 6.00098ZM53.0447 23.6992C50.8359 27.2103 48.3834 30.8799 45.4373 34.2666L44.8533 34.9268C43.2543 36.3599 41.7179 37.7523 40.2625 39.1055C39.718 38.699 39.18 38.2888 38.6482 37.877C40.1698 36.4583 41.7683 35.0103 43.4167 33.5322C46.4188 30.1807 48.9198 26.4844 51.2029 22.8652C51.2446 22.7991 51.2853 22.7322 51.3269 22.666L53.0447 23.6992Z" fill="black"/>
<path d="M4.84265 31.2419C7.56187 28.2896 10.5678 27.0734 13.8397 27.4225C16.9063 27.75 19.9109 29.4327 22.826 31.4948C25.7543 33.5663 28.9475 36.2918 32.2596 38.9372C35.6013 41.6061 39.1753 44.2874 43.1005 46.5114C51.7862 50.3112 59.4129 53.8513 64.08 57.8288C66.4508 59.8494 68.2505 62.1386 68.9335 64.821C69.6324 67.5664 69.0828 70.4062 67.3846 73.32C63.8606 79.3668 56.3546 82.0306 48.1571 82.155C39.8671 82.2806 30.3155 79.8516 21.8339 75.0661C18.9004 73.411 16.189 71.3823 13.7548 69.1042L15.1434 67.6569C17.4649 69.8296 20.0492 71.7625 22.8407 73.3376C39.2358 82.588 59.6432 82.631 65.6425 72.3376C71.6415 62.0441 59.7758 55.9839 42.1766 48.2878L41.413 47.8483C25.4692 38.5208 15.6308 22.473 6.32703 32.5739L6.11609 32.8083C-0.11848 39.9245 2.74394 52.7658 10.7635 62.8942L9.35828 64.3581C6.73381 61.0872 4.62461 57.5367 3.14929 53.9645C-0.187786 45.8842 -0.499155 37.0419 4.84265 31.2419Z" fill="black"/>
</svg>
