<svg width="85" height="85" viewBox="0 0 85 85" fill="none" xmlns="http://www.w3.org/2000/svg">
<path d="M13.8896 77.7402L13.8965 77.9971C14.026 80.5537 16.0762 82.6037 18.6328 82.7334L18.8896 82.7402H68.5068L68.7637 82.7334C71.3205 82.604 73.3705 80.5539 73.5 77.9971L73.5068 77.7402V65.0762H75.5068V77.7402C75.5067 81.6061 72.3727 84.7402 68.5068 84.7402H18.8896C15.024 84.7399 11.8898 81.6059 11.8896 77.7402V48.5156H13.8896V77.7402ZM68.5068 0.146484C72.3727 0.146547 75.5067 3.2806 75.5068 7.14648V57.3477H73.5068V7.14648C73.5068 4.47132 71.4056 2.28707 68.7637 2.15332L68.5068 2.14648H18.8896C16.1286 2.14682 13.8897 4.38534 13.8896 7.14648V40.7871H11.8896V7.14648C11.8897 3.28077 15.024 0.146818 18.8896 0.146484H68.5068Z" fill="black"/>
<line x1="19.0742" y1="21.0732" x2="68.0742" y2="21.0732" stroke="black" stroke-width="2"/>
<line x1="19.0742" y1="42.0732" x2="68.0742" y2="42.0732" stroke="black" stroke-width="2"/>
<line x1="19.0742" y1="65.0732" x2="68.0742" y2="65.0732" stroke="black" stroke-width="2"/>
<line x1="33.0742" y1="6.07324" x2="33.0742" y2="81.0732" stroke="black" stroke-width="2"/>
<line x1="53.0742" y1="6.07324" x2="53.0742" y2="81.0732" stroke="black" stroke-width="2"/>
</svg>
