<svg width="85" height="85" viewBox="0 0 85 85" fill="none" xmlns="http://www.w3.org/2000/svg">
<g clip-path="url(#clip0_18_142)">
<path d="M73.2906 29.0101C74.1803 28.2154 75.5034 28.396 76.1358 29.3983L77.1606 31.023C77.7713 31.9913 77.4814 33.3259 76.5247 33.9477L66.2565 40.6202L64.1069 37.2121L73.2906 29.0101Z" stroke="black" stroke-width="2"/>
<path d="M73.2906 29.0101C74.1803 28.2154 75.5034 28.396 76.1358 29.3983L77.1606 31.023C77.7713 31.9913 77.4814 33.3259 76.5247 33.9477L66.2565 40.6202L64.1069 37.2121L73.2906 29.0101Z" stroke="black" stroke-width="2"/>
<path d="M73.2906 29.0101C74.1803 28.2154 75.5034 28.396 76.1358 29.3983L77.1606 31.023C77.7713 31.9913 77.4814 33.3259 76.5247 33.9477L66.2565 40.6202L64.1069 37.2121L73.2906 29.0101Z" stroke="black" stroke-width="2"/>
<path d="M76.937 33.8183C77.9408 33.1728 79.2303 33.5569 79.7078 34.6434L80.5068 36.462C80.9677 37.5108 80.4774 38.7792 79.4324 39.2405L68.3675 44.1242L66.7242 40.3843L76.937 33.8183Z" stroke="black" stroke-width="2"/>
<path d="M76.937 33.8183C77.9408 33.1728 79.2303 33.5569 79.7078 34.6434L80.5068 36.462C80.9677 37.5108 80.4774 38.7792 79.4324 39.2405L68.3675 44.1242L66.7242 40.3843L76.937 33.8183Z" stroke="black" stroke-width="2"/>
<path d="M76.937 33.8183C77.9408 33.1728 79.2303 33.5569 79.7078 34.6434L80.5068 36.462C80.9677 37.5108 80.4774 38.7792 79.4324 39.2405L68.3675 44.1242L66.7242 40.3843L76.937 33.8183Z" stroke="black" stroke-width="2"/>
<path d="M79.5439 39.667C80.6647 39.2604 81.8595 39.9192 82.1091 41.0811L82.54 43.0861C82.7808 44.2069 82.0387 45.329 80.9146 45.5441L69.176 47.7901L68.3066 43.7438L79.5439 39.667Z" stroke="black" stroke-width="2"/>
<path d="M79.5439 39.667C80.6647 39.2604 81.8595 39.9192 82.1091 41.0811L82.54 43.0861C82.7808 44.2069 82.0387 45.329 80.9146 45.5441L69.176 47.7901L68.3066 43.7438L79.5439 39.667Z" stroke="black" stroke-width="2"/>
<path d="M79.5439 39.667C80.6647 39.2604 81.8595 39.9192 82.1091 41.0811L82.54 43.0861C82.7808 44.2069 82.0387 45.329 80.9146 45.5441L69.176 47.7901L68.3066 43.7438L79.5439 39.667Z" stroke="black" stroke-width="2"/>
<path d="M6.42169 65.5353C5.27189 65.8113 4.57561 67.0407 4.92588 68.1756L5.52416 70.1136C5.86235 71.2085 7.03678 71.7581 8.0973 71.3173L19.2299 66.69L18.015 62.7542L6.42169 65.5353Z" stroke="black" stroke-width="2"/>
<path d="M6.42169 65.5353C5.27189 65.8113 4.57561 67.0407 4.92588 68.1756L5.52416 70.1136C5.86235 71.2085 7.03678 71.7581 8.0973 71.3173L19.2299 66.69L18.015 62.7542L6.42169 65.5353Z" stroke="black" stroke-width="2"/>
<path d="M6.42169 65.5353C5.27189 65.8113 4.57561 67.0407 4.92588 68.1756L5.52416 70.1136C5.86235 71.2085 7.03678 71.7581 8.0973 71.3173L19.2299 66.69L18.015 62.7542L6.42169 65.5353Z" stroke="black" stroke-width="2"/>
<path d="M7.69241 71.5996C6.60571 72.0579 6.10536 73.388 6.61739 74.4582L7.46917 76.2386C7.96362 77.2716 9.19845 77.6306 10.1748 77.0254L20.5413 70.5989L18.7834 66.9246L7.69241 71.5996Z" stroke="black" stroke-width="2"/>
<path d="M7.69241 71.5996C6.60571 72.0579 6.10536 73.388 6.61739 74.4582L7.46917 76.2386C7.96362 77.2716 9.19845 77.6306 10.1748 77.0254L20.5413 70.5989L18.7834 66.9246L7.69241 71.5996Z" stroke="black" stroke-width="2"/>
<path d="M7.69241 71.5996C6.60571 72.0579 6.10536 73.388 6.61739 74.4582L7.46917 76.2386C7.96362 77.2716 9.19845 77.6306 10.1748 77.0254L20.5413 70.5989L18.7834 66.9246L7.69241 71.5996Z" stroke="black" stroke-width="2"/>
<path d="M10.3662 77.4518C9.40987 78.1362 9.20481 79.5463 9.92508 80.4863L11.0662 81.9753C11.7622 82.8835 13.0346 82.9728 13.8567 82.1713L22.7596 73.4889L20.3312 70.3202L10.3662 77.4518Z" stroke="black" stroke-width="2"/>
<path d="M10.3662 77.4518C9.40987 78.1362 9.20481 79.5463 9.92508 80.4863L11.0662 81.9753C11.7622 82.8835 13.0346 82.9728 13.8567 82.1713L22.7596 73.4889L20.3312 70.3202L10.3662 77.4518Z" stroke="black" stroke-width="2"/>
<path d="M10.3662 77.4518C9.40987 78.1362 9.20481 79.5463 9.92508 80.4863L11.0662 81.9753C11.7622 82.8835 13.0346 82.9728 13.8567 82.1713L22.7596 73.4889L20.3312 70.3202L10.3662 77.4518Z" stroke="black" stroke-width="2"/>
<path d="M53.0366 34.9107C57.8695 32.238 63.7276 34.1062 66.1206 39.0836L69.5903 46.3004L69.8022 46.7711C71.7903 51.5046 69.9785 57.1831 65.6167 59.8912L65.1724 60.1529L46.0601 70.7222L45.0962 68.9732L64.3052 58.3502C68.1713 56.212 69.7533 51.251 67.8394 47.2691L64.3696 40.0513C62.4551 36.0696 57.7691 34.5752 53.9028 36.7134L23.1851 53.7017C19.3188 55.8401 17.7365 60.8018 19.6509 64.7838L23.1206 72.0005C25.0351 75.9821 29.7213 77.4773 33.5874 75.3394L39.8462 71.8775L40.8091 73.6255L34.4546 77.1412L33.9985 77.3785C29.4119 79.6194 24.0475 77.9088 21.605 73.4263L21.3706 72.9683L17.9009 65.7515C15.5079 60.7741 17.4859 54.5719 22.3188 51.899L53.0366 34.9107Z" fill="black"/>
<line x1="18" y1="14" x2="48" y2="14" stroke="black" stroke-width="2"/>
<path d="M51.3212 5C53.847 5.0002 55.9766 6.88449 56.2841 9.3916L59.0741 32.1484C56.7733 31.5038 54.2193 31.7311 51.9032 32.9932L18.87 50.9941C16.7785 52.1338 15.2236 53.9288 14.3251 56H9.71375C6.68892 56 4.35656 53.335 4.75769 50.3369L8.54871 22H10.5673L6.74011 50.6025C6.4997 52.4011 7.89889 54 9.71375 54H13.0927C14.1956 52.0533 15.8266 50.3752 17.913 49.2383L50.9462 31.2373C52.8096 30.2219 54.8123 29.7624 56.7714 29.8037L54.2987 9.63477C54.1256 8.22478 52.9921 7.14258 51.6024 7.0127L51.3212 7H15.1991C13.6959 7.00003 12.4248 8.11287 12.2255 9.60254L11.37 16H9.35144L10.243 9.33691C10.5753 6.85392 12.694 5.00003 15.1991 5H51.3212Z" fill="black"/>
</g>
<defs>
<clipPath id="clip0_18_142">
<rect width="85" height="85" fill="white"/>
</clipPath>
</defs>
</svg>
