<svg width="85" height="85" viewBox="0 0 85 85" fill="none" xmlns="http://www.w3.org/2000/svg">
<path d="M41.093 1.0047C43.5043 0.812288 46.122 0.765649 48.5979 1.71075C48.8095 1.78977 49.0178 1.87428 49.2249 1.96466C51.63 2.99719 54.1558 4.05302 56.5315 4.54669C56.7368 4.58354 56.9472 4.61034 57.0911 4.6131C59.9598 4.786 62.136 6.16092 64.1624 7.5545C64.3956 7.72079 64.625 7.89063 64.8547 8.06525C65.7257 8.74914 66.924 9.31349 67.9944 10.2703C68.2275 10.4751 68.4512 10.6901 68.6643 10.91C70.567 12.8923 72.4411 14.9386 73.9299 17.4197C74.0866 17.6862 74.2377 17.9594 74.3801 18.2401C75.4145 20.2774 76.5357 22.0636 78.1614 23.6795C78.357 23.8911 78.5689 24.1257 78.7737 24.4109C80.2898 26.6631 81.1708 29.0133 81.8323 31.5027C81.9014 31.7745 81.966 32.0473 82.0256 32.3221C82.1471 32.867 82.2378 33.4696 82.3167 33.9354C82.3556 34.1654 82.3997 34.2496 82.3889 34.2244C83.0007 35.0678 84.1447 36.3805 84.1067 38.1102C84.1032 38.4273 84.0623 38.7416 83.9934 39.0399C83.4897 40.8675 83.3978 42.8707 81.6711 44.8084C81.4573 45.0193 81.2143 45.2125 80.9534 45.3729C80.7938 45.467 80.5791 45.6128 80.2092 45.7176C79.7126 45.8951 78.9254 45.6725 78.6145 45.3777C77.7059 44.6353 76.9727 43.8531 76.4436 43.7254C76.3417 43.6968 76.2557 43.688 76.1653 43.6932C75.0161 43.8479 72.85 45.3128 70.7854 45.6414C70.5693 45.6859 70.3512 45.7233 70.1301 45.7547C69.6459 45.8329 69.1443 45.7182 68.8293 45.6024C68.5045 45.4851 68.2972 45.3902 68.1321 45.3475C68.0187 45.3168 67.9259 45.303 67.8293 45.3006C65.6969 45.2524 63.4759 45.5732 62.2288 46.8651C62.1234 46.9736 62.0258 47.0886 61.9348 47.2098C61.4294 47.8767 61.1405 48.7423 60.9202 49.7264C60.6431 50.6972 60.7038 51.8599 59.6125 53.1317C59.5108 53.2351 59.3984 53.3321 59.2776 53.4197C58.9768 53.6268 58.7836 53.6539 58.635 53.6932C58.4862 53.726 58.3708 53.7423 58.2659 53.7586C58.0589 53.7896 57.8913 53.8159 57.7336 53.8524C57.4207 53.9241 57.1551 54.0314 56.9026 54.1902C56.8552 54.2201 56.8077 54.2521 56.761 54.2859C55.6856 55.0553 54.7417 55.8291 54.426 56.7596C54.4076 56.8121 54.3901 56.8652 54.3752 56.9188C53.8361 58.9629 53.6969 61.2151 54.0725 63.2928C54.0836 63.3524 54.0956 63.4121 54.1077 63.4715C54.1478 63.6688 54.1818 63.8628 54.2112 64.0594C54.3585 65.0247 54.3629 66.0532 54.1672 67.035C54.0865 67.4719 53.9587 67.9003 53.8489 68.284C53.9184 69.1047 54.0751 69.969 54.2141 70.7664C54.4779 71.3094 54.7839 71.787 55.1038 72.0145C55.1747 72.0477 55.2497 72.0753 55.3303 72.0945C55.3455 72.0982 55.3611 72.1017 55.3762 72.1053C55.7768 72.1986 56.1848 72.2782 56.5911 72.3387C57.2669 72.2638 58.3148 71.9255 59.5598 72.202C59.561 72.2023 59.5625 72.2026 59.5637 72.2029C59.7206 72.2431 59.8962 72.2883 60.1311 72.4139C60.3473 72.5278 60.739 72.8223 60.8547 73.3426V73.3445C60.9997 73.9306 61.0172 74.5934 60.7942 75.2195C60.7727 75.2801 60.7486 75.3402 60.7229 75.3992C60.722 75.4014 60.7209 75.4039 60.72 75.4061C60.3143 76.3813 59.5736 77.7867 58.2034 78.4002C58.2021 78.4008 58.2007 78.4016 58.1995 78.4022C57.2926 78.8213 56.4691 78.9051 55.76 79.0281C55.0635 79.1265 54.4123 79.3212 54.3293 79.449C54.312 79.466 54.2939 79.4835 54.2756 79.5008C51.5637 81.7458 48.6177 82.6982 45.6047 83.5604C45.5925 83.5637 45.5799 83.5668 45.5676 83.5701C44.3205 83.9044 42.8214 84.2806 41.2805 84.0623C41.243 84.0575 41.205 84.0521 41.1672 84.0467C38.9088 83.7741 36.5214 82.9295 34.5793 82.0984C34.5261 82.0778 34.472 82.0573 34.4182 82.0369C32.0685 81.3234 28.8681 81.2528 25.9866 80.6717C25.8869 80.6533 25.7863 80.6343 25.6858 80.6151C22.9258 80.0825 19.8241 79.4132 17.3889 77.3358C17.2766 77.2407 17.1682 77.1444 17.0598 77.0447C15.495 75.6035 13.9895 74.1003 12.5676 72.492C12.4711 72.3827 12.3699 72.2671 12.2795 72.1639C11.4995 71.1696 10.9863 70.4694 10.2678 69.6766C10.1724 69.5697 10.0768 69.4643 9.97876 69.3572C8.04939 67.2123 5.92241 65.0822 4.55298 62.1971C4.48243 62.0441 4.41422 61.8888 4.34985 61.7322C3.62224 59.9457 2.85587 58.1736 2.31274 56.1883C2.27229 56.0334 2.23259 55.8714 2.19751 55.7098C1.49937 52.8012 2.33496 49.7739 2.58716 47.4051C2.59353 47.3107 2.59807 47.2163 2.59985 47.1268C2.64558 46.1753 2.10021 44.8272 2.24048 43.243C2.24961 43.1368 2.26181 43.0304 2.27661 42.9236C2.85038 39.7319 3.81956 36.9693 4.63892 34.0623C4.66087 33.9871 4.68237 33.9112 4.70435 33.8358C5.08387 32.6113 5.0765 31.2832 5.23853 29.7508C5.24656 29.6776 5.25511 29.6065 5.26392 29.533C5.45398 27.4873 6.13099 25.3192 7.11646 23.5018C7.14705 23.4437 7.17856 23.3848 7.21021 23.326C8.349 21.2402 9.58144 19.2703 10.9338 17.326C10.9733 17.2698 11.0129 17.2132 11.052 17.158C12.1296 15.6086 13.4709 14.0761 14.9534 12.8572C15.0148 12.8054 15.0759 12.7545 15.1379 12.7029C16.7125 11.3981 18.4591 10.3608 19.7512 9.21954C19.8079 9.16718 19.8617 9.11588 19.9094 9.0672C21.8295 7.15665 23.8778 4.93401 27.0852 4.18732C27.2023 4.16401 27.3213 4.14369 27.4407 4.12677C28.4126 3.99225 29.3694 3.73854 30.3469 3.4295L30.72 5.63361C29.7668 5.92453 28.7736 6.17842 27.7512 6.31915C27.6736 6.33011 27.5951 6.34368 27.5168 6.35919C25.3306 6.82436 23.3355 8.72005 21.4836 10.6141C21.4058 10.6933 21.3272 10.7698 21.2483 10.8426C19.6099 12.2702 17.9624 13.2097 16.5403 14.3943C16.4824 14.4423 16.4264 14.49 16.3694 14.5379C14.995 15.6718 13.8755 16.9424 12.8372 18.4246C12.8001 18.4768 12.7624 18.5304 12.7249 18.5838C11.4374 20.4328 10.219 22.3965 9.14478 24.367C9.11613 24.4202 9.08839 24.4738 9.06079 24.5262C8.16662 26.2041 7.60455 27.8815 7.41333 29.7918C7.40541 29.8573 7.39809 29.9213 7.39087 29.9871C7.24193 31.3094 7.25501 32.8992 6.78345 34.4422C6.76135 34.518 6.7391 34.5942 6.71704 34.6697C5.90116 37.5411 4.90819 40.4959 4.4231 43.2215C4.41353 43.2905 4.40559 43.3595 4.39966 43.4285C4.27452 44.4219 4.75302 45.5525 4.7561 47.1717C4.75343 47.299 4.74783 47.4271 4.7395 47.5506C4.40085 50.4903 3.73544 52.8415 4.30786 55.2518C4.3353 55.3782 4.36738 55.5114 4.40161 55.6424C4.87081 57.3689 5.60844 59.1505 6.32935 60.9197C6.3816 61.0473 6.43611 61.1752 6.49438 61.3016C7.61073 63.6893 9.62996 65.7641 11.5696 67.8992C11.6737 68.0128 11.7752 68.1249 11.8772 68.2391C12.5987 69.0281 13.3654 70.0541 13.8997 70.7449C13.9951 70.8542 14.089 70.962 14.1819 71.0672C15.5358 72.599 17.007 74.046 18.5305 75.4393C18.6174 75.5186 18.7043 75.595 18.7942 75.6707C20.7091 77.3101 23.3602 77.9441 26.0969 78.4559C26.1927 78.474 26.2889 78.4913 26.384 78.5086C29.2174 79.0899 31.9502 79.013 35.2034 79.9598C35.2624 79.982 35.3213 80.005 35.3792 80.0272C37.5089 80.9173 39.3331 81.5541 41.4836 81.8231C41.5108 81.8268 41.5379 81.8305 41.5647 81.8338C42.6252 81.9813 43.723 81.7116 44.9768 81.3719C44.9885 81.3687 45.0003 81.3653 45.012 81.3621C47.7964 80.5991 50.7421 79.4922 52.7083 77.8436C52.7176 77.8348 52.7268 77.8268 52.7346 77.8192C53.7523 76.9227 54.6671 76.9355 55.3958 76.7811C56.1321 76.6657 56.7923 76.5591 57.2239 76.3514L57.2258 76.3504C57.8514 76.0685 58.2392 75.4589 58.6555 74.4998C58.6563 74.4978 58.6566 74.495 58.6575 74.493C58.6652 74.4759 58.6727 74.4586 58.6799 74.4412C58.7134 74.3618 58.7417 74.2717 58.76 74.1746C58.2044 74.1361 57.4486 74.3827 56.3225 74.3807L56.0471 74.3758C55.4504 74.3265 54.7325 74.103 54.178 73.7303C54.1706 73.7255 54.1629 73.7205 54.1555 73.7156C53.2696 73.1137 52.843 72.3052 52.5393 71.5682C52.1095 70.9105 52.0055 70.214 51.9397 69.616C51.9384 69.6031 51.937 69.5899 51.9358 69.577C51.8806 68.2498 52.3529 67.5086 52.4573 66.7108C52.6037 65.9273 52.5961 65.1384 52.4651 64.3299C52.4387 64.1661 52.4076 64.0025 52.3713 63.8348C52.3565 63.766 52.342 63.6966 52.3284 63.6277C51.8713 61.2185 51.9855 58.8045 52.5696 56.4354C52.5944 56.3407 52.6217 56.2473 52.6526 56.1551C53.2258 54.4937 54.5607 53.5359 55.6194 52.7361C55.6987 52.6771 55.779 52.6206 55.8616 52.5672C56.2989 52.2816 56.8039 52.0782 57.2893 51.9647C57.5301 51.9068 57.7686 51.8691 57.9661 51.8377C58.0436 51.8323 58.1322 51.8068 58.1868 51.7918C58.1957 51.7834 58.2072 51.7767 58.2161 51.7674C58.9884 50.9131 58.7696 48.0312 60.3049 46.0037C60.4456 45.812 60.5972 45.6302 60.76 45.4588C62.7764 43.4185 65.5353 43.2097 67.8586 43.2088C68.1372 43.2111 68.418 43.2542 68.6663 43.3192C69.0265 43.413 69.3178 43.5391 69.5061 43.5965C69.7017 43.657 69.7505 43.6482 69.8049 43.6385C69.9895 43.6075 70.1708 43.5733 70.3508 43.5359C72.2199 43.2511 73.3013 42.0972 76.0305 41.5389C76.3697 41.5167 76.7162 41.5583 77.0276 41.6463C78.4234 42.1098 79.0995 42.9508 79.7786 43.5008C79.7818 43.4988 79.7861 43.498 79.7893 43.4959C79.9073 43.4214 80.016 43.335 80.1194 43.2332C81.0153 42.3359 81.4089 40.3316 81.8372 38.5428C81.8731 38.3866 81.8921 38.2341 81.8938 38.0848C81.9193 37.3048 81.3904 36.5702 80.5793 35.4959C80.265 35.0444 80.1974 34.606 80.1428 34.3289C80.0444 33.7436 79.9784 33.2891 79.8684 32.7899C79.8148 32.5417 79.7564 32.2946 79.6936 32.0477C79.1119 29.8096 78.2005 27.5115 76.9709 25.7029C76.8595 25.547 76.7093 25.3747 76.5354 25.1873C74.8511 23.5282 73.4565 21.3497 72.4026 19.244C72.2836 19.0095 72.155 18.7755 72.0188 18.5438C70.7187 16.3675 68.9173 14.3707 67.0706 12.4539C66.8945 12.2723 66.7144 12.0997 66.5295 11.9373C65.7297 11.2045 64.6274 10.6851 63.511 9.8338C63.2984 9.67236 63.0871 9.51653 62.8733 9.36407C61.0535 8.07429 58.9517 6.91532 57.0422 6.83087C56.7027 6.8219 56.4159 6.77791 56.1428 6.73029C53.2785 6.12588 50.8417 5.0639 48.3372 3.99982C48.1662 3.92522 47.9941 3.85563 47.8206 3.79083C45.8789 3.04427 43.7108 3.03056 41.4641 3.20001L41.093 1.0047Z" fill="black"/>
<path d="M60.0215 52.5459C60.1286 52.3152 60.1397 52.0514 60.0523 51.8126C59.9649 51.5737 59.7862 51.3794 59.5555 51.2723C59.3248 51.1652 59.061 51.1541 58.8222 51.2415C58.5833 51.3289 58.389 51.5076 58.2819 51.7383C58.1903 51.9512 58.1983 52.0351 58.1896 52.0984C58.185 52.1678 58.1863 52.1943 58.1873 52.2325C58.1896 52.2946 58.1946 52.3379 58.1991 52.3745C58.2084 52.4475 58.2184 52.5013 58.2284 52.5525C58.2483 52.6534 58.2689 52.7394 58.29 52.824C58.3322 52.9918 58.3763 53.1478 58.4219 53.3026C58.5131 53.6115 58.6096 53.9112 58.7107 54.2104C58.7596 54.3546 58.8095 54.4984 58.8608 54.6422C58.8687 54.6643 58.8767 54.6864 58.8848 54.7085C59.0079 55.0411 59.093 55.3817 59.0715 55.7243C59.0696 55.7556 59.067 55.7867 59.0638 55.8179C58.8389 57.1932 56.9932 59.0809 56.3869 61.3159C56.3735 61.3603 56.3604 61.405 56.3476 61.4499C55.8962 62.764 56.5455 64.5761 56.4074 64.6138C56.4075 64.6136 56.4077 64.613 56.408 64.6124C56.5503 64.7038 55.4942 64.9597 54.4904 65.0186C54.4606 65.0218 54.4355 65.0235 54.4177 65.0242C54.3786 65.0264 54.3795 65.0268 54.4316 65.0527C54.4832 65.0763 54.5639 65.1464 54.5815 65.183C54.558 65.1649 54.5349 65.1423 54.5148 65.1159C53.8303 64.1132 54.0332 61.9866 53.903 60.0362C53.9013 60.0156 53.8997 59.9951 53.8982 59.9746C53.7037 57.6714 54.3546 55.2671 55.9306 53.7411C55.9428 53.7294 55.9549 53.7181 55.9668 53.707C56.5455 53.142 57.4281 52.8061 57.9974 52.8701L57.5941 52.6972C57.6334 52.7278 57.672 52.7574 57.711 52.7868C57.8928 52.9244 58.0815 53.0529 58.2447 53.1647C58.49 53.329 58.586 53.4241 58.5934 53.4457L58.5664 53.3831C58.5364 53.2695 58.5776 53.4397 58.5831 53.5354C58.6039 53.6865 59.1514 53.8891 59.4838 54.0134C59.7038 53.7868 60.2759 53.6073 60.2557 53.392C60.2363 53.23 60.2605 53.1373 60.1461 52.778L60.1192 52.7153C59.8737 52.1939 59.4646 51.9337 59.2342 51.7601C59.056 51.6323 58.901 51.5234 58.7505 51.4095C58.7184 51.3853 58.6869 51.3611 58.655 51.3363L58.4757 51.1966L58.2517 51.1634C56.791 51.0343 55.6858 51.6518 54.8002 52.4541C54.7837 52.4695 54.7669 52.4853 54.75 52.5014C52.6832 54.5116 51.9603 57.4358 52.1624 60.0994C52.1641 60.1231 52.1658 60.1468 52.1675 60.1705C52.3639 61.936 51.7293 63.8669 53.0385 66.2007C53.0921 66.2746 53.1495 66.3512 53.2095 66.4252C53.3621 66.613 53.6184 66.7974 53.8639 66.8798C54.1098 66.9658 54.3159 66.9783 54.4786 66.9744C54.5554 66.972 54.6245 66.9667 54.689 66.9602C55.1741 66.9088 55.6853 66.8824 56.2838 66.7625C56.8323 66.6557 57.7835 66.3432 58.1903 65.4278C58.2115 65.3815 58.2307 65.3347 58.2479 65.2878C58.5615 64.1748 58.2086 63.6534 58.1732 63.18C58.0929 62.7157 58.0922 62.3438 58.1943 61.966C58.204 61.9303 58.214 61.8948 58.2242 61.8595C58.6615 59.9614 60.242 58.7915 60.902 56.0056C60.9076 55.9502 60.9121 55.8949 60.9156 55.8394C60.9545 55.2345 60.888 54.6185 60.6891 54.0593C60.6818 54.0387 60.6746 54.0182 60.6672 53.9976C60.6196 53.8641 60.573 53.73 60.5275 53.5955C60.4332 53.3169 60.3431 53.0364 60.2616 52.7604C60.2211 52.6229 60.1826 52.4858 60.1503 52.3574C60.1344 52.2938 60.1199 52.2314 60.1104 52.1829C60.1057 52.1594 60.1023 52.1378 60.1021 52.1353C60.1019 52.1348 60.1029 52.1385 60.104 52.164C60.1043 52.1808 60.1054 52.193 60.1023 52.2404C60.095 52.2852 60.1061 52.348 60.0215 52.5459Z" fill="black"/>
<path d="M44.6424 43.0234C44.9138 43.0234 45.1741 42.9156 45.3661 42.7237C45.558 42.5317 45.6658 42.2714 45.6658 42C45.6658 41.7286 45.558 41.4683 45.3661 41.2763C45.1741 41.0844 44.9138 40.9766 44.6424 40.9766C44.2408 40.9981 44.184 41.0534 44.0437 41.0891C43.9191 41.1295 43.8136 41.1691 43.7049 41.2119C43.495 41.295 43.304 41.3795 43.1132 41.4676C42.7294 41.6455 42.3702 41.8285 42.0084 42.0224C40.5085 42.8342 39.0812 43.7515 37.7428 44.8571C37.7393 44.86 37.7357 44.863 37.7321 44.866C36.6718 45.7681 36.3985 46.9683 36.1111 47.7007C36.1086 47.7075 36.1061 47.7142 36.1036 47.7208C35.2672 50.8994 37.1831 52.9408 38.6997 54.6686C38.7005 54.6695 38.7013 54.6703 38.7022 54.6712C39.5113 55.5048 40.5332 56.2435 41.3081 56.7957C41.3106 56.7976 41.313 56.7994 41.3153 56.8012C41.8803 57.2621 42.7141 57.2967 43.1742 57.1797C43.6645 57.0714 44.0058 56.9013 44.3193 56.7423C44.9341 56.4191 45.4244 56.0912 45.8877 55.841C45.9106 55.8285 45.9333 55.8161 45.956 55.8038C47.396 54.932 49.1336 54.3749 50.4599 52.4208C50.472 52.4015 50.484 52.3821 50.4958 52.3627C52.0211 49.4252 50.9115 46.8038 50.0407 44.5744C50.0299 44.5496 50.0189 44.5248 50.0077 44.5001C49.3135 42.9922 48.0678 41.9695 46.7472 41.3174C46.7327 41.3103 46.7183 41.3033 46.7038 41.2964C45.3163 40.6548 43.9294 40.8878 42.8129 41.2582L42.5865 41.3586C42.5764 41.3647 42.5663 41.3708 42.5562 41.377C41.9006 41.7779 41.3005 42.243 40.7435 42.7471C40.5496 42.9227 40.3611 43.1032 40.1775 43.288L40.1195 43.3421C40.1151 43.3472 40.1107 43.3523 40.1062 43.3575C39.666 43.8808 39.7134 44.5822 39.6084 45.1574C39.5998 45.2093 39.6145 45.2742 39.639 45.331C39.664 45.3882 39.6968 45.4326 39.7404 45.4613C39.784 45.49 39.8378 45.5025 39.9003 45.5029C39.9621 45.5029 40.0275 45.4907 40.0717 45.4623C40.5557 45.1521 41.2003 44.9667 41.5012 44.7246C41.5044 44.722 41.5075 44.7194 41.5107 44.7169L41.4527 44.771C41.642 44.6351 41.8332 44.5028 42.0256 44.3739C42.5786 44.0037 43.1421 43.6609 43.7068 43.3491C43.7155 43.3443 43.7242 43.3395 43.7329 43.3348L43.5064 43.4351C44.3384 43.1873 45.1668 43.1663 45.6733 43.4319C45.6789 43.4347 45.6845 43.4375 45.69 43.4404C46.6381 43.9199 47.4423 44.6573 47.8054 45.4888C47.8114 45.5024 47.8173 45.516 47.8231 45.5297C48.6468 47.448 49.166 49.8225 48.3841 51.0744C48.3788 51.0831 48.3733 51.0918 48.3679 51.1005C47.8166 52.0441 46.2092 52.809 44.7664 53.6205C44.744 53.6327 44.7215 53.6449 44.6989 53.6573C44.1159 53.9759 43.6127 54.31 43.1724 54.5403C42.9578 54.6544 42.7523 54.7366 42.6602 54.7545C42.5438 54.7681 42.7274 54.7511 42.8173 54.8345C42.8129 54.8312 42.8086 54.8279 42.8042 54.8246C41.837 54.14 41.1039 53.6399 40.3994 52.9572C40.3987 52.9565 40.398 52.9559 40.3973 52.9552C39.0534 51.6572 37.7934 49.6549 38.2064 48.4613C38.2095 48.4523 38.2125 48.4433 38.2154 48.4343C38.5134 47.4593 38.6566 46.7397 39.0426 46.4384C39.0457 46.4358 39.0489 46.4331 39.0521 46.4305C40.2436 45.4445 41.5918 44.574 42.9762 43.826C43.3088 43.6477 43.6384 43.4801 43.9725 43.3254C44.1375 43.2491 44.3005 43.1775 44.4566 43.1157C44.5364 43.0843 44.6102 43.0572 44.6724 43.037C44.71 43.0172 44.8563 43.0076 44.6424 43.0234Z" fill="black"/>
<path d="M56.4376 18.9646C56.6817 19.0703 56.9578 19.0747 57.2052 18.9768C57.4525 18.879 57.6508 18.6869 57.7565 18.4428C57.8622 18.1987 57.8666 17.9226 57.7688 17.6752C57.6709 17.4279 57.4788 17.2296 57.2347 17.1239C56.8445 16.9714 56.6491 16.9995 56.4567 16.9994C56.2706 17.008 56.1167 17.032 55.9706 17.06C55.6802 17.1171 55.4237 17.1943 55.1791 17.2775C54.6894 17.446 54.241 17.6455 53.8044 17.8589C53.1437 18.1834 52.5166 18.5424 51.9066 18.9193C51.8996 18.9236 51.8927 18.928 51.8857 18.9323C48.7929 20.5654 47.2172 24.4694 46.8614 27.4838C46.855 27.5196 46.8491 27.5553 46.8436 27.591C46.619 28.9388 47.1131 30.2077 47.4798 31.0673C47.4944 31.1017 47.5094 31.1358 47.5247 31.1697C49.4424 34.6194 52.734 35.3176 55.4969 36.1979C55.6061 36.228 55.7175 36.2514 55.8236 36.2679C59.0672 36.2568 60.2902 34.6988 62.1073 33.9416C62.2069 33.8915 62.305 33.8389 62.4019 33.7836C64.0054 32.8786 64.9136 31.3447 65.5811 30.0598C65.6326 29.9602 65.6805 29.8612 65.7264 29.7597C66.7794 27.4272 66.1909 24.941 65.4509 23.0478C65.3983 22.9094 65.3397 22.7776 65.2791 22.6542C64.4465 21.0708 63.2978 20.1293 62.5079 19.1943L62.3372 19.0234C62.2359 18.9411 62.1331 18.8618 62.0285 18.7852C60.5962 17.7446 58.9114 17.2574 57.2319 17.1881C56.944 17.1775 56.6546 17.1804 56.3637 17.1989L56.3347 17.1999C56.2063 17.2117 56.0777 17.2263 55.9492 17.2438C55.324 17.3284 54.8039 18.1089 54.4536 18.6422C54.4521 18.6445 54.4513 18.6481 54.451 18.6514C54.4507 18.6547 54.451 18.6576 54.4521 18.66C54.4532 18.6625 54.4551 18.6646 54.4578 18.6666C54.4604 18.6686 54.4636 18.6704 54.4663 18.6708C55.1165 18.7667 55.6823 19.3429 56.1401 19.3249C56.2376 19.3217 56.3359 19.3207 56.4341 19.3219L56.4052 19.3229C56.6188 19.3316 56.8357 19.3521 57.0521 19.3828C58.3261 19.5663 59.5598 20.0785 60.5155 20.812C60.586 20.8661 60.6549 20.9216 60.7223 20.9786L60.5515 20.8077C61.5393 21.9749 62.5216 22.8928 62.9619 23.7867C62.9917 23.8482 63.0171 23.9075 63.0371 23.961C63.7015 25.6654 63.9671 27.3734 63.3532 28.6844C63.3263 28.7433 63.2982 28.8008 63.268 28.8588C62.6518 30.0485 61.9914 31.0229 61.1039 31.5121C61.0478 31.5441 60.9905 31.5748 60.9318 31.6044C59.1684 32.4956 57.0759 33.7974 56.2252 33.6876C56.2102 33.6853 56.198 33.6826 56.1888 33.6802C53.6117 32.9781 50.7205 31.8777 49.8532 30.1045C49.8456 30.0882 49.8382 30.0718 49.831 30.0555C49.4256 29.1529 49.1465 28.5256 49.2178 27.9168C49.2196 27.8998 49.2215 27.8827 49.2237 27.8654C49.5357 24.7442 50.3699 22.12 52.9443 20.6361C52.9502 20.6324 52.956 20.6288 52.9619 20.6251C53.5292 20.2744 54.1064 19.9452 54.6876 19.6598C55.0699 19.4725 55.4563 19.303 55.8283 19.1754C56.0121 19.1125 56.1968 19.0593 56.3531 19.029C56.43 19.0139 56.5015 19.005 56.5439 19.0034C56.5788 18.995 56.6173 19.0298 56.4376 18.9646Z" fill="black"/>
<path d="M15.9463 63.743C16.1344 63.5564 16.2406 63.3027 16.2416 63.0377C16.2426 62.7728 16.1383 62.5183 15.9517 62.3302C15.765 62.1422 15.5113 62.036 15.2463 62.035C14.9814 62.034 14.7269 62.1383 14.5388 62.3249C14.0666 62.8659 14.0996 63.1775 14.0352 63.4767C13.9972 63.7686 13.9964 64.0254 14.0062 64.2744C14.0283 64.7682 14.1003 65.2266 14.1897 65.6688C14.4451 66.8988 14.8431 68.0353 15.2932 69.1483C15.3012 69.168 15.3093 69.1876 15.3175 69.2072C16.0495 71.2354 18.1911 72.7581 20.1293 73.1175C20.1817 73.1293 20.234 73.1399 20.2862 73.1492C22.7189 73.39 24.193 72.3641 25.7316 71.72C25.788 71.6937 25.8437 71.6669 25.8986 71.6398C27.9001 70.7677 29.0804 68.6204 29.8022 67.1132C29.8446 67.0287 29.8839 66.9426 29.9197 66.8561C30.8459 63.7463 29.501 61.7385 28.8305 59.6637C28.7947 59.5723 28.7574 59.4821 28.7179 59.3918C27.9811 57.6423 26.5015 56.4483 25.2336 55.5505C25.1293 55.4765 25.0244 55.4091 24.9142 55.3453C22.2248 54.0003 19.931 55.2058 18.13 55.8574C17.9397 55.932 17.7586 56.0214 17.5884 56.1219C15.7294 57.3386 15.2577 59.0753 14.6863 60.4317L14.6149 60.6845C14.5938 60.8198 14.5678 60.9608 14.5389 61.1045C14.3927 61.8342 14.2697 62.6262 14.1976 63.4905C14.1766 63.7973 14.1476 64.0753 14.1784 64.5145L14.1912 64.6621C14.2352 64.8853 14.3667 65.0876 14.4795 65.1979C14.7711 65.4666 14.931 65.4566 15.0782 65.4788C15.2234 65.4895 15.3499 65.4729 15.483 65.4614C15.7442 65.4347 16.0367 65.432 16.3034 65.5454C16.3057 65.5464 16.3089 65.5464 16.3119 65.546C16.3149 65.5456 16.3173 65.5447 16.3192 65.5431C16.3211 65.5416 16.3225 65.5394 16.3235 65.5365C16.3245 65.5337 16.3251 65.5306 16.3246 65.5281C16.2706 65.2462 16.1682 64.9156 15.996 64.6251C15.9122 64.4802 15.8149 64.3466 15.7352 64.2386C15.6608 64.1403 15.586 64.0174 15.7036 64.0997C15.7486 64.1352 15.8289 64.2463 15.8559 64.3692L15.8687 64.5168C15.9097 64.4059 16.0003 64.1424 16.0948 63.9116C16.3778 63.206 16.7097 62.4515 16.8991 61.607C16.9367 61.4382 16.9724 61.2657 17.0042 61.0857L16.9328 61.3386C17.4735 59.9726 18.1031 58.67 18.8428 58.2584C18.906 58.2218 18.968 58.1922 19.0302 58.1684C20.7988 57.4347 22.6969 56.9164 23.6553 57.5142C23.6979 57.5391 23.7382 57.5652 23.7784 57.594C24.9781 58.4493 25.9501 59.2988 26.4093 60.4009C26.4355 60.4608 26.4606 60.5213 26.485 60.5834C27.2293 62.4931 28.0878 64.7702 27.6224 65.9102C27.6096 65.9417 27.5958 65.9723 27.5812 66.0019C26.7828 67.6352 26.124 68.8221 24.8022 69.4323C24.7636 69.4516 24.7242 69.4708 24.6839 69.4899C23.2398 70.1827 21.6231 70.9108 20.6917 70.7753C20.6743 70.7727 20.6576 70.7699 20.6415 70.7669C19.0569 70.4726 17.7395 69.8593 17.1609 68.4366C17.1552 68.4228 17.1495 68.409 17.1438 68.395C16.7242 67.3604 16.3618 66.3075 16.1475 65.2698C16.0722 64.9004 16.0169 64.5269 16.0025 64.1898C15.9952 64.0223 15.9994 63.8615 16.0156 63.741C16.0113 63.6322 16.1309 63.5086 15.9463 63.743Z" fill="black"/>
<path d="M25.2481 22.3343C25.493 22.4233 25.7632 22.4114 25.9993 22.3012C26.2354 22.191 26.418 21.9915 26.507 21.7466C26.596 21.5017 26.5841 21.2315 26.4739 20.9954C26.3637 20.7593 26.1642 20.5767 25.9193 20.4877C25.2207 20.2889 24.9431 20.4581 24.6428 20.5283C24.3576 20.6203 24.1163 20.732 23.8894 20.8483C23.4365 21.0832 23.0391 21.3446 22.6547 21.6224C21.7389 22.2897 20.926 23.0426 20.1724 23.8452C20.1643 23.8539 20.1563 23.8625 20.1482 23.8711C17.823 26.585 17.6574 29.9874 18.0808 33.1043C18.0831 33.1178 18.0854 33.1313 18.0877 33.1448C18.7413 35.337 20.1962 35.7232 21.1188 36.471C21.1297 36.4785 21.1406 36.4859 21.1515 36.4933C24.0954 38.0101 26.3611 36.9349 28.5482 36.1974C28.5781 36.1852 28.6077 36.1729 28.6371 36.1606C30.2593 35.574 31.7366 33.9686 32.4431 32.756C32.46 32.7317 32.4764 32.7082 32.4923 32.6857C33.7275 30.8757 34.5254 28.974 35.0694 26.9333C35.0815 26.8865 35.0935 26.8395 35.1053 26.7924C35.3956 25.7745 35.0286 24.5852 34.4865 23.8848C33.9485 23.1514 33.3207 22.664 32.7014 22.2371C31.4683 21.3998 30.1356 20.8267 29.03 20.2543C28.9781 20.2266 28.926 20.2007 28.8737 20.1765C27.8844 19.7468 27.0875 19.8355 26.4524 19.8218L25.9735 19.9229C25.9484 19.9342 25.9233 19.9456 25.8982 19.957C24.6259 20.5406 23.4757 21.2968 22.3721 22.1644C22.0168 22.4571 21.723 22.6643 21.291 23.1533L21.2527 23.1997C21.2503 23.2033 21.248 23.2069 21.2456 23.2105C20.8713 23.7944 21.23 24.4098 21.305 24.9312C21.7236 24.6116 22.3695 24.3446 22.547 24.1965C22.5486 24.1949 22.5502 24.1932 22.5519 24.1915L22.5136 24.238C22.661 24.1313 23.0675 23.8839 23.3973 23.7125C24.5168 23.1241 25.7117 22.6151 26.8604 22.1069C26.8831 22.097 26.9058 22.087 26.9285 22.0771L26.4496 22.1782C27.1083 22.1746 27.6643 22.2025 27.8773 22.3194C27.8895 22.3252 27.901 22.3311 27.9119 22.3371C29.1932 23.0043 30.3534 23.5198 31.3506 24.2098C32.3669 24.8886 32.966 25.7073 32.7614 26.1978C32.7509 26.2386 32.7403 26.2793 32.7295 26.3198C32.2606 28.0696 31.4842 29.8366 30.4967 31.2647C30.4745 31.2957 30.4528 31.3266 30.4314 31.3573C29.5814 32.6953 28.8988 33.3866 27.6879 33.8922C27.6638 33.9023 27.6394 33.9124 27.6147 33.9225C25.8772 34.6446 23.4742 35.1118 22.5122 34.4801C22.5004 34.4721 22.4886 34.4642 22.4767 34.4563C21.4476 33.8061 20.356 33.0158 20.3561 32.7189C20.3538 32.708 20.3515 32.697 20.3493 32.6861C19.8535 30.125 19.9687 27.0073 21.5848 25.2116C21.5921 25.2038 21.5994 25.1959 21.6067 25.1881C22.2881 24.4615 23.0272 23.7813 23.8082 23.213C24.1332 22.9775 24.4657 22.7623 24.7898 22.5947C24.9496 22.5121 25.1117 22.441 25.241 22.3998C25.3509 22.3451 25.5275 22.3968 25.2481 22.3343Z" fill="black"/>
</svg>
