<svg width="57" height="88" viewBox="0 0 57 88" fill="none" xmlns="http://www.w3.org/2000/svg">
<path d="M53.5527 81.29C37.6627 93.12 16.8727 85.84 13.4427 67.36C12.6027 63.16 12.4627 57.91 13.4427 53.71C18.8327 30.12 49.2127 27.11 54.8827 48.46C55.3727 50.21 55.5827 53.85 55.5827 56.86C55.5827 58.4 54.4627 59.45 52.8527 59.45C50.3327 59.45 46.3427 59.45 43.8227 59.45C42.2127 59.45 41.1627 58.47 41.1627 56.86C41.1627 45.59 29.0527 45.66 27.7927 56.86C26.3927 70.09 33.5327 75.76 45.7127 68.34C47.1127 67.5 48.5827 67.71 49.2827 68.97L54.1127 77.51C54.8827 78.91 54.7427 80.31 53.5527 81.29Z" fill="#FFB2B2"/>
<path d="M53.5527 81.29L53.8513 81.6911L53.8611 81.6838L53.8706 81.676L53.5527 81.29ZM13.4427 67.36L13.9344 67.2688L13.933 67.2619L13.4427 67.36ZM13.4427 53.71L13.9296 53.8236L13.9301 53.8214L13.4427 53.71ZM54.8827 48.46L54.3994 48.5884L54.4012 48.5948L54.8827 48.46ZM27.7927 56.86L27.2958 56.8041L27.2955 56.8074L27.7927 56.86ZM45.7127 68.34L45.4555 67.9112L45.4526 67.913L45.7127 68.34ZM49.2827 68.97L48.8456 69.2128L48.8475 69.2161L49.2827 68.97ZM54.1127 77.51L54.5508 77.269L54.5479 77.2639L54.1127 77.51ZM53.5527 81.29L53.2541 80.8889C37.6216 92.5273 17.288 85.3377 13.9343 67.2688L13.4427 67.36L12.9511 67.4512C16.4574 86.3423 37.7038 93.7127 53.8513 81.6911L53.5527 81.29ZM13.4427 67.36L13.933 67.2619C13.1037 63.1155 12.9693 57.9394 13.9296 53.8236L13.4427 53.71L12.9558 53.5964C11.9561 57.8806 12.1017 63.2045 12.9524 67.4581L13.4427 67.36ZM13.4427 53.71L13.9301 53.8214C16.5767 42.2382 25.3427 35.7381 34.1148 34.7292C42.8777 33.7214 51.6361 38.1831 54.3995 48.5883L54.8827 48.46L55.366 48.3317C52.4593 37.3869 43.1927 32.6786 34.0006 33.7358C24.8177 34.7919 15.6987 41.5918 12.9553 53.5986L13.4427 53.71ZM54.8827 48.46L54.4012 48.5948C54.8703 50.2702 55.0827 53.8454 55.0827 56.86H55.5827H56.0827C56.0827 53.8546 55.8751 50.1498 55.3642 48.3252L54.8827 48.46ZM55.5827 56.86H55.0827C55.0827 57.5035 54.8516 58.0159 54.4779 58.3692C54.102 58.7246 53.5482 58.95 52.8527 58.95V59.45V59.95C53.7673 59.95 54.5784 59.6504 55.165 59.0958C55.7538 58.5391 56.0827 57.7565 56.0827 56.86H55.5827ZM52.8527 59.45V58.95C52.8478 58.95 52.8429 58.95 52.8379 58.95C52.833 58.95 52.8281 58.95 52.8231 58.95C52.8182 58.95 52.8132 58.95 52.8083 58.95C52.8033 58.95 52.7983 58.95 52.7934 58.95C52.7884 58.95 52.7834 58.95 52.7785 58.95C52.7735 58.95 52.7685 58.95 52.7635 58.95C52.7585 58.95 52.7535 58.95 52.7485 58.95C52.7435 58.95 52.7385 58.95 52.7335 58.95C52.7285 58.95 52.7235 58.95 52.7185 58.95C52.7134 58.95 52.7084 58.95 52.7034 58.95C52.6984 58.95 52.6933 58.95 52.6883 58.95C52.6832 58.95 52.6782 58.95 52.6731 58.95C52.6681 58.95 52.663 58.95 52.658 58.95C52.6529 58.95 52.6478 58.95 52.6427 58.95C52.6377 58.95 52.6326 58.95 52.6275 58.95C52.6224 58.95 52.6173 58.95 52.6122 58.95C52.6071 58.95 52.602 58.95 52.5969 58.95C52.5918 58.95 52.5867 58.95 52.5816 58.95C52.5765 58.95 52.5714 58.95 52.5662 58.95C52.5611 58.95 52.556 58.95 52.5508 58.95C52.5457 58.95 52.5406 58.95 52.5354 58.95C52.5303 58.95 52.5251 58.95 52.52 58.95C52.5148 58.95 52.5096 58.95 52.5045 58.95C52.4993 58.95 52.4941 58.95 52.4889 58.95C52.4838 58.95 52.4786 58.95 52.4734 58.95C52.4682 58.95 52.463 58.95 52.4578 58.95C52.4526 58.95 52.4474 58.95 52.4422 58.95C52.437 58.95 52.4318 58.95 52.4266 58.95C52.4213 58.95 52.4161 58.95 52.4109 58.95C52.4057 58.95 52.4004 58.95 52.3952 58.95C52.3899 58.95 52.3847 58.95 52.3795 58.95C52.3742 58.95 52.369 58.95 52.3637 58.95C52.3584 58.95 52.3532 58.95 52.3479 58.95C52.3426 58.95 52.3374 58.95 52.3321 58.95C52.3268 58.95 52.3215 58.95 52.3162 58.95C52.311 58.95 52.3057 58.95 52.3004 58.95C52.2951 58.95 52.2898 58.95 52.2845 58.95C52.2791 58.95 52.2738 58.95 52.2685 58.95C52.2632 58.95 52.2579 58.95 52.2526 58.95C52.2472 58.95 52.2419 58.95 52.2366 58.95C52.2312 58.95 52.2259 58.95 52.2205 58.95C52.2152 58.95 52.2098 58.95 52.2045 58.95C52.1991 58.95 52.1938 58.95 52.1884 58.95C52.1831 58.95 52.1777 58.95 52.1723 58.95C52.1669 58.95 52.1616 58.95 52.1562 58.95C52.1508 58.95 52.1454 58.95 52.14 58.95C52.1346 58.95 52.1292 58.95 52.1238 58.95C52.1184 58.95 52.113 58.95 52.1076 58.95C52.1022 58.95 52.0968 58.95 52.0914 58.95C52.086 58.95 52.0805 58.95 52.0751 58.95C52.0697 58.95 52.0642 58.95 52.0588 58.95C52.0534 58.95 52.0479 58.95 52.0425 58.95C52.037 58.95 52.0316 58.95 52.0261 58.95C52.0207 58.95 52.0152 58.95 52.0098 58.95C52.0043 58.95 51.9988 58.95 51.9934 58.95C51.9879 58.95 51.9824 58.95 51.9769 58.95C51.9714 58.95 51.966 58.95 51.9605 58.95C51.955 58.95 51.9495 58.95 51.944 58.95C51.9385 58.95 51.933 58.95 51.9275 58.95C51.922 58.95 51.9165 58.95 51.9109 58.95C51.9054 58.95 51.8999 58.95 51.8944 58.95C51.8889 58.95 51.8833 58.95 51.8778 58.95C51.8723 58.95 51.8667 58.95 51.8612 58.95C51.8556 58.95 51.8501 58.95 51.8445 58.95C51.839 58.95 51.8334 58.95 51.8279 58.95C51.8223 58.95 51.8168 58.95 51.8112 58.95C51.8056 58.95 51.8001 58.95 51.7945 58.95C51.7889 58.95 51.7833 58.95 51.7777 58.95C51.7722 58.95 51.7666 58.95 51.761 58.95C51.7554 58.95 51.7498 58.95 51.7442 58.95C51.7386 58.95 51.733 58.95 51.7274 58.95C51.7218 58.95 51.7162 58.95 51.7105 58.95C51.7049 58.95 51.6993 58.95 51.6937 58.95C51.6881 58.95 51.6824 58.95 51.6768 58.95C51.6712 58.95 51.6655 58.95 51.6599 58.95C51.6543 58.95 51.6486 58.95 51.643 58.95C51.6373 58.95 51.6317 58.95 51.626 58.95C51.6204 58.95 51.6147 58.95 51.609 58.95C51.6034 58.95 51.5977 58.95 51.592 58.95C51.5864 58.95 51.5807 58.95 51.575 58.95C51.5693 58.95 51.5636 58.95 51.558 58.95C51.5523 58.95 51.5466 58.95 51.5409 58.95C51.5352 58.95 51.5295 58.95 51.5238 58.95C51.5181 58.95 51.5124 58.95 51.5067 58.95C51.501 58.95 51.4953 58.95 51.4895 58.95C51.4838 58.95 51.4781 58.95 51.4724 58.95C51.4666 58.95 51.4609 58.95 51.4552 58.95C51.4495 58.95 51.4437 58.95 51.438 58.95C51.4322 58.95 51.4265 58.95 51.4208 58.95C51.415 58.95 51.4093 58.95 51.4035 58.95C51.3977 58.95 51.392 58.95 51.3862 58.95C51.3805 58.95 51.3747 58.95 51.3689 58.95C51.3632 58.95 51.3574 58.95 51.3516 58.95C51.3458 58.95 51.3401 58.95 51.3343 58.95C51.3285 58.95 51.3227 58.95 51.3169 58.95C51.3111 58.95 51.3053 58.95 51.2995 58.95C51.2937 58.95 51.2879 58.95 51.2821 58.95C51.2763 58.95 51.2705 58.95 51.2647 58.95C51.2589 58.95 51.2531 58.95 51.2473 58.95C51.2415 58.95 51.2356 58.95 51.2298 58.95C51.224 58.95 51.2182 58.95 51.2123 58.95C51.2065 58.95 51.2007 58.95 51.1948 58.95C51.189 58.95 51.1832 58.95 51.1773 58.95C51.1715 58.95 51.1656 58.95 51.1598 58.95C51.1539 58.95 51.1481 58.95 51.1422 58.95C51.1363 58.95 51.1305 58.95 51.1246 58.95C51.1188 58.95 51.1129 58.95 51.107 58.95C51.1011 58.95 51.0953 58.95 51.0894 58.95C51.0835 58.95 51.0776 58.95 51.0717 58.95C51.0659 58.95 51.06 58.95 51.0541 58.95C51.0482 58.95 51.0423 58.95 51.0364 58.95C51.0305 58.95 51.0246 58.95 51.0187 58.95C51.0128 58.95 51.0069 58.95 51.001 58.95C50.9951 58.95 50.9892 58.95 50.9832 58.95C50.9773 58.95 50.9714 58.95 50.9655 58.95C50.9596 58.95 50.9536 58.95 50.9477 58.95C50.9418 58.95 50.9359 58.95 50.9299 58.95C50.924 58.95 50.918 58.95 50.9121 58.95C50.9062 58.95 50.9002 58.95 50.8943 58.95C50.8883 58.95 50.8824 58.95 50.8764 58.95C50.8705 58.95 50.8645 58.95 50.8586 58.95C50.8526 58.95 50.8466 58.95 50.8407 58.95C50.8347 58.95 50.8288 58.95 50.8228 58.95C50.8168 58.95 50.8108 58.95 50.8049 58.95C50.7989 58.95 50.7929 58.95 50.7869 58.95C50.7809 58.95 50.775 58.95 50.769 58.95C50.763 58.95 50.757 58.95 50.751 58.95C50.745 58.95 50.739 58.95 50.733 58.95C50.727 58.95 50.721 58.95 50.715 58.95C50.709 58.95 50.703 58.95 50.697 58.95C50.691 58.95 50.685 58.95 50.679 58.95C50.6729 58.95 50.6669 58.95 50.6609 58.95C50.6549 58.95 50.6489 58.95 50.6428 58.95C50.6368 58.95 50.6308 58.95 50.6247 58.95C50.6187 58.95 50.6127 58.95 50.6066 58.95C50.6006 58.95 50.5946 58.95 50.5885 58.95C50.5825 58.95 50.5764 58.95 50.5704 58.95C50.5643 58.95 50.5583 58.95 50.5522 58.95C50.5462 58.95 50.5401 58.95 50.5341 58.95C50.528 58.95 50.522 58.95 50.5159 58.95C50.5098 58.95 50.5038 58.95 50.4977 58.95C50.4916 58.95 50.4856 58.95 50.4795 58.95C50.4734 58.95 50.4673 58.95 50.4613 58.95C50.4552 58.95 50.4491 58.95 50.443 58.95C50.4369 58.95 50.4309 58.95 50.4248 58.95C50.4187 58.95 50.4126 58.95 50.4065 58.95C50.4004 58.95 50.3943 58.95 50.3882 58.95C50.3821 58.95 50.376 58.95 50.3699 58.95C50.3638 58.95 50.3577 58.95 50.3516 58.95C50.3455 58.95 50.3394 58.95 50.3333 58.95C50.3272 58.95 50.3211 58.95 50.3149 58.95C50.3088 58.95 50.3027 58.95 50.2966 58.95C50.2905 58.95 50.2843 58.95 50.2782 58.95C50.2721 58.95 50.266 58.95 50.2598 58.95C50.2537 58.95 50.2476 58.95 50.2414 58.95C50.2353 58.95 50.2292 58.95 50.223 58.95C50.2169 58.95 50.2107 58.95 50.2046 58.95C50.1985 58.95 50.1923 58.95 50.1862 58.95C50.18 58.95 50.1739 58.95 50.1677 58.95C50.1616 58.95 50.1554 58.95 50.1493 58.95C50.1431 58.95 50.1369 58.95 50.1308 58.95C50.1246 58.95 50.1185 58.95 50.1123 58.95C50.1061 58.95 50.1 58.95 50.0938 58.95C50.0876 58.95 50.0815 58.95 50.0753 58.95C50.0691 58.95 50.0629 58.95 50.0568 58.95C50.0506 58.95 50.0444 58.95 50.0382 58.95C50.0321 58.95 50.0259 58.95 50.0197 58.95C50.0135 58.95 50.0073 58.95 50.0011 58.95C49.9949 58.95 49.9888 58.95 49.9826 58.95C49.9764 58.95 49.9702 58.95 49.964 58.95C49.9578 58.95 49.9516 58.95 49.9454 58.95C49.9392 58.95 49.933 58.95 49.9268 58.95C49.9206 58.95 49.9144 58.95 49.9082 58.95C49.902 58.95 49.8958 58.95 49.8896 58.95C49.8833 58.95 49.8771 58.95 49.8709 58.95C49.8647 58.95 49.8585 58.95 49.8523 58.95C49.8461 58.95 49.8398 58.95 49.8336 58.95C49.8274 58.95 49.8212 58.95 49.8149 58.95C49.8087 58.95 49.8025 58.95 49.7963 58.95C49.79 58.95 49.7838 58.95 49.7776 58.95C49.7713 58.95 49.7651 58.95 49.7589 58.95C49.7526 58.95 49.7464 58.95 49.7402 58.95C49.7339 58.95 49.7277 58.95 49.7215 58.95C49.7152 58.95 49.709 58.95 49.7027 58.95C49.6965 58.95 49.6902 58.95 49.684 58.95C49.6777 58.95 49.6715 58.95 49.6652 58.95C49.659 58.95 49.6527 58.95 49.6465 58.95C49.6402 58.95 49.634 58.95 49.6277 58.95C49.6215 58.95 49.6152 58.95 49.609 58.95C49.6027 58.95 49.5964 58.95 49.5902 58.95C49.5839 58.95 49.5777 58.95 49.5714 58.95C49.5651 58.95 49.5589 58.95 49.5526 58.95C49.5463 58.95 49.5401 58.95 49.5338 58.95C49.5275 58.95 49.5212 58.95 49.515 58.95C49.5087 58.95 49.5024 58.95 49.4961 58.95C49.4899 58.95 49.4836 58.95 49.4773 58.95C49.471 58.95 49.4648 58.95 49.4585 58.95C49.4522 58.95 49.4459 58.95 49.4396 58.95C49.4333 58.95 49.4271 58.95 49.4208 58.95C49.4145 58.95 49.4082 58.95 49.4019 58.95C49.3956 58.95 49.3893 58.95 49.383 58.95C49.3767 58.95 49.3705 58.95 49.3642 58.95C49.3579 58.95 49.3516 58.95 49.3453 58.95C49.339 58.95 49.3327 58.95 49.3264 58.95C49.3201 58.95 49.3138 58.95 49.3075 58.95C49.3012 58.95 49.2949 58.95 49.2886 58.95C49.2823 58.95 49.276 58.95 49.2697 58.95C49.2634 58.95 49.2571 58.95 49.2508 58.95C49.2444 58.95 49.2381 58.95 49.2318 58.95C49.2255 58.95 49.2192 58.95 49.2129 58.95C49.2066 58.95 49.2003 58.95 49.194 58.95C49.1876 58.95 49.1813 58.95 49.175 58.95C49.1687 58.95 49.1624 58.95 49.1561 58.95C49.1498 58.95 49.1434 58.95 49.1371 58.95C49.1308 58.95 49.1245 58.95 49.1182 58.95C49.1118 58.95 49.1055 58.95 49.0992 58.95C49.0929 58.95 49.0865 58.95 49.0802 58.95C49.0739 58.95 49.0676 58.95 49.0612 58.95C49.0549 58.95 49.0486 58.95 49.0423 58.95C49.0359 58.95 49.0296 58.95 49.0233 58.95C49.017 58.95 49.0106 58.95 49.0043 58.95C48.998 58.95 48.9916 58.95 48.9853 58.95C48.979 58.95 48.9726 58.95 48.9663 58.95C48.96 58.95 48.9536 58.95 48.9473 58.95C48.941 58.95 48.9346 58.95 48.9283 58.95C48.922 58.95 48.9156 58.95 48.9093 58.95C48.9029 58.95 48.8966 58.95 48.8903 58.95C48.8839 58.95 48.8776 58.95 48.8712 58.95C48.8649 58.95 48.8586 58.95 48.8522 58.95C48.8459 58.95 48.8395 58.95 48.8332 58.95C48.8269 58.95 48.8205 58.95 48.8142 58.95C48.8078 58.95 48.8015 58.95 48.7951 58.95C48.7888 58.95 48.7824 58.95 48.7761 58.95C48.7698 58.95 48.7634 58.95 48.7571 58.95C48.7507 58.95 48.7444 58.95 48.738 58.95C48.7317 58.95 48.7253 58.95 48.719 58.95C48.7126 58.95 48.7063 58.95 48.6999 58.95C48.6936 58.95 48.6872 58.95 48.6809 58.95C48.6745 58.95 48.6682 58.95 48.6618 58.95C48.6555 58.95 48.6491 58.95 48.6428 58.95C48.6364 58.95 48.6301 58.95 48.6237 58.95C48.6174 58.95 48.611 58.95 48.6047 58.95C48.5983 58.95 48.5919 58.95 48.5856 58.95C48.5792 58.95 48.5729 58.95 48.5665 58.95C48.5602 58.95 48.5538 58.95 48.5475 58.95C48.5411 58.95 48.5348 58.95 48.5284 58.95C48.522 58.95 48.5157 58.95 48.5093 58.95C48.503 58.95 48.4966 58.95 48.4903 58.95C48.4839 58.95 48.4776 58.95 48.4712 58.95C48.4648 58.95 48.4585 58.95 48.4521 58.95C48.4458 58.95 48.4394 58.95 48.4331 58.95C48.4267 58.95 48.4203 58.95 48.414 58.95C48.4076 58.95 48.4013 58.95 48.3949 58.95C48.3886 58.95 48.3822 58.95 48.3758 58.95C48.3695 58.95 48.3631 58.95 48.3568 58.95C48.3504 58.95 48.3441 58.95 48.3377 58.95C48.3313 58.95 48.325 58.95 48.3186 58.95C48.3123 58.95 48.3059 58.95 48.2996 58.95C48.2932 58.95 48.2868 58.95 48.2805 58.95C48.2741 58.95 48.2678 58.95 48.2614 58.95C48.2551 58.95 48.2487 58.95 48.2423 58.95C48.236 58.95 48.2296 58.95 48.2233 58.95C48.2169 58.95 48.2106 58.95 48.2042 58.95C48.1978 58.95 48.1915 58.95 48.1851 58.95C48.1788 58.95 48.1724 58.95 48.1661 58.95C48.1597 58.95 48.1534 58.95 48.147 58.95C48.1406 58.95 48.1343 58.95 48.1279 58.95C48.1216 58.95 48.1152 58.95 48.1089 58.95C48.1025 58.95 48.0962 58.95 48.0898 58.95C48.0835 58.95 48.0771 58.95 48.0708 58.95C48.0644 58.95 48.058 58.95 48.0517 58.95C48.0453 58.95 48.039 58.95 48.0326 58.95C48.0263 58.95 48.0199 58.95 48.0136 58.95C48.0072 58.95 48.0009 58.95 47.9945 58.95C47.9882 58.95 47.9818 58.95 47.9755 58.95C47.9691 58.95 47.9628 58.95 47.9564 58.95C47.9501 58.95 47.9437 58.95 47.9374 58.95C47.931 58.95 47.9247 58.95 47.9183 58.95C47.912 58.95 47.9057 58.95 47.8993 58.95C47.893 58.95 47.8866 58.95 47.8803 58.95C47.8739 58.95 47.8676 58.95 47.8612 58.95C47.8549 58.95 47.8486 58.95 47.8422 58.95C47.8359 58.95 47.8295 58.95 47.8232 58.95C47.8168 58.95 47.8105 58.95 47.8042 58.95C47.7978 58.95 47.7915 58.95 47.7851 58.95C47.7788 58.95 47.7725 58.95 47.7661 58.95C47.7598 58.95 47.7535 58.95 47.7471 58.95C47.7408 58.95 47.7344 58.95 47.7281 58.95C47.7218 58.95 47.7154 58.95 47.7091 58.95C47.7028 58.95 47.6964 58.95 47.6901 58.95C47.6838 58.95 47.6774 58.95 47.6711 58.95C47.6648 58.95 47.6585 58.95 47.6521 58.95C47.6458 58.95 47.6395 58.95 47.6331 58.95C47.6268 58.95 47.6205 58.95 47.6142 58.95C47.6078 58.95 47.6015 58.95 47.5952 58.95C47.5889 58.95 47.5825 58.95 47.5762 58.95C47.5699 58.95 47.5636 58.95 47.5573 58.95C47.5509 58.95 47.5446 58.95 47.5383 58.95C47.532 58.95 47.5257 58.95 47.5193 58.95C47.513 58.95 47.5067 58.95 47.5004 58.95C47.4941 58.95 47.4878 58.95 47.4814 58.95C47.4751 58.95 47.4688 58.95 47.4625 58.95C47.4562 58.95 47.4499 58.95 47.4436 58.95C47.4373 58.95 47.431 58.95 47.4247 58.95C47.4184 58.95 47.412 58.95 47.4057 58.95C47.3994 58.95 47.3931 58.95 47.3868 58.95C47.3805 58.95 47.3742 58.95 47.3679 58.95C47.3616 58.95 47.3553 58.95 47.349 58.95C47.3427 58.95 47.3364 58.95 47.3301 58.95C47.3238 58.95 47.3175 58.95 47.3113 58.95C47.305 58.95 47.2987 58.95 47.2924 58.95C47.2861 58.95 47.2798 58.95 47.2735 58.95C47.2672 58.95 47.2609 58.95 47.2546 58.95C47.2484 58.95 47.2421 58.95 47.2358 58.95C47.2295 58.95 47.2232 58.95 47.2169 58.95C47.2107 58.95 47.2044 58.95 47.1981 58.95C47.1918 58.95 47.1855 58.95 47.1793 58.95C47.173 58.95 47.1667 58.95 47.1604 58.95C47.1542 58.95 47.1479 58.95 47.1416 58.95C47.1354 58.95 47.1291 58.95 47.1228 58.95C47.1166 58.95 47.1103 58.95 47.104 58.95C47.0978 58.95 47.0915 58.95 47.0852 58.95C47.079 58.95 47.0727 58.95 47.0665 58.95C47.0602 58.95 47.0539 58.95 47.0477 58.95C47.0414 58.95 47.0352 58.95 47.0289 58.95C47.0227 58.95 47.0164 58.95 47.0102 58.95C47.0039 58.95 46.9977 58.95 46.9914 58.95C46.9852 58.95 46.9789 58.95 46.9727 58.95C46.9664 58.95 46.9602 58.95 46.954 58.95C46.9477 58.95 46.9415 58.95 46.9352 58.95C46.929 58.95 46.9228 58.95 46.9165 58.95C46.9103 58.95 46.9041 58.95 46.8978 58.95C46.8916 58.95 46.8854 58.95 46.8791 58.95C46.8729 58.95 46.8667 58.95 46.8605 58.95C46.8542 58.95 46.848 58.95 46.8418 58.95C46.8356 58.95 46.8294 58.95 46.8231 58.95C46.8169 58.95 46.8107 58.95 46.8045 58.95C46.7983 58.95 46.7921 58.95 46.7859 58.95C46.7796 58.95 46.7734 58.95 46.7672 58.95C46.761 58.95 46.7548 58.95 46.7486 58.95C46.7424 58.95 46.7362 58.95 46.73 58.95C46.7238 58.95 46.7176 58.95 46.7114 58.95C46.7052 58.95 46.699 58.95 46.6928 58.95C46.6866 58.95 46.6805 58.95 46.6743 58.95C46.6681 58.95 46.6619 58.95 46.6557 58.95C46.6495 58.95 46.6433 58.95 46.6372 58.95C46.631 58.95 46.6248 58.95 46.6186 58.95C46.6125 58.95 46.6063 58.95 46.6001 58.95C46.5939 58.95 46.5878 58.95 46.5816 58.95C46.5754 58.95 46.5693 58.95 46.5631 58.95C46.5569 58.95 46.5508 58.95 46.5446 58.95C46.5385 58.95 46.5323 58.95 46.5261 58.95C46.52 58.95 46.5138 58.95 46.5077 58.95C46.5015 58.95 46.4954 58.95 46.4892 58.95C46.4831 58.95 46.4769 58.95 46.4708 58.95C46.4647 58.95 46.4585 58.95 46.4524 58.95C46.4462 58.95 46.4401 58.95 46.434 58.95C46.4278 58.95 46.4217 58.95 46.4156 58.95C46.4094 58.95 46.4033 58.95 46.3972 58.95C46.3911 58.95 46.3849 58.95 46.3788 58.95C46.3727 58.95 46.3666 58.95 46.3605 58.95C46.3544 58.95 46.3482 58.95 46.3421 58.95C46.336 58.95 46.3299 58.95 46.3238 58.95C46.3177 58.95 46.3116 58.95 46.3055 58.95C46.2994 58.95 46.2933 58.95 46.2872 58.95C46.2811 58.95 46.275 58.95 46.2689 58.95C46.2628 58.95 46.2567 58.95 46.2506 58.95C46.2446 58.95 46.2385 58.95 46.2324 58.95C46.2263 58.95 46.2202 58.95 46.2141 58.95C46.2081 58.95 46.202 58.95 46.1959 58.95C46.1898 58.95 46.1838 58.95 46.1777 58.95C46.1716 58.95 46.1656 58.95 46.1595 58.95C46.1534 58.95 46.1474 58.95 46.1413 58.95C46.1353 58.95 46.1292 58.95 46.1232 58.95C46.1171 58.95 46.1111 58.95 46.105 58.95C46.099 58.95 46.0929 58.95 46.0869 58.95C46.0808 58.95 46.0748 58.95 46.0688 58.95C46.0627 58.95 46.0567 58.95 46.0507 58.95C46.0446 58.95 46.0386 58.95 46.0326 58.95C46.0266 58.95 46.0205 58.95 46.0145 58.95C46.0085 58.95 46.0025 58.95 45.9965 58.95C45.9904 58.95 45.9844 58.95 45.9784 58.95C45.9724 58.95 45.9664 58.95 45.9604 58.95C45.9544 58.95 45.9484 58.95 45.9424 58.95C45.9364 58.95 45.9304 58.95 45.9244 58.95C45.9184 58.95 45.9124 58.95 45.9064 58.95C45.9004 58.95 45.8945 58.95 45.8885 58.95C45.8825 58.95 45.8765 58.95 45.8705 58.95C45.8646 58.95 45.8586 58.95 45.8526 58.95C45.8467 58.95 45.8407 58.95 45.8347 58.95C45.8288 58.95 45.8228 58.95 45.8168 58.95C45.8109 58.95 45.8049 58.95 45.799 58.95C45.793 58.95 45.7871 58.95 45.7811 58.95C45.7752 58.95 45.7692 58.95 45.7633 58.95C45.7574 58.95 45.7514 58.95 45.7455 58.95C45.7396 58.95 45.7336 58.95 45.7277 58.95C45.7218 58.95 45.7158 58.95 45.7099 58.95C45.704 58.95 45.6981 58.95 45.6922 58.95C45.6862 58.95 45.6803 58.95 45.6744 58.95C45.6685 58.95 45.6626 58.95 45.6567 58.95C45.6508 58.95 45.6449 58.95 45.639 58.95C45.6331 58.95 45.6272 58.95 45.6213 58.95C45.6154 58.95 45.6095 58.95 45.6037 58.95C45.5978 58.95 45.5919 58.95 45.586 58.95C45.5801 58.95 45.5743 58.95 45.5684 58.95C45.5625 58.95 45.5567 58.95 45.5508 58.95C45.5449 58.95 45.5391 58.95 45.5332 58.95C45.5274 58.95 45.5215 58.95 45.5156 58.95C45.5098 58.95 45.5039 58.95 45.4981 58.95C45.4923 58.95 45.4864 58.95 45.4806 58.95C45.4747 58.95 45.4689 58.95 45.4631 58.95C45.4572 58.95 45.4514 58.95 45.4456 58.95C45.4398 58.95 45.4339 58.95 45.4281 58.95C45.4223 58.95 45.4165 58.95 45.4107 58.95C45.4049 58.95 45.3991 58.95 45.3933 58.95C45.3875 58.95 45.3817 58.95 45.3759 58.95C45.3701 58.95 45.3643 58.95 45.3585 58.95C45.3527 58.95 45.3469 58.95 45.3411 58.95C45.3353 58.95 45.3296 58.95 45.3238 58.95C45.318 58.95 45.3122 58.95 45.3065 58.95C45.3007 58.95 45.2949 58.95 45.2892 58.95C45.2834 58.95 45.2777 58.95 45.2719 58.95C45.2662 58.95 45.2604 58.95 45.2547 58.95C45.2489 58.95 45.2432 58.95 45.2374 58.95C45.2317 58.95 45.226 58.95 45.2202 58.95C45.2145 58.95 45.2088 58.95 45.203 58.95C45.1973 58.95 45.1916 58.95 45.1859 58.95C45.1802 58.95 45.1744 58.95 45.1687 58.95C45.163 58.95 45.1573 58.95 45.1516 58.95C45.1459 58.95 45.1402 58.95 45.1345 58.95C45.1288 58.95 45.1231 58.95 45.1175 58.95C45.1118 58.95 45.1061 58.95 45.1004 58.95C45.0947 58.95 45.0891 58.95 45.0834 58.95C45.0777 58.95 45.072 58.95 45.0664 58.95C45.0607 58.95 45.0551 58.95 45.0494 58.95C45.0437 58.95 45.0381 58.95 45.0324 58.95C45.0268 58.95 45.0212 58.95 45.0155 58.95C45.0099 58.95 45.0042 58.95 44.9986 58.95C44.993 58.95 44.9873 58.95 44.9817 58.95C44.9761 58.95 44.9705 58.95 44.9649 58.95C44.9592 58.95 44.9536 58.95 44.948 58.95C44.9424 58.95 44.9368 58.95 44.9312 58.95C44.9256 58.95 44.92 58.95 44.9144 58.95C44.9088 58.95 44.9033 58.95 44.8977 58.95C44.8921 58.95 44.8865 58.95 44.8809 58.95C44.8754 58.95 44.8698 58.95 44.8642 58.95C44.8587 58.95 44.8531 58.95 44.8475 58.95C44.842 58.95 44.8364 58.95 44.8309 58.95C44.8253 58.95 44.8198 58.95 44.8142 58.95C44.8087 58.95 44.8032 58.95 44.7976 58.95C44.7921 58.95 44.7866 58.95 44.781 58.95C44.7755 58.95 44.77 58.95 44.7645 58.95C44.759 58.95 44.7534 58.95 44.7479 58.95C44.7424 58.95 44.7369 58.95 44.7314 58.95C44.7259 58.95 44.7204 58.95 44.7149 58.95C44.7095 58.95 44.704 58.95 44.6985 58.95C44.693 58.95 44.6875 58.95 44.6821 58.95C44.6766 58.95 44.6711 58.95 44.6657 58.95C44.6602 58.95 44.6547 58.95 44.6493 58.95C44.6438 58.95 44.6384 58.95 44.6329 58.95C44.6275 58.95 44.622 58.95 44.6166 58.95C44.6112 58.95 44.6057 58.95 44.6003 58.95C44.5949 58.95 44.5895 58.95 44.584 58.95C44.5786 58.95 44.5732 58.95 44.5678 58.95C44.5624 58.95 44.557 58.95 44.5516 58.95C44.5462 58.95 44.5408 58.95 44.5354 58.95C44.53 58.95 44.5246 58.95 44.5192 58.95C44.5138 58.95 44.5085 58.95 44.5031 58.95C44.4977 58.95 44.4924 58.95 44.487 58.95C44.4816 58.95 44.4763 58.95 44.4709 58.95C44.4656 58.95 44.4602 58.95 44.4549 58.95C44.4495 58.95 44.4442 58.95 44.4388 58.95C44.4335 58.95 44.4282 58.95 44.4229 58.95C44.4175 58.95 44.4122 58.95 44.4069 58.95C44.4016 58.95 44.3963 58.95 44.391 58.95C44.3856 58.95 44.3803 58.95 44.375 58.95C44.3697 58.95 44.3645 58.95 44.3592 58.95C44.3539 58.95 44.3486 58.95 44.3433 58.95C44.338 58.95 44.3328 58.95 44.3275 58.95C44.3222 58.95 44.317 58.95 44.3117 58.95C44.3065 58.95 44.3012 58.95 44.296 58.95C44.2907 58.95 44.2855 58.95 44.2802 58.95C44.275 58.95 44.2697 58.95 44.2645 58.95C44.2593 58.95 44.2541 58.95 44.2488 58.95C44.2436 58.95 44.2384 58.95 44.2332 58.95C44.228 58.95 44.2228 58.95 44.2176 58.95C44.2124 58.95 44.2072 58.95 44.202 58.95C44.1968 58.95 44.1916 58.95 44.1865 58.95C44.1813 58.95 44.1761 58.95 44.1709 58.95C44.1658 58.95 44.1606 58.95 44.1555 58.95C44.1503 58.95 44.1451 58.95 44.14 58.95C44.1349 58.95 44.1297 58.95 44.1246 58.95C44.1194 58.95 44.1143 58.95 44.1092 58.95C44.104 58.95 44.0989 58.95 44.0938 58.95C44.0887 58.95 44.0836 58.95 44.0785 58.95C44.0734 58.95 44.0683 58.95 44.0632 58.95C44.0581 58.95 44.053 58.95 44.0479 58.95C44.0428 58.95 44.0377 58.95 44.0327 58.95C44.0276 58.95 44.0225 58.95 44.0175 58.95C44.0124 58.95 44.0073 58.95 44.0023 58.95C43.9972 58.95 43.9922 58.95 43.9871 58.95C43.9821 58.95 43.9771 58.95 43.972 58.95C43.967 58.95 43.962 58.95 43.9569 58.95C43.9519 58.95 43.9469 58.95 43.9419 58.95C43.9369 58.95 43.9319 58.95 43.9269 58.95C43.9219 58.95 43.9169 58.95 43.9119 58.95C43.9069 58.95 43.9019 58.95 43.8969 58.95C43.892 58.95 43.887 58.95 43.882 58.95C43.8771 58.95 43.8721 58.95 43.8672 58.95C43.8622 58.95 43.8572 58.95 43.8523 58.95C43.8474 58.95 43.8424 58.95 43.8375 58.95C43.8326 58.95 43.8276 58.95 43.8227 58.95V59.45V59.95C43.8276 59.95 43.8326 59.95 43.8375 59.95C43.8424 59.95 43.8474 59.95 43.8523 59.95C43.8572 59.95 43.8622 59.95 43.8672 59.95C43.8721 59.95 43.8771 59.95 43.882 59.95C43.887 59.95 43.892 59.95 43.8969 59.95C43.9019 59.95 43.9069 59.95 43.9119 59.95C43.9169 59.95 43.9219 59.95 43.9269 59.95C43.9319 59.95 43.9369 59.95 43.9419 59.95C43.9469 59.95 43.9519 59.95 43.9569 59.95C43.962 59.95 43.967 59.95 43.972 59.95C43.9771 59.95 43.9821 59.95 43.9871 59.95C43.9922 59.95 43.9972 59.95 44.0023 59.95C44.0073 59.95 44.0124 59.95 44.0175 59.95C44.0225 59.95 44.0276 59.95 44.0327 59.95C44.0377 59.95 44.0428 59.95 44.0479 59.95C44.053 59.95 44.0581 59.95 44.0632 59.95C44.0683 59.95 44.0734 59.95 44.0785 59.95C44.0836 59.95 44.0887 59.95 44.0938 59.95C44.0989 59.95 44.104 59.95 44.1092 59.95C44.1143 59.95 44.1194 59.95 44.1246 59.95C44.1297 59.95 44.1349 59.95 44.14 59.95C44.1451 59.95 44.1503 59.95 44.1555 59.95C44.1606 59.95 44.1658 59.95 44.1709 59.95C44.1761 59.95 44.1813 59.95 44.1865 59.95C44.1916 59.95 44.1968 59.95 44.202 59.95C44.2072 59.95 44.2124 59.95 44.2176 59.95C44.2228 59.95 44.228 59.95 44.2332 59.95C44.2384 59.95 44.2436 59.95 44.2488 59.95C44.2541 59.95 44.2593 59.95 44.2645 59.95C44.2697 59.95 44.275 59.95 44.2802 59.95C44.2855 59.95 44.2907 59.95 44.296 59.95C44.3012 59.95 44.3065 59.95 44.3117 59.95C44.317 59.95 44.3222 59.95 44.3275 59.95C44.3328 59.95 44.338 59.95 44.3433 59.95C44.3486 59.95 44.3539 59.95 44.3592 59.95C44.3645 59.95 44.3697 59.95 44.375 59.95C44.3803 59.95 44.3856 59.95 44.391 59.95C44.3963 59.95 44.4016 59.95 44.4069 59.95C44.4122 59.95 44.4175 59.95 44.4229 59.95C44.4282 59.95 44.4335 59.95 44.4388 59.95C44.4442 59.95 44.4495 59.95 44.4549 59.95C44.4602 59.95 44.4656 59.95 44.4709 59.95C44.4763 59.95 44.4816 59.95 44.487 59.95C44.4924 59.95 44.4977 59.95 44.5031 59.95C44.5085 59.95 44.5138 59.95 44.5192 59.95C44.5246 59.95 44.53 59.95 44.5354 59.95C44.5408 59.95 44.5462 59.95 44.5516 59.95C44.557 59.95 44.5624 59.95 44.5678 59.95C44.5732 59.95 44.5786 59.95 44.584 59.95C44.5895 59.95 44.5949 59.95 44.6003 59.95C44.6057 59.95 44.6112 59.95 44.6166 59.95C44.622 59.95 44.6275 59.95 44.6329 59.95C44.6384 59.95 44.6438 59.95 44.6493 59.95C44.6547 59.95 44.6602 59.95 44.6657 59.95C44.6711 59.95 44.6766 59.95 44.6821 59.95C44.6875 59.95 44.693 59.95 44.6985 59.95C44.704 59.95 44.7095 59.95 44.7149 59.95C44.7204 59.95 44.7259 59.95 44.7314 59.95C44.7369 59.95 44.7424 59.95 44.7479 59.95C44.7534 59.95 44.759 59.95 44.7645 59.95C44.77 59.95 44.7755 59.95 44.781 59.95C44.7866 59.95 44.7921 59.95 44.7976 59.95C44.8032 59.95 44.8087 59.95 44.8142 59.95C44.8198 59.95 44.8253 59.95 44.8309 59.95C44.8364 59.95 44.842 59.95 44.8475 59.95C44.8531 59.95 44.8587 59.95 44.8642 59.95C44.8698 59.95 44.8754 59.95 44.8809 59.95C44.8865 59.95 44.8921 59.95 44.8977 59.95C44.9033 59.95 44.9088 59.95 44.9144 59.95C44.92 59.95 44.9256 59.95 44.9312 59.95C44.9368 59.95 44.9424 59.95 44.948 59.95C44.9536 59.95 44.9592 59.95 44.9649 59.95C44.9705 59.95 44.9761 59.95 44.9817 59.95C44.9873 59.95 44.993 59.95 44.9986 59.95C45.0042 59.95 45.0099 59.95 45.0155 59.95C45.0212 59.95 45.0268 59.95 45.0324 59.95C45.0381 59.95 45.0437 59.95 45.0494 59.95C45.0551 59.95 45.0607 59.95 45.0664 59.95C45.072 59.95 45.0777 59.95 45.0834 59.95C45.0891 59.95 45.0947 59.95 45.1004 59.95C45.1061 59.95 45.1118 59.95 45.1175 59.95C45.1231 59.95 45.1288 59.95 45.1345 59.95C45.1402 59.95 45.1459 59.95 45.1516 59.95C45.1573 59.95 45.163 59.95 45.1687 59.95C45.1744 59.95 45.1802 59.95 45.1859 59.95C45.1916 59.95 45.1973 59.95 45.203 59.95C45.2088 59.95 45.2145 59.95 45.2202 59.95C45.226 59.95 45.2317 59.95 45.2374 59.95C45.2432 59.95 45.2489 59.95 45.2547 59.95C45.2604 59.95 45.2662 59.95 45.2719 59.95C45.2777 59.95 45.2834 59.95 45.2892 59.95C45.2949 59.95 45.3007 59.95 45.3065 59.95C45.3122 59.95 45.318 59.95 45.3238 59.95C45.3296 59.95 45.3353 59.95 45.3411 59.95C45.3469 59.95 45.3527 59.95 45.3585 59.95C45.3643 59.95 45.3701 59.95 45.3759 59.95C45.3817 59.95 45.3875 59.95 45.3933 59.95C45.3991 59.95 45.4049 59.95 45.4107 59.95C45.4165 59.95 45.4223 59.95 45.4281 59.95C45.4339 59.95 45.4398 59.95 45.4456 59.95C45.4514 59.95 45.4572 59.95 45.4631 59.95C45.4689 59.95 45.4747 59.95 45.4806 59.95C45.4864 59.95 45.4923 59.95 45.4981 59.95C45.5039 59.95 45.5098 59.95 45.5156 59.95C45.5215 59.95 45.5274 59.95 45.5332 59.95C45.5391 59.95 45.5449 59.95 45.5508 59.95C45.5567 59.95 45.5625 59.95 45.5684 59.95C45.5743 59.95 45.5801 59.95 45.586 59.95C45.5919 59.95 45.5978 59.95 45.6037 59.95C45.6095 59.95 45.6154 59.95 45.6213 59.95C45.6272 59.95 45.6331 59.95 45.639 59.95C45.6449 59.95 45.6508 59.95 45.6567 59.95C45.6626 59.95 45.6685 59.95 45.6744 59.95C45.6803 59.95 45.6862 59.95 45.6922 59.95C45.6981 59.95 45.704 59.95 45.7099 59.95C45.7158 59.95 45.7218 59.95 45.7277 59.95C45.7336 59.95 45.7396 59.95 45.7455 59.95C45.7514 59.95 45.7574 59.95 45.7633 59.95C45.7692 59.95 45.7752 59.95 45.7811 59.95C45.7871 59.95 45.793 59.95 45.799 59.95C45.8049 59.95 45.8109 59.95 45.8168 59.95C45.8228 59.95 45.8288 59.95 45.8347 59.95C45.8407 59.95 45.8467 59.95 45.8526 59.95C45.8586 59.95 45.8646 59.95 45.8705 59.95C45.8765 59.95 45.8825 59.95 45.8885 59.95C45.8945 59.95 45.9004 59.95 45.9064 59.95C45.9124 59.95 45.9184 59.95 45.9244 59.95C45.9304 59.95 45.9364 59.95 45.9424 59.95C45.9484 59.95 45.9544 59.95 45.9604 59.95C45.9664 59.95 45.9724 59.95 45.9784 59.95C45.9844 59.95 45.9904 59.95 45.9965 59.95C46.0025 59.95 46.0085 59.95 46.0145 59.95C46.0205 59.95 46.0266 59.95 46.0326 59.95C46.0386 59.95 46.0446 59.95 46.0507 59.95C46.0567 59.95 46.0627 59.95 46.0688 59.95C46.0748 59.95 46.0808 59.95 46.0869 59.95C46.0929 59.95 46.099 59.95 46.105 59.95C46.1111 59.95 46.1171 59.95 46.1232 59.95C46.1292 59.95 46.1353 59.95 46.1413 59.95C46.1474 59.95 46.1534 59.95 46.1595 59.95C46.1656 59.95 46.1716 59.95 46.1777 59.95C46.1838 59.95 46.1898 59.95 46.1959 59.95C46.202 59.95 46.2081 59.95 46.2141 59.95C46.2202 59.95 46.2263 59.95 46.2324 59.95C46.2385 59.95 46.2446 59.95 46.2506 59.95C46.2567 59.95 46.2628 59.95 46.2689 59.95C46.275 59.95 46.2811 59.95 46.2872 59.95C46.2933 59.95 46.2994 59.95 46.3055 59.95C46.3116 59.95 46.3177 59.95 46.3238 59.95C46.3299 59.95 46.336 59.95 46.3421 59.95C46.3482 59.95 46.3544 59.95 46.3605 59.95C46.3666 59.95 46.3727 59.95 46.3788 59.95C46.3849 59.95 46.3911 59.95 46.3972 59.95C46.4033 59.95 46.4094 59.95 46.4156 59.95C46.4217 59.95 46.4278 59.95 46.434 59.95C46.4401 59.95 46.4462 59.95 46.4524 59.95C46.4585 59.95 46.4647 59.95 46.4708 59.95C46.4769 59.95 46.4831 59.95 46.4892 59.95C46.4954 59.95 46.5015 59.95 46.5077 59.95C46.5138 59.95 46.52 59.95 46.5261 59.95C46.5323 59.95 46.5385 59.95 46.5446 59.95C46.5508 59.95 46.5569 59.95 46.5631 59.95C46.5693 59.95 46.5754 59.95 46.5816 59.95C46.5878 59.95 46.5939 59.95 46.6001 59.95C46.6063 59.95 46.6125 59.95 46.6186 59.95C46.6248 59.95 46.631 59.95 46.6372 59.95C46.6433 59.95 46.6495 59.95 46.6557 59.95C46.6619 59.95 46.6681 59.95 46.6743 59.95C46.6805 59.95 46.6866 59.95 46.6928 59.95C46.699 59.95 46.7052 59.95 46.7114 59.95C46.7176 59.95 46.7238 59.95 46.73 59.95C46.7362 59.95 46.7424 59.95 46.7486 59.95C46.7548 59.95 46.761 59.95 46.7672 59.95C46.7734 59.95 46.7796 59.95 46.7859 59.95C46.7921 59.95 46.7983 59.95 46.8045 59.95C46.8107 59.95 46.8169 59.95 46.8231 59.95C46.8294 59.95 46.8356 59.95 46.8418 59.95C46.848 59.95 46.8542 59.95 46.8605 59.95C46.8667 59.95 46.8729 59.95 46.8791 59.95C46.8854 59.95 46.8916 59.95 46.8978 59.95C46.9041 59.95 46.9103 59.95 46.9165 59.95C46.9228 59.95 46.929 59.95 46.9352 59.95C46.9415 59.95 46.9477 59.95 46.954 59.95C46.9602 59.95 46.9664 59.95 46.9727 59.95C46.9789 59.95 46.9852 59.95 46.9914 59.95C46.9977 59.95 47.0039 59.95 47.0102 59.95C47.0164 59.95 47.0227 59.95 47.0289 59.95C47.0352 59.95 47.0414 59.95 47.0477 59.95C47.0539 59.95 47.0602 59.95 47.0665 59.95C47.0727 59.95 47.079 59.95 47.0852 59.95C47.0915 59.95 47.0978 59.95 47.104 59.95C47.1103 59.95 47.1166 59.95 47.1228 59.95C47.1291 59.95 47.1354 59.95 47.1416 59.95C47.1479 59.95 47.1542 59.95 47.1604 59.95C47.1667 59.95 47.173 59.95 47.1793 59.95C47.1855 59.95 47.1918 59.95 47.1981 59.95C47.2044 59.95 47.2107 59.95 47.2169 59.95C47.2232 59.95 47.2295 59.95 47.2358 59.95C47.2421 59.95 47.2484 59.95 47.2546 59.95C47.2609 59.95 47.2672 59.95 47.2735 59.95C47.2798 59.95 47.2861 59.95 47.2924 59.95C47.2987 59.95 47.305 59.95 47.3113 59.95C47.3175 59.95 47.3238 59.95 47.3301 59.95C47.3364 59.95 47.3427 59.95 47.349 59.95C47.3553 59.95 47.3616 59.95 47.3679 59.95C47.3742 59.95 47.3805 59.95 47.3868 59.95C47.3931 59.95 47.3994 59.95 47.4057 59.95C47.412 59.95 47.4184 59.95 47.4247 59.95C47.431 59.95 47.4373 59.95 47.4436 59.95C47.4499 59.95 47.4562 59.95 47.4625 59.95C47.4688 59.95 47.4751 59.95 47.4814 59.95C47.4878 59.95 47.4941 59.95 47.5004 59.95C47.5067 59.95 47.513 59.95 47.5193 59.95C47.5257 59.95 47.532 59.95 47.5383 59.95C47.5446 59.95 47.5509 59.95 47.5573 59.95C47.5636 59.95 47.5699 59.95 47.5762 59.95C47.5825 59.95 47.5889 59.95 47.5952 59.95C47.6015 59.95 47.6078 59.95 47.6142 59.95C47.6205 59.95 47.6268 59.95 47.6331 59.95C47.6395 59.95 47.6458 59.95 47.6521 59.95C47.6585 59.95 47.6648 59.95 47.6711 59.95C47.6774 59.95 47.6838 59.95 47.6901 59.95C47.6964 59.95 47.7028 59.95 47.7091 59.95C47.7154 59.95 47.7218 59.95 47.7281 59.95C47.7344 59.95 47.7408 59.95 47.7471 59.95C47.7535 59.95 47.7598 59.95 47.7661 59.95C47.7725 59.95 47.7788 59.95 47.7851 59.95C47.7915 59.95 47.7978 59.95 47.8042 59.95C47.8105 59.95 47.8168 59.95 47.8232 59.95C47.8295 59.95 47.8359 59.95 47.8422 59.95C47.8486 59.95 47.8549 59.95 47.8612 59.95C47.8676 59.95 47.8739 59.95 47.8803 59.95C47.8866 59.95 47.893 59.95 47.8993 59.95C47.9057 59.95 47.912 59.95 47.9183 59.95C47.9247 59.95 47.931 59.95 47.9374 59.95C47.9437 59.95 47.9501 59.95 47.9564 59.95C47.9628 59.95 47.9691 59.95 47.9755 59.95C47.9818 59.95 47.9882 59.95 47.9945 59.95C48.0009 59.95 48.0072 59.95 48.0136 59.95C48.0199 59.95 48.0263 59.95 48.0326 59.95C48.039 59.95 48.0453 59.95 48.0517 59.95C48.058 59.95 48.0644 59.95 48.0708 59.95C48.0771 59.95 48.0835 59.95 48.0898 59.95C48.0962 59.95 48.1025 59.95 48.1089 59.95C48.1152 59.95 48.1216 59.95 48.1279 59.95C48.1343 59.95 48.1406 59.95 48.147 59.95C48.1534 59.95 48.1597 59.95 48.1661 59.95C48.1724 59.95 48.1788 59.95 48.1851 59.95C48.1915 59.95 48.1978 59.95 48.2042 59.95C48.2106 59.95 48.2169 59.95 48.2233 59.95C48.2296 59.95 48.236 59.95 48.2423 59.95C48.2487 59.95 48.2551 59.95 48.2614 59.95C48.2678 59.95 48.2741 59.95 48.2805 59.95C48.2868 59.95 48.2932 59.95 48.2996 59.95C48.3059 59.95 48.3123 59.95 48.3186 59.95C48.325 59.95 48.3313 59.95 48.3377 59.95C48.3441 59.95 48.3504 59.95 48.3568 59.95C48.3631 59.95 48.3695 59.95 48.3758 59.95C48.3822 59.95 48.3886 59.95 48.3949 59.95C48.4013 59.95 48.4076 59.95 48.414 59.95C48.4203 59.95 48.4267 59.95 48.4331 59.95C48.4394 59.95 48.4458 59.95 48.4521 59.95C48.4585 59.95 48.4648 59.95 48.4712 59.95C48.4776 59.95 48.4839 59.95 48.4903 59.95C48.4966 59.95 48.503 59.95 48.5093 59.95C48.5157 59.95 48.522 59.95 48.5284 59.95C48.5348 59.95 48.5411 59.95 48.5475 59.95C48.5538 59.95 48.5602 59.95 48.5665 59.95C48.5729 59.95 48.5792 59.95 48.5856 59.95C48.5919 59.95 48.5983 59.95 48.6047 59.95C48.611 59.95 48.6174 59.95 48.6237 59.95C48.6301 59.95 48.6364 59.95 48.6428 59.95C48.6491 59.95 48.6555 59.95 48.6618 59.95C48.6682 59.95 48.6745 59.95 48.6809 59.95C48.6872 59.95 48.6936 59.95 48.6999 59.95C48.7063 59.95 48.7126 59.95 48.719 59.95C48.7253 59.95 48.7317 59.95 48.738 59.95C48.7444 59.95 48.7507 59.95 48.7571 59.95C48.7634 59.95 48.7698 59.95 48.7761 59.95C48.7824 59.95 48.7888 59.95 48.7951 59.95C48.8015 59.95 48.8078 59.95 48.8142 59.95C48.8205 59.95 48.8269 59.95 48.8332 59.95C48.8395 59.95 48.8459 59.95 48.8522 59.95C48.8586 59.95 48.8649 59.95 48.8712 59.95C48.8776 59.95 48.8839 59.95 48.8903 59.95C48.8966 59.95 48.9029 59.95 48.9093 59.95C48.9156 59.95 48.922 59.95 48.9283 59.95C48.9346 59.95 48.941 59.95 48.9473 59.95C48.9536 59.95 48.96 59.95 48.9663 59.95C48.9726 59.95 48.979 59.95 48.9853 59.95C48.9916 59.95 48.998 59.95 49.0043 59.95C49.0106 59.95 49.017 59.95 49.0233 59.95C49.0296 59.95 49.0359 59.95 49.0423 59.95C49.0486 59.95 49.0549 59.95 49.0612 59.95C49.0676 59.95 49.0739 59.95 49.0802 59.95C49.0865 59.95 49.0929 59.95 49.0992 59.95C49.1055 59.95 49.1118 59.95 49.1182 59.95C49.1245 59.95 49.1308 59.95 49.1371 59.95C49.1434 59.95 49.1498 59.95 49.1561 59.95C49.1624 59.95 49.1687 59.95 49.175 59.95C49.1813 59.95 49.1876 59.95 49.194 59.95C49.2003 59.95 49.2066 59.95 49.2129 59.95C49.2192 59.95 49.2255 59.95 49.2318 59.95C49.2381 59.95 49.2444 59.95 49.2508 59.95C49.2571 59.95 49.2634 59.95 49.2697 59.95C49.276 59.95 49.2823 59.95 49.2886 59.95C49.2949 59.95 49.3012 59.95 49.3075 59.95C49.3138 59.95 49.3201 59.95 49.3264 59.95C49.3327 59.95 49.339 59.95 49.3453 59.95C49.3516 59.95 49.3579 59.95 49.3642 59.95C49.3705 59.95 49.3767 59.95 49.383 59.95C49.3893 59.95 49.3956 59.95 49.4019 59.95C49.4082 59.95 49.4145 59.95 49.4208 59.95C49.4271 59.95 49.4333 59.95 49.4396 59.95C49.4459 59.95 49.4522 59.95 49.4585 59.95C49.4648 59.95 49.471 59.95 49.4773 59.95C49.4836 59.95 49.4899 59.95 49.4961 59.95C49.5024 59.95 49.5087 59.95 49.515 59.95C49.5212 59.95 49.5275 59.95 49.5338 59.95C49.5401 59.95 49.5463 59.95 49.5526 59.95C49.5589 59.95 49.5651 59.95 49.5714 59.95C49.5777 59.95 49.5839 59.95 49.5902 59.95C49.5964 59.95 49.6027 59.95 49.609 59.95C49.6152 59.95 49.6215 59.95 49.6277 59.95C49.634 59.95 49.6402 59.95 49.6465 59.95C49.6527 59.95 49.659 59.95 49.6652 59.95C49.6715 59.95 49.6777 59.95 49.684 59.95C49.6902 59.95 49.6965 59.95 49.7027 59.95C49.709 59.95 49.7152 59.95 49.7215 59.95C49.7277 59.95 49.7339 59.95 49.7402 59.95C49.7464 59.95 49.7526 59.95 49.7589 59.95C49.7651 59.95 49.7713 59.95 49.7776 59.95C49.7838 59.95 49.79 59.95 49.7963 59.95C49.8025 59.95 49.8087 59.95 49.8149 59.95C49.8212 59.95 49.8274 59.95 49.8336 59.95C49.8398 59.95 49.8461 59.95 49.8523 59.95C49.8585 59.95 49.8647 59.95 49.8709 59.95C49.8771 59.95 49.8833 59.95 49.8896 59.95C49.8958 59.95 49.902 59.95 49.9082 59.95C49.9144 59.95 49.9206 59.95 49.9268 59.95C49.933 59.95 49.9392 59.95 49.9454 59.95C49.9516 59.95 49.9578 59.95 49.964 59.95C49.9702 59.95 49.9764 59.95 49.9826 59.95C49.9888 59.95 49.9949 59.95 50.0011 59.95C50.0073 59.95 50.0135 59.95 50.0197 59.95C50.0259 59.95 50.0321 59.95 50.0382 59.95C50.0444 59.95 50.0506 59.95 50.0568 59.95C50.0629 59.95 50.0691 59.95 50.0753 59.95C50.0815 59.95 50.0876 59.95 50.0938 59.95C50.1 59.95 50.1061 59.95 50.1123 59.95C50.1185 59.95 50.1246 59.95 50.1308 59.95C50.1369 59.95 50.1431 59.95 50.1493 59.95C50.1554 59.95 50.1616 59.95 50.1677 59.95C50.1739 59.95 50.18 59.95 50.1862 59.95C50.1923 59.95 50.1985 59.95 50.2046 59.95C50.2107 59.95 50.2169 59.95 50.223 59.95C50.2292 59.95 50.2353 59.95 50.2414 59.95C50.2476 59.95 50.2537 59.95 50.2598 59.95C50.266 59.95 50.2721 59.95 50.2782 59.95C50.2843 59.95 50.2905 59.95 50.2966 59.95C50.3027 59.95 50.3088 59.95 50.3149 59.95C50.3211 59.95 50.3272 59.95 50.3333 59.95C50.3394 59.95 50.3455 59.95 50.3516 59.95C50.3577 59.95 50.3638 59.95 50.3699 59.95C50.376 59.95 50.3821 59.95 50.3882 59.95C50.3943 59.95 50.4004 59.95 50.4065 59.95C50.4126 59.95 50.4187 59.95 50.4248 59.95C50.4309 59.95 50.4369 59.95 50.443 59.95C50.4491 59.95 50.4552 59.95 50.4613 59.95C50.4673 59.95 50.4734 59.95 50.4795 59.95C50.4856 59.95 50.4916 59.95 50.4977 59.95C50.5038 59.95 50.5098 59.95 50.5159 59.95C50.522 59.95 50.528 59.95 50.5341 59.95C50.5401 59.95 50.5462 59.95 50.5522 59.95C50.5583 59.95 50.5643 59.95 50.5704 59.95C50.5764 59.95 50.5825 59.95 50.5885 59.95C50.5946 59.95 50.6006 59.95 50.6066 59.95C50.6127 59.95 50.6187 59.95 50.6247 59.95C50.6308 59.95 50.6368 59.95 50.6428 59.95C50.6489 59.95 50.6549 59.95 50.6609 59.95C50.6669 59.95 50.6729 59.95 50.679 59.95C50.685 59.95 50.691 59.95 50.697 59.95C50.703 59.95 50.709 59.95 50.715 59.95C50.721 59.95 50.727 59.95 50.733 59.95C50.739 59.95 50.745 59.95 50.751 59.95C50.757 59.95 50.763 59.95 50.769 59.95C50.775 59.95 50.7809 59.95 50.7869 59.95C50.7929 59.95 50.7989 59.95 50.8049 59.95C50.8108 59.95 50.8168 59.95 50.8228 59.95C50.8288 59.95 50.8347 59.95 50.8407 59.95C50.8466 59.95 50.8526 59.95 50.8586 59.95C50.8645 59.95 50.8705 59.95 50.8764 59.95C50.8824 59.95 50.8883 59.95 50.8943 59.95C50.9002 59.95 50.9062 59.95 50.9121 59.95C50.918 59.95 50.924 59.95 50.9299 59.95C50.9359 59.95 50.9418 59.95 50.9477 59.95C50.9536 59.95 50.9596 59.95 50.9655 59.95C50.9714 59.95 50.9773 59.95 50.9832 59.95C50.9892 59.95 50.9951 59.95 51.001 59.95C51.0069 59.95 51.0128 59.95 51.0187 59.95C51.0246 59.95 51.0305 59.95 51.0364 59.95C51.0423 59.95 51.0482 59.95 51.0541 59.95C51.06 59.95 51.0659 59.95 51.0717 59.95C51.0776 59.95 51.0835 59.95 51.0894 59.95C51.0953 59.95 51.1011 59.95 51.107 59.95C51.1129 59.95 51.1188 59.95 51.1246 59.95C51.1305 59.95 51.1363 59.95 51.1422 59.95C51.1481 59.95 51.1539 59.95 51.1598 59.95C51.1656 59.95 51.1715 59.95 51.1773 59.95C51.1832 59.95 51.189 59.95 51.1948 59.95C51.2007 59.95 51.2065 59.95 51.2123 59.95C51.2182 59.95 51.224 59.95 51.2298 59.95C51.2356 59.95 51.2415 59.95 51.2473 59.95C51.2531 59.95 51.2589 59.95 51.2647 59.95C51.2705 59.95 51.2763 59.95 51.2821 59.95C51.2879 59.95 51.2937 59.95 51.2995 59.95C51.3053 59.95 51.3111 59.95 51.3169 59.95C51.3227 59.95 51.3285 59.95 51.3343 59.95C51.3401 59.95 51.3458 59.95 51.3516 59.95C51.3574 59.95 51.3632 59.95 51.3689 59.95C51.3747 59.95 51.3805 59.95 51.3862 59.95C51.392 59.95 51.3977 59.95 51.4035 59.95C51.4093 59.95 51.415 59.95 51.4208 59.95C51.4265 59.95 51.4322 59.95 51.438 59.95C51.4437 59.95 51.4495 59.95 51.4552 59.95C51.4609 59.95 51.4666 59.95 51.4724 59.95C51.4781 59.95 51.4838 59.95 51.4895 59.95C51.4953 59.95 51.501 59.95 51.5067 59.95C51.5124 59.95 51.5181 59.95 51.5238 59.95C51.5295 59.95 51.5352 59.95 51.5409 59.95C51.5466 59.95 51.5523 59.95 51.558 59.95C51.5636 59.95 51.5693 59.95 51.575 59.95C51.5807 59.95 51.5864 59.95 51.592 59.95C51.5977 59.95 51.6034 59.95 51.609 59.95C51.6147 59.95 51.6204 59.95 51.626 59.95C51.6317 59.95 51.6373 59.95 51.643 59.95C51.6486 59.95 51.6543 59.95 51.6599 59.95C51.6655 59.95 51.6712 59.95 51.6768 59.95C51.6824 59.95 51.6881 59.95 51.6937 59.95C51.6993 59.95 51.7049 59.95 51.7105 59.95C51.7162 59.95 51.7218 59.95 51.7274 59.95C51.733 59.95 51.7386 59.95 51.7442 59.95C51.7498 59.95 51.7554 59.95 51.761 59.95C51.7666 59.95 51.7722 59.95 51.7777 59.95C51.7833 59.95 51.7889 59.95 51.7945 59.95C51.8001 59.95 51.8056 59.95 51.8112 59.95C51.8168 59.95 51.8223 59.95 51.8279 59.95C51.8334 59.95 51.839 59.95 51.8445 59.95C51.8501 59.95 51.8556 59.95 51.8612 59.95C51.8667 59.95 51.8723 59.95 51.8778 59.95C51.8833 59.95 51.8889 59.95 51.8944 59.95C51.8999 59.95 51.9054 59.95 51.9109 59.95C51.9165 59.95 51.922 59.95 51.9275 59.95C51.933 59.95 51.9385 59.95 51.944 59.95C51.9495 59.95 51.955 59.95 51.9605 59.95C51.966 59.95 51.9714 59.95 51.9769 59.95C51.9824 59.95 51.9879 59.95 51.9934 59.95C51.9988 59.95 52.0043 59.95 52.0098 59.95C52.0152 59.95 52.0207 59.95 52.0261 59.95C52.0316 59.95 52.037 59.95 52.0425 59.95C52.0479 59.95 52.0534 59.95 52.0588 59.95C52.0642 59.95 52.0697 59.95 52.0751 59.95C52.0805 59.95 52.086 59.95 52.0914 59.95C52.0968 59.95 52.1022 59.95 52.1076 59.95C52.113 59.95 52.1184 59.95 52.1238 59.95C52.1292 59.95 52.1346 59.95 52.14 59.95C52.1454 59.95 52.1508 59.95 52.1562 59.95C52.1616 59.95 52.1669 59.95 52.1723 59.95C52.1777 59.95 52.1831 59.95 52.1884 59.95C52.1938 59.95 52.1991 59.95 52.2045 59.95C52.2098 59.95 52.2152 59.95 52.2205 59.95C52.2259 59.95 52.2312 59.95 52.2366 59.95C52.2419 59.95 52.2472 59.95 52.2526 59.95C52.2579 59.95 52.2632 59.95 52.2685 59.95C52.2738 59.95 52.2791 59.95 52.2845 59.95C52.2898 59.95 52.2951 59.95 52.3004 59.95C52.3057 59.95 52.311 59.95 52.3162 59.95C52.3215 59.95 52.3268 59.95 52.3321 59.95C52.3374 59.95 52.3426 59.95 52.3479 59.95C52.3532 59.95 52.3584 59.95 52.3637 59.95C52.369 59.95 52.3742 59.95 52.3795 59.95C52.3847 59.95 52.3899 59.95 52.3952 59.95C52.4004 59.95 52.4057 59.95 52.4109 59.95C52.4161 59.95 52.4213 59.95 52.4266 59.95C52.4318 59.95 52.437 59.95 52.4422 59.95C52.4474 59.95 52.4526 59.95 52.4578 59.95C52.463 59.95 52.4682 59.95 52.4734 59.95C52.4786 59.95 52.4838 59.95 52.4889 59.95C52.4941 59.95 52.4993 59.95 52.5045 59.95C52.5096 59.95 52.5148 59.95 52.52 59.95C52.5251 59.95 52.5303 59.95 52.5354 59.95C52.5406 59.95 52.5457 59.95 52.5508 59.95C52.556 59.95 52.5611 59.95 52.5662 59.95C52.5714 59.95 52.5765 59.95 52.5816 59.95C52.5867 59.95 52.5918 59.95 52.5969 59.95C52.602 59.95 52.6071 59.95 52.6122 59.95C52.6173 59.95 52.6224 59.95 52.6275 59.95C52.6326 59.95 52.6377 59.95 52.6427 59.95C52.6478 59.95 52.6529 59.95 52.658 59.95C52.663 59.95 52.6681 59.95 52.6731 59.95C52.6782 59.95 52.6832 59.95 52.6883 59.95C52.6933 59.95 52.6984 59.95 52.7034 59.95C52.7084 59.95 52.7134 59.95 52.7185 59.95C52.7235 59.95 52.7285 59.95 52.7335 59.95C52.7385 59.95 52.7435 59.95 52.7485 59.95C52.7535 59.95 52.7585 59.95 52.7635 59.95C52.7685 59.95 52.7735 59.95 52.7785 59.95C52.7834 59.95 52.7884 59.95 52.7934 59.95C52.7983 59.95 52.8033 59.95 52.8083 59.95C52.8132 59.95 52.8182 59.95 52.8231 59.95C52.8281 59.95 52.833 59.95 52.8379 59.95C52.8429 59.95 52.8478 59.95 52.8527 59.95V59.45ZM43.8227 59.45V58.95C43.1189 58.95 42.5878 58.7374 42.2356 58.3985C41.8859 58.0619 41.6627 57.553 41.6627 56.86H41.1627H40.6627C40.6627 57.777 40.9645 58.5631 41.5423 59.119C42.1176 59.6727 42.9165 59.95 43.8227 59.95V59.45ZM41.1627 56.86H41.6627C41.6627 53.9549 40.8817 51.7252 39.6369 50.2127C38.3893 48.6969 36.6954 47.929 34.9488 47.9338C31.4346 47.9434 27.9449 51.0344 27.2958 56.8041L27.7927 56.86L28.2896 56.9159C28.9005 51.4856 32.0958 48.9416 34.9516 48.9338C36.39 48.9298 37.8024 49.5574 38.8648 50.8482C39.9299 52.1423 40.6627 54.1301 40.6627 56.86H41.1627ZM27.7927 56.86L27.2955 56.8074C26.5898 63.476 28.0103 68.4518 31.3778 70.7564C34.7616 73.0721 39.8322 72.5079 45.9728 68.767L45.7127 68.34L45.4526 67.913C39.4132 71.5921 34.8238 71.9029 31.9426 69.9311C29.0451 67.9482 27.5956 63.474 28.2899 56.9126L27.7927 56.86ZM45.7127 68.34L45.97 68.7687C46.5913 68.3959 47.1895 68.2793 47.678 68.3607C48.1547 68.4401 48.5681 68.7132 48.8456 69.2128L49.2827 68.97L49.7198 68.7272C49.2973 67.9668 48.6257 67.5049 47.8424 67.3743C47.071 67.2457 46.2341 67.4441 45.4555 67.9113L45.7127 68.34ZM49.2827 68.97L48.8475 69.2161L53.6775 77.7561L54.1127 77.51L54.5479 77.2639L49.7179 68.7239L49.2827 68.97ZM54.1127 77.51L53.6746 77.751C54.0205 78.3798 54.1422 78.9723 54.0722 79.4905C54.0032 80.0015 53.742 80.4864 53.2349 80.904L53.5527 81.29L53.8706 81.676C54.5534 81.1136 54.9573 80.4085 55.0632 79.6245C55.1682 78.8477 54.9749 78.0402 54.5508 77.269L54.1127 77.51Z" fill="#FF5C5C"/>
<rect y="13.1303" width="13" height="29.8934" rx="6.5" transform="rotate(-30.507 0 13.1303)" fill="#FFB2B2" stroke="#FF5C5C"/>
<rect x="23.8327" y="1.77659" width="13" height="29.8934" rx="6.5" transform="rotate(-7.85465 23.8327 1.77659)" fill="#FFB2B2" stroke="#FF5C5C"/>
</svg>
