<svg width="422" height="94" viewBox="0 0 422 94" fill="none" xmlns="http://www.w3.org/2000/svg">
<path d="M234.437 76.9264C232.964 76.9264 231.939 75.8966 232.003 74.4806L233.22 34.4459C233.22 32.9655 234.181 32 235.655 32H255.579C268.328 32 274.158 42.8776 265.637 51.6955C287.291 71.3267 251.094 92.567 243.47 61.4146C243.15 59.8055 241.036 60.256 241.805 61.9939C242.253 63.1524 246.161 70.5544 247.507 74.6093C247.955 75.961 247.314 76.9264 245.905 76.9264H234.437ZM249.941 43.9074V49.121H252.568C257.373 49.121 257.373 43.9074 252.568 43.9074H249.941ZM249.941 55.6218V62.0582H253.785C258.59 62.0582 258.59 55.6218 253.785 55.6218H249.941Z" fill="#A4EBFF"/>
<path d="M305.22 44.9373C305.22 49.7002 305.54 65.3408 305.604 74.3519C305.604 75.8322 304.579 76.7977 303.17 76.7977H290.549C289.139 76.7977 288.691 76.0253 289.46 74.8024C291.574 71.5198 294.649 65.2121 294.649 65.2121C295.93 63.4099 295.033 62.6375 293.944 64.4397C283.438 81.8181 275.045 79.8872 275.173 63.8604C275.173 58.1964 275.173 50.7301 275.173 44.9373C275.173 43.2638 276.326 42.4914 277.736 42.4914H285.359C286.833 42.4914 287.858 43.4569 287.858 44.9373V59.6767C287.858 66.435 292.599 66.435 292.599 59.6767V44.9373C292.599 43.4569 293.56 42.4914 295.033 42.4914H302.657C304.131 42.4914 305.22 43.4569 305.22 44.9373Z" fill="#A4EBFF"/>
<path d="M344.239 57.8745C344.752 63.0237 344.624 69.0096 344.624 74.545C344.624 76.0253 342.445 76.9908 340.972 76.9908H333.733C332.259 76.9908 331.106 76.1541 331.298 74.545C331.298 74.545 332.131 52.2105 327.07 52.2748C323.803 52.3392 322.649 60.0629 323.226 74.545C323.29 76.0253 322.265 76.9908 320.791 76.9908H312.335C310.861 76.9908 309.836 76.0253 309.9 74.545L309.964 45.4522C309.964 43.9718 310.99 43.0063 312.463 43.0063H322.906C323.931 43.0063 323.931 44.4224 323.29 45.774C320.791 51.1806 318.485 55.1712 318.485 55.1712C317.204 56.9734 318.87 58.0033 319.638 56.0723C325.981 38.5008 342.061 38.4365 344.239 57.8745Z" fill="#A4EBFF"/>
<path d="M382.778 57.8745C383.291 63.0237 383.163 69.0096 383.163 74.545C383.163 76.0253 380.985 76.9908 379.511 76.9908H372.272C370.798 76.9908 369.645 76.1541 369.837 74.545C369.837 74.545 370.67 52.2105 365.609 52.2748C362.342 52.3392 361.188 60.0629 361.765 74.545C361.829 76.0253 360.804 76.9908 359.331 76.9908H350.874C349.4 76.9908 348.375 76.0253 348.44 74.545L348.504 45.4522C348.504 43.9718 349.529 43.0063 351.002 43.0063H361.445C362.47 43.0063 362.47 44.4224 361.829 45.774C359.331 51.1806 357.024 55.1712 357.024 55.1712C355.743 56.9734 357.409 58.0033 358.177 56.0723C364.52 38.5008 380.6 38.4365 382.778 57.8745Z" fill="#A4EBFF"/>
<path d="M418.563 42.6845C420.036 42.6845 421.061 43.65 420.997 45.1304C420.997 52.0174 420.997 72.8715 420.997 74.4162C420.997 91.2797 401.778 94.6267 390.566 92.3739C389.093 92.0521 388.132 91.6659 388.132 90.6361V80.2734C388.132 79.3079 389.221 78.085 390.566 78.6643C399.343 82.5262 412.284 77.7632 412.412 67.9154C412.412 66.4994 410.811 66.6281 410.811 67.851C410.811 80.4665 388.837 81.8181 386.658 61.8008C386.146 56.6516 386.274 51.245 386.274 45.6453C386.274 44.1649 386.658 42.6845 388.708 42.6845H397.165C398.638 42.6845 399.599 43.2638 399.599 45.1304C399.599 45.1304 398.767 67.4005 403.828 67.4005C406.006 67.4005 407.672 64.9546 407.672 45.1304C407.672 43.65 408.633 42.6845 410.106 42.6845H418.563Z" fill="#A4EBFF"/>
<path d="M234.437 76.9264C232.964 76.9264 231.939 75.8966 232.003 74.4806L233.22 34.4459C233.22 32.9655 234.181 32 235.655 32H255.579C268.328 32 274.158 42.8776 265.637 51.6955C287.291 71.3267 251.094 92.567 243.47 61.4146C243.15 59.8055 241.036 60.256 241.805 61.9939C242.253 63.1524 246.161 70.5544 247.507 74.6093C247.955 75.961 247.314 76.9264 245.905 76.9264H234.437ZM249.941 43.9074V49.121H252.568C257.373 49.121 257.373 43.9074 252.568 43.9074H249.941ZM249.941 55.6218V62.0582H253.785C258.59 62.0582 258.59 55.6218 253.785 55.6218H249.941Z" stroke="#1D70BD"/>
<path d="M305.22 44.9373C305.22 49.7002 305.54 65.3408 305.604 74.3519C305.604 75.8322 304.579 76.7977 303.17 76.7977H290.549C289.139 76.7977 288.691 76.0253 289.46 74.8024C291.574 71.5198 294.649 65.2121 294.649 65.2121C295.93 63.4099 295.033 62.6375 293.944 64.4397C283.438 81.8181 275.045 79.8872 275.173 63.8604C275.173 58.1964 275.173 50.7301 275.173 44.9373C275.173 43.2638 276.326 42.4914 277.736 42.4914H285.359C286.833 42.4914 287.858 43.4569 287.858 44.9373V59.6767C287.858 66.435 292.599 66.435 292.599 59.6767V44.9373C292.599 43.4569 293.56 42.4914 295.033 42.4914H302.657C304.131 42.4914 305.22 43.4569 305.22 44.9373Z" stroke="#1D70BD"/>
<path d="M344.239 57.8745C344.752 63.0237 344.624 69.0096 344.624 74.545C344.624 76.0253 342.445 76.9908 340.972 76.9908H333.733C332.259 76.9908 331.106 76.1541 331.298 74.545C331.298 74.545 332.131 52.2105 327.07 52.2748C323.803 52.3392 322.649 60.0629 323.226 74.545C323.29 76.0253 322.265 76.9908 320.791 76.9908H312.335C310.861 76.9908 309.836 76.0253 309.9 74.545L309.964 45.4522C309.964 43.9718 310.99 43.0063 312.463 43.0063H322.906C323.931 43.0063 323.931 44.4224 323.29 45.774C320.791 51.1806 318.485 55.1712 318.485 55.1712C317.204 56.9734 318.87 58.0033 319.638 56.0723C325.981 38.5008 342.061 38.4365 344.239 57.8745Z" stroke="#1D70BD"/>
<path d="M382.778 57.8745C383.291 63.0237 383.163 69.0096 383.163 74.545C383.163 76.0253 380.985 76.9908 379.511 76.9908H372.272C370.798 76.9908 369.645 76.1541 369.837 74.545C369.837 74.545 370.67 52.2105 365.609 52.2748C362.342 52.3392 361.188 60.0629 361.765 74.545C361.829 76.0253 360.804 76.9908 359.331 76.9908H350.874C349.4 76.9908 348.375 76.0253 348.44 74.545L348.504 45.4522C348.504 43.9718 349.529 43.0063 351.002 43.0063H361.445C362.47 43.0063 362.47 44.4224 361.829 45.774C359.331 51.1806 357.024 55.1712 357.024 55.1712C355.743 56.9734 357.409 58.0033 358.177 56.0723C364.52 38.5008 380.6 38.4365 382.778 57.8745Z" stroke="#1D70BD"/>
<path d="M418.563 42.6845C420.036 42.6845 421.061 43.65 420.997 45.1304C420.997 52.0174 420.997 72.8715 420.997 74.4162C420.997 91.2797 401.778 94.6267 390.566 92.3739C389.093 92.0521 388.132 91.6659 388.132 90.6361V80.2734C388.132 79.3079 389.221 78.085 390.566 78.6643C399.343 82.5262 412.284 77.7632 412.412 67.9154C412.412 66.4994 410.811 66.6281 410.811 67.851C410.811 80.4665 388.837 81.8181 386.658 61.8008C386.146 56.6516 386.274 51.245 386.274 45.6453C386.274 44.1649 386.658 42.6845 388.708 42.6845H397.165C398.638 42.6845 399.599 43.2638 399.599 45.1304C399.599 45.1304 398.767 67.4005 403.828 67.4005C406.006 67.4005 407.672 64.9546 407.672 45.1304C407.672 43.65 408.633 42.6845 410.106 42.6845H418.563Z" stroke="#1D70BD"/>
<path d="M47.4391 72.862C33.031 83.4274 14.1798 76.9256 11.0697 60.4211C10.3081 56.6701 10.1811 51.9813 11.0697 48.2303C15.9571 27.162 43.5039 24.4738 48.6451 43.5415C49.0894 45.1044 49.2798 48.3553 49.2798 51.0435C49.2798 52.4189 48.2643 53.3567 46.8044 53.3567C44.5194 53.3567 40.9015 53.3567 38.6165 53.3567C37.1567 53.3567 36.2046 52.4814 36.2046 51.0435C36.2046 40.9783 25.2239 41.0408 24.0815 51.0435C22.812 62.8593 29.2862 67.9231 40.3303 61.2963C41.5997 60.5461 42.9326 60.7337 43.5673 61.859L47.9469 69.4861C48.6451 70.7364 48.5181 71.9867 47.4391 72.862Z" fill="#FFB2B2"/>
<path d="M68.1072 42.3537C91.5918 42.1661 90.5762 76.488 68.8053 76.8631C45.7016 77.3632 45.0034 42.5412 68.1072 42.3537ZM68.2976 64.2971C72.8041 64.2346 72.6137 54.0444 68.2341 54.0444C63.6007 54.0444 63.8545 64.3597 68.2976 64.2971Z" fill="#FFB2B2"/>
<path d="M137.757 65.61C137.821 68.5483 137.821 70.7989 137.757 73.6122C137.694 75.1751 136.742 76.1129 135.282 76.1754C133.441 76.2379 98.595 76.1754 92.3747 76.1754C88.6299 76.1754 88.376 75.3627 88.376 71.2365C88.3125 64.7348 88.6934 55.9824 88.6934 48.6679C88.6934 44.4167 91.4861 43.3539 95.2945 43.3539C96.31 43.3539 96.3735 42.3537 95.104 42.3537H85.3928C84.9485 42.3537 84.7581 42.1036 84.7581 41.666V40.1031C84.7581 39.6654 84.9485 39.4154 85.3928 39.4154H88.7568C88.7568 38.2275 88.8203 37.1022 88.8203 36.0394C88.8203 34.6016 89.8359 33.7263 91.4227 33.6638C94.4058 33.5388 96.1831 33.5388 99.0393 33.6638C100.626 33.7263 101.578 34.6016 101.642 36.0394C101.705 37.1022 101.769 38.2275 101.769 39.4154H112.305C112.305 38.2275 112.368 37.1022 112.368 36.0394C112.368 34.6016 113.384 33.7263 114.971 33.6638C117.89 33.5388 119.731 33.5388 122.587 33.6638C124.111 33.7263 125.126 34.6016 125.126 36.0394C125.19 37.1022 125.253 38.2275 125.253 39.4154H129.252C129.696 39.4154 129.95 39.6654 129.95 40.1031L130.014 41.666C130.014 42.1036 129.76 42.3537 129.315 42.3537H125.253C125.317 47.8552 125.317 54.482 125.317 60.7337C125.317 62.1716 126.332 63.0468 127.729 63.0468C130.585 63.0468 133.187 63.0468 135.282 63.0468C136.742 63.0468 137.694 64.1096 137.757 65.61ZM118.843 43.3539C119.858 43.3539 119.922 42.3537 118.652 42.3537H101.769C101.832 47.8552 101.832 54.482 101.832 60.7337C101.832 62.1716 102.784 63.0468 104.244 63.0468C107.1 63.0468 109.703 63.0468 111.797 63.0468C111.861 63.0468 111.924 63.0468 111.924 63.1093C112.051 58.2955 112.241 53.2316 112.241 48.6679C112.241 44.4167 115.034 43.3539 118.843 43.3539Z" fill="#FFB2B2"/>
<path d="M156.125 42.3537C179.609 42.1661 178.594 76.488 156.823 76.8631C133.719 77.3632 133.021 42.5412 156.125 42.3537ZM156.315 64.2971C160.822 64.2346 160.631 54.0444 156.252 54.0444C151.618 54.0444 151.872 64.3597 156.315 64.2971Z" fill="#FFB2B2"/>
<path d="M210.605 57.5453C211.113 62.5467 210.986 68.3607 210.986 73.7372C210.986 75.1751 208.828 76.1129 207.368 76.1129H200.196C198.736 76.1129 197.593 75.3001 197.784 73.7372C197.784 73.7372 198.609 52.0438 193.595 52.1063C190.358 52.1688 189.215 59.6709 189.786 73.7372C189.85 75.1751 188.834 76.1129 187.374 76.1129H178.996C177.536 76.1129 176.521 75.1751 176.584 73.7372L176.648 45.4795C176.648 44.0416 177.663 43.1039 179.123 43.1039H189.469C190.484 43.1039 190.484 44.4792 189.85 45.7921C187.374 51.0435 185.089 54.9196 185.089 54.9196C183.82 56.6701 185.47 57.6703 186.232 55.7948C192.516 38.7277 208.447 38.6652 210.605 57.5453Z" fill="#FFB2B2"/>
<path d="M1.81683 16.99C0.16442 14.2278 1.09833 10.6691 3.90279 9.04156C6.70725 7.414 10.3203 8.33387 11.9727 11.0961L19.7488 24.0951C21.4012 26.8573 20.4673 30.416 17.6628 32.0435C14.8583 33.6711 11.2453 32.7512 9.59292 29.989L1.81683 16.99Z" fill="#FFB2B2"/>
<path d="M21.2404 7.59919C20.7956 4.42318 23.049 1.49332 26.2735 1.05517C29.498 0.617022 32.4726 2.83651 32.9175 6.01252L35.0108 20.9585C35.4557 24.1345 33.2023 27.0644 29.9778 27.5025C26.7532 27.9407 23.7786 25.7212 23.3338 22.5452L21.2404 7.59919Z" fill="#FFB2B2"/>
<path d="M47.4391 72.862C33.031 83.4274 14.1798 76.9256 11.0697 60.4211C10.3081 56.6701 10.1811 51.9813 11.0697 48.2303C15.9571 27.162 43.5039 24.4738 48.6451 43.5415C49.0894 45.1044 49.2798 48.3553 49.2798 51.0435C49.2798 52.4189 48.2643 53.3567 46.8044 53.3567C44.5194 53.3567 40.9015 53.3567 38.6165 53.3567C37.1567 53.3567 36.2046 52.4814 36.2046 51.0435C36.2046 40.9783 25.2239 41.0408 24.0815 51.0435C22.812 62.8593 29.2862 67.9231 40.3303 61.2963C41.5997 60.5461 42.9326 60.7337 43.5673 61.859L47.9469 69.4861C48.6451 70.7364 48.5181 71.9867 47.4391 72.862Z" stroke="#FF5C5C"/>
<path d="M68.1072 42.3537C91.5918 42.1661 90.5762 76.488 68.8053 76.8631C45.7016 77.3632 45.0034 42.5412 68.1072 42.3537ZM68.2976 64.2971C72.8041 64.2346 72.6137 54.0444 68.2341 54.0444C63.6007 54.0444 63.8545 64.3597 68.2976 64.2971Z" stroke="#FF5C5C"/>
<path d="M137.757 65.61C137.821 68.5483 137.821 70.7989 137.757 73.6122C137.694 75.1751 136.742 76.1129 135.282 76.1754C133.441 76.2379 98.595 76.1754 92.3747 76.1754C88.6299 76.1754 88.376 75.3627 88.376 71.2365C88.3125 64.7348 88.6934 55.9824 88.6934 48.6679C88.6934 44.4167 91.4861 43.3539 95.2945 43.3539C96.31 43.3539 96.3735 42.3537 95.104 42.3537H85.3928C84.9485 42.3537 84.7581 42.1036 84.7581 41.666V40.1031C84.7581 39.6654 84.9485 39.4154 85.3928 39.4154H88.7568C88.7568 38.2275 88.8203 37.1022 88.8203 36.0394C88.8203 34.6016 89.8359 33.7263 91.4227 33.6638C94.4058 33.5388 96.1831 33.5388 99.0393 33.6638C100.626 33.7263 101.578 34.6016 101.642 36.0394C101.705 37.1022 101.769 38.2275 101.769 39.4154H112.305C112.305 38.2275 112.368 37.1022 112.368 36.0394C112.368 34.6016 113.384 33.7263 114.971 33.6638C117.89 33.5388 119.731 33.5388 122.587 33.6638C124.111 33.7263 125.126 34.6016 125.126 36.0394C125.19 37.1022 125.253 38.2275 125.253 39.4154H129.252C129.696 39.4154 129.95 39.6654 129.95 40.1031L130.014 41.666C130.014 42.1036 129.76 42.3537 129.315 42.3537H125.253C125.317 47.8552 125.317 54.482 125.317 60.7337C125.317 62.1716 126.332 63.0468 127.729 63.0468C130.585 63.0468 133.187 63.0468 135.282 63.0468C136.742 63.0468 137.694 64.1096 137.757 65.61ZM118.843 43.3539C119.858 43.3539 119.922 42.3537 118.652 42.3537H101.769C101.832 47.8552 101.832 54.482 101.832 60.7337C101.832 62.1716 102.784 63.0468 104.244 63.0468C107.1 63.0468 109.703 63.0468 111.797 63.0468C111.861 63.0468 111.924 63.0468 111.924 63.1093C112.051 58.2955 112.241 53.2316 112.241 48.6679C112.241 44.4167 115.034 43.3539 118.843 43.3539Z" stroke="#FF5C5C"/>
<path d="M156.125 42.3537C179.609 42.1661 178.594 76.488 156.823 76.8631C133.719 77.3632 133.021 42.5412 156.125 42.3537ZM156.315 64.2971C160.822 64.2346 160.631 54.0444 156.252 54.0444C151.618 54.0444 151.872 64.3597 156.315 64.2971Z" stroke="#FF5C5C"/>
<path d="M210.605 57.5453C211.113 62.5467 210.986 68.3607 210.986 73.7372C210.986 75.1751 208.828 76.1129 207.368 76.1129H200.196C198.736 76.1129 197.593 75.3001 197.784 73.7372C197.784 73.7372 198.609 52.0438 193.595 52.1063C190.358 52.1688 189.215 59.6709 189.786 73.7372C189.85 75.1751 188.834 76.1129 187.374 76.1129H178.996C177.536 76.1129 176.521 75.1751 176.584 73.7372L176.648 45.4795C176.648 44.0416 177.663 43.1039 179.123 43.1039H189.469C190.484 43.1039 190.484 44.4792 189.85 45.7921C187.374 51.0435 185.089 54.9196 185.089 54.9196C183.82 56.6701 185.47 57.6703 186.232 55.7948C192.516 38.7277 208.447 38.6652 210.605 57.5453Z" stroke="#FF5C5C"/>
<path d="M1.81683 16.99C0.16442 14.2278 1.09833 10.6691 3.90279 9.04156C6.70725 7.414 10.3203 8.33387 11.9727 11.0961L19.7488 24.0951C21.4012 26.8573 20.4673 30.416 17.6628 32.0435C14.8583 33.6711 11.2453 32.7512 9.59292 29.989L1.81683 16.99Z" stroke="#FF5C5C"/>
<path d="M21.2404 7.59919C20.7956 4.42318 23.049 1.49332 26.2735 1.05517C29.498 0.617022 32.4726 2.83651 32.9175 6.01252L35.0108 20.9585C35.4557 24.1345 33.2023 27.0644 29.9778 27.5025C26.7532 27.9407 23.7786 25.7212 23.3338 22.5452L21.2404 7.59919Z" stroke="#FF5C5C"/>
</svg>
