<svg width="236" height="143" viewBox="0 0 236 143" fill="none" xmlns="http://www.w3.org/2000/svg">
<path d="M23.0117 124.86C21.4017 124.86 20.2817 123.74 20.3517 122.2L21.6817 78.66C21.6817 77.05 22.7317 76 24.3417 76H46.1117C60.0417 76 66.4117 87.83 57.1017 97.42C80.7617 118.77 41.2117 141.87 32.8817 107.99C32.5317 106.24 30.2217 106.73 31.0617 108.62C31.5517 109.88 35.8217 117.93 37.2917 122.34C37.7817 123.81 37.0817 124.86 35.5417 124.86H23.0117ZM39.9517 88.95V94.62H42.8217C48.0717 94.62 48.0717 88.95 42.8217 88.95H39.9517ZM39.9517 101.69V108.69H44.1517C49.4017 108.69 49.4017 101.69 44.1517 101.69H39.9517Z" fill="#A4EBFF"/>
<path d="M100.351 90.07C100.351 95.25 100.701 112.26 100.771 122.06C100.771 123.67 99.6514 124.72 98.1114 124.72H84.3214C82.7813 124.72 82.2913 123.88 83.1313 122.55C85.4413 118.98 88.8013 112.12 88.8013 112.12C90.2013 110.16 89.2214 109.32 88.0313 111.28C76.5513 130.18 67.3813 128.08 67.5213 110.65C67.5213 104.49 67.5213 96.37 67.5213 90.07C67.5213 88.25 68.7813 87.41 70.3214 87.41H78.6513C80.2613 87.41 81.3814 88.46 81.3814 90.07V106.1C81.3814 113.45 86.5613 113.45 86.5613 106.1V90.07C86.5613 88.46 87.6114 87.41 89.2214 87.41H97.5513C99.1613 87.41 100.351 88.46 100.351 90.07Z" fill="#A4EBFF"/>
<path d="M142.986 104.14C143.546 109.74 143.406 116.25 143.406 122.27C143.406 123.88 141.026 124.93 139.416 124.93H131.506C129.896 124.93 128.636 124.02 128.846 122.27C128.846 122.27 129.756 97.98 124.226 98.05C120.656 98.12 119.396 106.52 120.026 122.27C120.096 123.88 118.976 124.93 117.366 124.93H108.126C106.516 124.93 105.396 123.88 105.466 122.27L105.536 90.63C105.536 89.02 106.656 87.97 108.266 87.97H119.676C120.796 87.97 120.796 89.51 120.096 90.98C117.366 96.86 114.846 101.2 114.846 101.2C113.446 103.16 115.266 104.28 116.106 102.18C123.036 83.07 140.606 83 142.986 104.14Z" fill="#A4EBFF"/>
<path d="M185.095 104.14C185.655 109.74 185.515 116.25 185.515 122.27C185.515 123.88 183.135 124.93 181.525 124.93H173.615C172.005 124.93 170.745 124.02 170.955 122.27C170.955 122.27 171.865 97.98 166.335 98.05C162.765 98.12 161.505 106.52 162.135 122.27C162.205 123.88 161.085 124.93 159.475 124.93H150.235C148.625 124.93 147.505 123.88 147.575 122.27L147.645 90.63C147.645 89.02 148.765 87.97 150.375 87.97H161.785C162.905 87.97 162.905 89.51 162.205 90.98C159.475 96.86 156.955 101.2 156.955 101.2C155.555 103.16 157.375 104.28 158.215 102.18C165.145 83.07 182.715 83 185.095 104.14Z" fill="#A4EBFF"/>
<path d="M224.194 87.62C225.804 87.62 226.924 88.67 226.854 90.28C226.854 97.77 226.854 120.45 226.854 122.13C226.854 140.47 205.854 144.11 193.604 141.66C191.994 141.31 190.944 140.89 190.944 139.77V128.5C190.944 127.45 192.134 126.12 193.604 126.75C203.194 130.95 217.334 125.77 217.474 115.06C217.474 113.52 215.724 113.66 215.724 114.99C215.724 128.71 191.714 130.18 189.334 108.41C188.774 102.81 188.914 96.93 188.914 90.84C188.914 89.23 189.334 87.62 191.574 87.62H200.814C202.424 87.62 203.474 88.25 203.474 90.28C203.474 90.28 202.564 114.5 208.094 114.5C210.474 114.5 212.294 111.84 212.294 90.28C212.294 88.67 213.344 87.62 214.954 87.62H224.194Z" fill="#A4EBFF"/>
<path d="M23.0117 124.86C21.4017 124.86 20.2817 123.74 20.3517 122.2L21.6817 78.66C21.6817 77.05 22.7317 76 24.3417 76H46.1117C60.0417 76 66.4117 87.83 57.1017 97.42C80.7617 118.77 41.2117 141.87 32.8817 107.99C32.5317 106.24 30.2217 106.73 31.0617 108.62C31.5517 109.88 35.8217 117.93 37.2917 122.34C37.7817 123.81 37.0817 124.86 35.5417 124.86H23.0117ZM39.9517 88.95V94.62H42.8217C48.0717 94.62 48.0717 88.95 42.8217 88.95H39.9517ZM39.9517 101.69V108.69H44.1517C49.4017 108.69 49.4017 101.69 44.1517 101.69H39.9517Z" stroke="#1D70BD"/>
<path d="M100.351 90.07C100.351 95.25 100.701 112.26 100.771 122.06C100.771 123.67 99.6514 124.72 98.1114 124.72H84.3214C82.7813 124.72 82.2913 123.88 83.1313 122.55C85.4413 118.98 88.8013 112.12 88.8013 112.12C90.2013 110.16 89.2214 109.32 88.0313 111.28C76.5513 130.18 67.3813 128.08 67.5213 110.65C67.5213 104.49 67.5213 96.37 67.5213 90.07C67.5213 88.25 68.7813 87.41 70.3214 87.41H78.6513C80.2613 87.41 81.3814 88.46 81.3814 90.07V106.1C81.3814 113.45 86.5613 113.45 86.5613 106.1V90.07C86.5613 88.46 87.6114 87.41 89.2214 87.41H97.5513C99.1613 87.41 100.351 88.46 100.351 90.07Z" stroke="#1D70BD"/>
<path d="M142.986 104.14C143.546 109.74 143.406 116.25 143.406 122.27C143.406 123.88 141.026 124.93 139.416 124.93H131.506C129.896 124.93 128.636 124.02 128.846 122.27C128.846 122.27 129.756 97.98 124.226 98.05C120.656 98.12 119.396 106.52 120.026 122.27C120.096 123.88 118.976 124.93 117.366 124.93H108.126C106.516 124.93 105.396 123.88 105.466 122.27L105.536 90.63C105.536 89.02 106.656 87.97 108.266 87.97H119.676C120.796 87.97 120.796 89.51 120.096 90.98C117.366 96.86 114.846 101.2 114.846 101.2C113.446 103.16 115.266 104.28 116.106 102.18C123.036 83.07 140.606 83 142.986 104.14Z" stroke="#1D70BD"/>
<path d="M185.095 104.14C185.655 109.74 185.515 116.25 185.515 122.27C185.515 123.88 183.135 124.93 181.525 124.93H173.615C172.005 124.93 170.745 124.02 170.955 122.27C170.955 122.27 171.865 97.98 166.335 98.05C162.765 98.12 161.505 106.52 162.135 122.27C162.205 123.88 161.085 124.93 159.475 124.93H150.235C148.625 124.93 147.505 123.88 147.575 122.27L147.645 90.63C147.645 89.02 148.765 87.97 150.375 87.97H161.785C162.905 87.97 162.905 89.51 162.205 90.98C159.475 96.86 156.955 101.2 156.955 101.2C155.555 103.16 157.375 104.28 158.215 102.18C165.145 83.07 182.715 83 185.095 104.14Z" stroke="#1D70BD"/>
<path d="M224.194 87.62C225.804 87.62 226.924 88.67 226.854 90.28C226.854 97.77 226.854 120.45 226.854 122.13C226.854 140.47 205.854 144.11 193.604 141.66C191.994 141.31 190.944 140.89 190.944 139.77V128.5C190.944 127.45 192.134 126.12 193.604 126.75C203.194 130.95 217.334 125.77 217.474 115.06C217.474 113.52 215.724 113.66 215.724 114.99C215.724 128.71 191.714 130.18 189.334 108.41C188.774 102.81 188.914 96.93 188.914 90.84C188.914 89.23 189.334 87.62 191.574 87.62H200.814C202.424 87.62 203.474 88.25 203.474 90.28C203.474 90.28 202.564 114.5 208.094 114.5C210.474 114.5 212.294 111.84 212.294 90.28C212.294 88.67 213.344 87.62 214.954 87.62H224.194Z" stroke="#1D70BD"/>
<path d="M53.6143 81.29C37.7243 93.12 16.9343 85.84 13.5043 67.36C12.6643 63.16 12.5243 57.91 13.5043 53.71C18.8943 30.12 49.2743 27.11 54.9443 48.46C55.4343 50.21 55.6443 53.85 55.6443 56.86C55.6443 58.4 54.5243 59.45 52.9143 59.45C50.3943 59.45 46.4043 59.45 43.8843 59.45C42.2743 59.45 41.2243 58.47 41.2243 56.86C41.2243 45.59 29.1143 45.66 27.8543 56.86C26.4543 70.09 33.5943 75.76 45.7743 68.34C47.1743 67.5 48.6443 67.71 49.3443 68.97L54.1743 77.51C54.9443 78.91 54.8043 80.31 53.6143 81.29Z" fill="#FFB2B2"/>
<path d="M76.4081 47.13C102.308 46.92 101.188 85.35 77.1781 85.77C51.6981 86.33 50.9281 47.34 76.4081 47.13ZM76.6181 71.7C81.5881 71.63 81.3781 60.22 76.5481 60.22C71.4381 60.22 71.7181 71.77 76.6181 71.7Z" fill="#FFB2B2"/>
<path d="M153.222 73.17C153.292 76.46 153.292 78.98 153.222 82.13C153.152 83.88 152.102 84.93 150.492 85C148.462 85.07 110.032 85 103.172 85C99.0416 85 98.7616 84.09 98.7616 79.47C98.6916 72.19 99.1116 62.39 99.1116 54.2C99.1116 49.44 102.192 48.25 106.392 48.25C107.512 48.25 107.582 47.13 106.182 47.13H95.4716C94.9816 47.13 94.7716 46.85 94.7716 46.36V44.61C94.7716 44.12 94.9816 43.84 95.4716 43.84H99.1816C99.1816 42.51 99.2516 41.25 99.2516 40.06C99.2516 38.45 100.372 37.47 102.122 37.4C105.412 37.26 107.372 37.26 110.522 37.4C112.272 37.47 113.322 38.45 113.392 40.06C113.462 41.25 113.532 42.51 113.532 43.84H125.152C125.152 42.51 125.222 41.25 125.222 40.06C125.222 38.45 126.342 37.47 128.092 37.4C131.312 37.26 133.342 37.26 136.492 37.4C138.172 37.47 139.292 38.45 139.292 40.06C139.362 41.25 139.432 42.51 139.432 43.84H143.842C144.332 43.84 144.612 44.12 144.612 44.61L144.682 46.36C144.682 46.85 144.402 47.13 143.912 47.13H139.432C139.502 53.29 139.502 60.71 139.502 67.71C139.502 69.32 140.622 70.3 142.162 70.3C145.312 70.3 148.182 70.3 150.492 70.3C152.102 70.3 153.152 71.49 153.222 73.17ZM132.362 48.25C133.482 48.25 133.552 47.13 132.152 47.13H113.532C113.602 53.29 113.602 60.71 113.602 67.71C113.602 69.32 114.652 70.3 116.262 70.3C119.412 70.3 122.282 70.3 124.592 70.3C124.662 70.3 124.732 70.3 124.732 70.37C124.872 64.98 125.082 59.31 125.082 54.2C125.082 49.44 128.162 48.25 132.362 48.25Z" fill="#FFB2B2"/>
<path d="M173.478 47.13C199.378 46.92 198.258 85.35 174.248 85.77C148.768 86.33 147.998 47.34 173.478 47.13ZM173.688 71.7C178.658 71.63 178.448 60.22 173.618 60.22C168.508 60.22 168.788 71.77 173.688 71.7Z" fill="#FFB2B2"/>
<path d="M233.562 64.14C234.122 69.74 233.982 76.25 233.982 82.27C233.982 83.88 231.602 84.93 229.992 84.93H222.082C220.472 84.93 219.212 84.02 219.422 82.27C219.422 82.27 220.332 57.98 214.802 58.05C211.232 58.12 209.972 66.52 210.602 82.27C210.672 83.88 209.552 84.93 207.942 84.93H198.702C197.092 84.93 195.972 83.88 196.042 82.27L196.112 50.63C196.112 49.02 197.232 47.97 198.842 47.97H210.252C211.372 47.97 211.372 49.51 210.672 50.98C207.942 56.86 205.422 61.2 205.422 61.2C204.022 63.16 205.842 64.28 206.682 62.18C213.612 43.07 231.182 43 233.562 64.14Z" fill="#FFB2B2"/>
<path d="M3.29977 18.7305C1.47741 15.6376 2.50737 11.653 5.60027 9.8306C8.69317 8.00823 12.6778 9.0382 14.5001 12.1311L23.076 26.6859C24.8984 29.7788 23.8684 33.7634 20.7755 35.5858C17.6826 37.4082 13.698 36.3782 11.8756 33.2853L3.29977 18.7305Z" fill="#FFB2B2"/>
<path d="M24.7211 8.21559C24.2305 4.65942 26.7156 1.37887 30.2718 0.888279C33.828 0.397689 37.1085 2.88283 37.5991 6.439L39.9078 23.1739C40.3984 26.7301 37.9132 30.0107 34.3571 30.5013C30.8009 30.9918 27.5203 28.5067 27.0297 24.9505L24.7211 8.21559Z" fill="#FFB2B2"/>
<path d="M53.6143 81.29C37.7243 93.12 16.9343 85.84 13.5043 67.36C12.6643 63.16 12.5243 57.91 13.5043 53.71C18.8943 30.12 49.2743 27.11 54.9443 48.46C55.4343 50.21 55.6443 53.85 55.6443 56.86C55.6443 58.4 54.5243 59.45 52.9143 59.45C50.3943 59.45 46.4043 59.45 43.8843 59.45C42.2743 59.45 41.2243 58.47 41.2243 56.86C41.2243 45.59 29.1143 45.66 27.8543 56.86C26.4543 70.09 33.5943 75.76 45.7743 68.34C47.1743 67.5 48.6443 67.71 49.3443 68.97L54.1743 77.51C54.9443 78.91 54.8043 80.31 53.6143 81.29Z" stroke="#FF5C5C"/>
<path d="M76.4081 47.13C102.308 46.92 101.188 85.35 77.1781 85.77C51.6981 86.33 50.9281 47.34 76.4081 47.13ZM76.6181 71.7C81.5881 71.63 81.3781 60.22 76.5481 60.22C71.4381 60.22 71.7181 71.77 76.6181 71.7Z" stroke="#FF5C5C"/>
<path d="M153.222 73.17C153.292 76.46 153.292 78.98 153.222 82.13C153.152 83.88 152.102 84.93 150.492 85C148.462 85.07 110.032 85 103.172 85C99.0416 85 98.7616 84.09 98.7616 79.47C98.6916 72.19 99.1116 62.39 99.1116 54.2C99.1116 49.44 102.192 48.25 106.392 48.25C107.512 48.25 107.582 47.13 106.182 47.13H95.4716C94.9816 47.13 94.7716 46.85 94.7716 46.36V44.61C94.7716 44.12 94.9816 43.84 95.4716 43.84H99.1816C99.1816 42.51 99.2516 41.25 99.2516 40.06C99.2516 38.45 100.372 37.47 102.122 37.4C105.412 37.26 107.372 37.26 110.522 37.4C112.272 37.47 113.322 38.45 113.392 40.06C113.462 41.25 113.532 42.51 113.532 43.84H125.152C125.152 42.51 125.222 41.25 125.222 40.06C125.222 38.45 126.342 37.47 128.092 37.4C131.312 37.26 133.342 37.26 136.492 37.4C138.172 37.47 139.292 38.45 139.292 40.06C139.362 41.25 139.432 42.51 139.432 43.84H143.842C144.332 43.84 144.612 44.12 144.612 44.61L144.682 46.36C144.682 46.85 144.402 47.13 143.912 47.13H139.432C139.502 53.29 139.502 60.71 139.502 67.71C139.502 69.32 140.622 70.3 142.162 70.3C145.312 70.3 148.182 70.3 150.492 70.3C152.102 70.3 153.152 71.49 153.222 73.17ZM132.362 48.25C133.482 48.25 133.552 47.13 132.152 47.13H113.532C113.602 53.29 113.602 60.71 113.602 67.71C113.602 69.32 114.652 70.3 116.262 70.3C119.412 70.3 122.282 70.3 124.592 70.3C124.662 70.3 124.732 70.3 124.732 70.37C124.872 64.98 125.082 59.31 125.082 54.2C125.082 49.44 128.162 48.25 132.362 48.25Z" stroke="#FF5C5C"/>
<path d="M173.478 47.13C199.378 46.92 198.258 85.35 174.248 85.77C148.768 86.33 147.998 47.34 173.478 47.13ZM173.688 71.7C178.658 71.63 178.448 60.22 173.618 60.22C168.508 60.22 168.788 71.77 173.688 71.7Z" stroke="#FF5C5C"/>
<path d="M233.562 64.14C234.122 69.74 233.982 76.25 233.982 82.27C233.982 83.88 231.602 84.93 229.992 84.93H222.082C220.472 84.93 219.212 84.02 219.422 82.27C219.422 82.27 220.332 57.98 214.802 58.05C211.232 58.12 209.972 66.52 210.602 82.27C210.672 83.88 209.552 84.93 207.942 84.93H198.702C197.092 84.93 195.972 83.88 196.042 82.27L196.112 50.63C196.112 49.02 197.232 47.97 198.842 47.97H210.252C211.372 47.97 211.372 49.51 210.672 50.98C207.942 56.86 205.422 61.2 205.422 61.2C204.022 63.16 205.842 64.28 206.682 62.18C213.612 43.07 231.182 43 233.562 64.14Z" stroke="#FF5C5C"/>
<path d="M3.29977 18.7305C1.47741 15.6376 2.50737 11.653 5.60027 9.8306C8.69317 8.00823 12.6778 9.0382 14.5001 12.1311L23.076 26.6859C24.8984 29.7788 23.8684 33.7634 20.7755 35.5858C17.6826 37.4082 13.698 36.3782 11.8756 33.2853L3.29977 18.7305Z" stroke="#FF5C5C"/>
<path d="M24.7211 8.21559C24.2305 4.65942 26.7156 1.37887 30.2718 0.888279C33.828 0.397689 37.1085 2.88283 37.5991 6.439L39.9078 23.1739C40.3984 26.7301 37.9132 30.0107 34.3571 30.5013C30.8009 30.9918 27.5203 28.5067 27.0297 24.9505L24.7211 8.21559Z" stroke="#FF5C5C"/>
</svg>
